{
.appVersion = "3219";
.formatVersion = 3;
DisplayStrings = (
"/matraItwentytwoReph.dv"
);
axes = (
{
name = Weight;
tag = wght;
}
);
classes = (
{

glyphs = (
{
color = 4;
glyphname = A;
kernLeft = A;
kernRight = A;
layers = (
{
anchors = (
{
name = bottom;
pos = (349,0);
},
{
name = ogonek;
pos = (714,10);
},
{
name = top;
pos = (349,701);
}
);
layerId = "B3961A9D-C6DC-4F74-9770-9C992C479D86";
shapes = (
{
closed = 1;
nodes = (
(26,0,l),
(169,0,l),
(222,169,l),
(475,169,l),
(528,0,l),
(671,0,l),
(441,701,l),
(256,701,l)
);
},
{
closed = 1;
nodes = (
(347,568,l),
(350,568,l),
(441,278,l),
(256,278,l)
);
}
);
width = 697;
},
{
anchors = (
{
name = bottom;
pos = (288,0);
},
{
name = ogonek;
pos = (518,10);
},
{
name = top;
pos = (288,700);
}
);
layerId = "0DC1F6FB-20EC-4E8F-AE98-F98B5FD714DE";
shapes = (
{
closed = 1;
nodes = (
(17,0,l),
(60,0,l),
(139,232,l),
(436,232,l),
(515,0,l),
(559,0,l),
(309,701,l),
(267,701,l)
);
},
{
closed = 1;
nodes = (
(286,659,l),
(289,659,l),
(424,265,l),
(151,265,l)
);
}
);
width = 576;
}
);
unicode = 65;
},
{
color = 4;
glyphname = AE;
layers = (
{
anchors = (
{
name = bottom;
pos = (650,0);
},
{
name = ogonek;
pos = (881,10);
},
{
name = top;
pos = (650,630);
},
{
name = topleft;
pos = (380,630);
}
);
layerId = "B3961A9D-C6DC-4F74-9770-9C992C479D86";
shapes = (
{
closed = 1;
nodes = (
(446,0,l),
(882,0,l),
(882,109,l),
(582,109,l),
(582,301,l),
(872,301,l),
(872,408,l),
(582,408,l),
(582,592,l),
(882,592,l),
(882,701,l),
(446,701,l)
);
},
{
closed = 1;
nodes = (
(550,701,l),
(256,701,l),
(26,0,l),
(167,0,l),
(220,169,l),
(550,169,l),
(550,278,l),
(256,278,l),
(354,592,l),
(550,592,l)
);
}
);
width = 939;
},
{
anchors = (
{
name = bottom;
pos = (558,0);
},
{
name = ogonek;
pos = (756,10);
},
{
name = top;
pos = (558,700);
},
{
name = topleft;
pos = (330,700);
}
);
layerId = "0DC1F6FB-20EC-4E8F-AE98-F98B5FD714DE";
shapes = (
{
closed = 1;
nodes = (
(390,0,l),
(776,0,l),
(776,36,l),
(426,36,l),
(426,342,l),
(766,342,l),
(766,375,l),
(426,375,l),
(426,665,l),
(776,665,l),
(776,701,l),
(390,701,l)
);
},
{
closed = 1;
nodes = (
(407,701,l),
(267,701,l),
(17,0,l),
(57,0,l),
(139,232,l),
(407,232,l),
(407,265,l),
(151,265,l),
(292,665,l),
(407,665,l)
);
}
);
width = 805;
}
);
unicode = 198;
},
{
color = 4;
glyphname = B;
layers = (
{
anchors = (
{
name = bottom;
pos = (317,0);
},
{
name = center;
pos = (317,315);
},
{
name = top;
pos = (317,630);
}
);
guides = (
{
angle = 90;
pos = (1390,0);
},
{
angle = 90;
pos = (610,0);
},
{
angle = 90;
pos = (1283,0);
}
);
layerId = "B3961A9D-C6DC-4F74-9770-9C992C479D86";
shapes = (
{
closed = 1;
nodes = (
(86,0,l),
(284,0,ls),
(381,0,o),
(574,-17,o),
(574,189,cs),
(574,214,l),
(573,321,o),
(520,348,o),
(451,356,c),
(451,360,l),
(515,370,o),
(563,399,o),
(564,501,c),
(564,527,ls),
(564,715,o),
(396,701,o),
(310,701,cs),
(86,701,l)
);
},
{
closed = 1;
nodes = (
(222,300,l),
(333,300,l),
(419,299,o),
(436,273,o),
(436,211,cs),
(436,196,ls),
(436,127,o),
(399,109,o),
(330,109,cs),
(222,109,l)
);
},
{
closed = 1;
nodes = (
(222,592,l),
(320,592,ls),
(389,592,o),
(425,574,o),
(426,505,c),
(426,498,l),
(425,442,o),
(401,410,o),
(315,409,c),
(222,409,l)
);
}
);
width = 633;
},
{
anchors = (
{
name = bottom;
pos = (276,0);
},
{
name = center;
pos = (276,350);
},
{
name = top;
pos = (276,700);
}
);
layerId = "0DC1F6FB-20EC-4E8F-AE98-F98B5FD714DE";
shapes = (
{
closed = 1;
nodes = (
(80,0,l),
(229,0,l),
(390,3,o),
(498,9,o),
(498,191,cs),
(498,204,l),
(497,329,o),
(422,358,o),
(376,366,c),
(376,370,l),
(421,375,o),
(488,397,o),
(488,500,cs),
(488,561,ls),
(488,698,o),
(334,700,o),
(255,701,c),
(80,701,l)
);
},
{
closed = 1;
nodes = (
(116,350,l),
(252,350,l),
(328,349,o),
(462,348,o),
(462,219,cs),
(462,180,ls),
(462,30,o),
(344,39,o),
(209,36,c),
(116,36,l)
);
},
{
closed = 1;
nodes = (
(116,665,l),
(234,665,l),
(301,664,o),
(451,666,o),
(452,561,c),
(452,502,l),
(451,426,o),
(405,385,o),
(252,383,c),
(116,383,l)
);
}
);
width = 552;
}
);
unicode = 66;
},
{
color = 4;
glyphname = C;
kernLeft = C;
kernRight = C;
layers = (
{
anchors = (
{
name = bottom;
pos = (294,0);
},
{
name = top;
pos = (294,630);
}
);
guides = (
{
pos = (0,711);
}
);
layerId = "B3961A9D-C6DC-4F74-9770-9C992C479D86";
shapes = (
{
closed = 1;
nodes = (
(195,409,ls),
(195,538,o),
(240,587,o),
(360,590,cs),
(408,591,o),
(497,579,o),
(539,566,c),
(539,681,l),
(486,702,o),
(402,711,o),
(360,711,cs),
(180,711,o),
(61,653,o),
(61,428,cs),
(61,274,ls),
(61,49,o),
(180,-9,o),
(360,-9,cs),
(402,-9,o),
(486,0,o),
(539,21,c),
(539,135,l),
(497,122,o),
(408,110,o),
(360,111,cs),
(240,114,o),
(195,164,o),
(195,293,cs)
);
}
);
width = 588;
},
{
anchors = (
{
name = bottom;
pos = (264,0);
},
{
name = top;
pos = (264,700);
}
);
layerId = "0DC1F6FB-20EC-4E8F-AE98-F98B5FD714DE";
shapes = (
{
closed = 1;
nodes = (
(95,436,ls),
(95,600,o),
(148,674,o),
(330,674,cs),
(386,674,o),
(464,664,o),
(502,650,c),
(502,686,l),
(460,701,o),
(384,709,o),
(330,710,cs),
(105,710,o),
(59,621,o),
(59,424,cs),
(59,277,ls),
(59,80,o),
(105,-9,o),
(330,-9,cs),
(384,-8,o),
(460,0,o),
(502,15,c),
(502,51,l),
(464,37,o),
(386,27,o),
(330,27,cs),
(148,27,o),
(95,101,o),
(95,265,cs)
);
}
);
width = 527;
}
);
unicode = 67;
},
{
color = 4;
glyphname = D;
kernRight = D;
layers = (
{
anchors = (
{
name = bottom;
pos = (349,0);
},
{
name = center;
pos = (349,315);
},
{
name = top;
pos = (349,630);
}
);
layerId = "B3961A9D-C6DC-4F74-9770-9C992C479D86";
shapes = (
{
closed = 1;
nodes = (
(344,0,ls),
(517,0,o),
(636,57,o),
(636,277,cs),
(636,425,ls),
(636,645,o),
(517,701,o),
(344,701,cs),
(86,701,l),
(86,0,l)
);
},
{
closed = 1;
nodes = (
(222,592,l),
(343,592,ls),
(460,592,o),
(502,545,o),
(502,417,cs),
(502,285,ls),
(502,158,o),
(459,109,o),
(343,109,cs),
(222,109,l)
);
}
);
width = 697;
},
{
anchors = (
{
name = bottom;
pos = (315,0);
},
{
name = center;
pos = (315,350);
},
{
name = top;
pos = (315,700);
}
);
guides = (
{
angle = 90;
pos = (271,0);
}
);
hints = (
{
place = (325,30);
type = Stem;
}
);
layerId = "0DC1F6FB-20EC-4E8F-AE98-F98B5FD714DE";
shapes = (
{
closed = 1;
nodes = (
(282,0,ls),
(488,0,o),
(572,58,o),
(572,277,cs),
(572,425,ls),
(572,644,o),
(493,701,o),
(282,701,cs),
(80,701,l),
(80,0,l)
);
},
{
closed = 1;
nodes = (
(116,665,l),
(281,665,ls),
(482,665,o),
(536,602,o),
(536,437,cs),
(536,265,ls),
(536,101,o),
(481,36,o),
(282,36,cs),
(116,36,l)
);
}
);
width = 630;
}
);
unicode = 68;
},
{
color = 4;
glyphname = Eth;
layers = (
{
layerId = "B3961A9D-C6DC-4F74-9770-9C992C479D86";
shapes = (
{
closed = 1;
nodes = (
(344,0,ls),
(517,0,o),
(636,57,o),
(636,277,cs),
(636,425,ls),
(636,645,o),
(517,701,o),
(344,701,cs),
(86,701,l),
(86,0,l)
);
},
{
closed = 1;
nodes = (
(222,592,l),
(343,592,ls),
(460,592,o),
(502,545,o),
(502,417,cs),
(502,285,ls),
(502,158,o),
(459,109,o),
(343,109,cs),
(222,109,l)
);
},
{
closed = 1;
nodes = (
(5,292,l),
(339,292,l),
(339,410,l),
(5,410,l)
);
}
);
width = 697;
},
{
layerId = "0DC1F6FB-20EC-4E8F-AE98-F98B5FD714DE";
shapes = (
{
closed = 1;
nodes = (
(282,0,ls),
(488,0,o),
(572,58,o),
(572,277,cs),
(572,425,ls),
(572,644,o),
(493,701,o),
(282,701,cs),
(80,701,l),
(80,0,l)
);
},
{
closed = 1;
nodes = (
(116,665,l),
(281,665,ls),
(482,665,o),
(536,602,o),
(536,437,cs),
(536,265,ls),
(536,101,o),
(481,36,o),
(282,36,cs),
(116,36,l)
);
},
{
closed = 1;
nodes = (
(7,334,l),
(241,334,l),
(241,368,l),
(7,368,l)
);
}
);
width = 630;
}
);
unicode = 208;
},
{
color = 4;
glyphname = E;
kernRight = E;
layers = (
{
anchors = (
{
name = bottom;
pos = (290,0);
},
{
name = ogonek;
pos = (521,10);
},
{
name = top;
pos = (290,630);
},
{
name = topleft;
pos = (20,630);
}
);
layerId = "B3961A9D-C6DC-4F74-9770-9C992C479D86";
shapes = (
{
closed = 1;
nodes = (
(86,0,l),
(522,0,l),
(522,109,l),
(222,109,l),
(222,301,l),
(512,301,l),
(512,408,l),
(222,408,l),
(222,592,l),
(522,592,l),
(522,701,l),
(86,701,l)
);
}
);
width = 579;
},
{
anchors = (
{
name = bottom;
pos = (248,0);
},
{
name = ogonek;
pos = (446,10);
},
{
name = top;
pos = (248,700);
},
{
name = topleft;
pos = (20,700);
}
);
layerId = "0DC1F6FB-20EC-4E8F-AE98-F98B5FD714DE";
shapes = (
{
closed = 1;
nodes = (
(80,0,l),
(466,0,l),
(466,36,l),
(116,36,l),
(116,342,l),
(456,342,l),
(456,375,l),
(116,375,l),
(116,665,l),
(466,665,l),
(466,701,l),
(80,701,l)
);
}
);
width = 495;
}
);
unicode = 69;
},
{
color = 4;
glyphname = F;
layers = (
{
anchors = (
{
name = bottom;
pos = (283,0);
},
{
name = top;
pos = (283,630);
}
);
layerId = "B3961A9D-C6DC-4F74-9770-9C992C479D86";
shapes = (
{
closed = 1;
nodes = (
(86,0,l),
(222,0,l),
(222,290,l),
(511,290,l),
(511,397,l),
(222,397,l),
(222,592,l),
(522,592,l),
(522,701,l),
(86,701,l)
);
}
);
width = 565;
},
{
anchors = (
{
name = bottom;
pos = (244,0);
},
{
name = top;
pos = (244,700);
}
);
layerId = "0DC1F6FB-20EC-4E8F-AE98-F98B5FD714DE";
shapes = (
{
closed = 1;
nodes = (
(80,-5,l),
(116,0,l),
(116,346,l),
(456,346,l),
(456,379,l),
(116,379,l),
(116,665,l),
(466,665,l),
(466,701,l),
(80,701,l)
);
}
);
width = 487;
}
);
unicode = 70;
},
{
color = 4;
glyphname = G;
kernLeft = G;
kernRight = G;
layers = (
{
anchors = (
{
name = bottom;
pos = (349,0);
},
{
name = top;
pos = (349,630);
}
);
layerId = "B3961A9D-C6DC-4F74-9770-9C992C479D86";
shapes = (
{
closed = 1;
nodes = (
(456,-9,o),
(490,56,o),
(507,131,c),
(510,131,l),
(510,1,l),
(632,0,l),
(632,341,l),
(354,341,l),
(354,235,l),
(499,235,l),
(492,154,o),
(470,100,o),
(354,100,cs),
(237,100,o),
(195,158,o),
(195,285,cs),
(195,417,ls),
(195,545,o),
(236,602,o),
(354,602,cs),
(449,602,o),
(485,565,o),
(499,483,c),
(631,500,l),
(610,656,o),
(510,711,o),
(354,711,cs),
(179,711,o),
(61,644,o),
(61,425,cs),
(61,277,ls),
(61,57,o),
(159,-9,o),
(334,-9,cs)
);
}
);
width = 697;
},
{
anchors = (
{
name = bottom;
pos = (325,0);
},
{
name = top;
pos = (325,700);
}
);
guides = (
{
angle = 90;
pos = (597,0);
}
);
layerId = "0DC1F6FB-20EC-4E8F-AE98-F98B5FD714DE";
shapes = (
{
closed = 1;
nodes = (
(455,-9,o),
(524,16,o),
(552,137,c),
(554,137,l),
(554,1,l),
(587,0,l),
(587,361,l),
(309,361,l),
(309,328,l),
(554,328,l),
(554,76,o),
(481,27,o),
(330,27,cs),
(148,27,o),
(95,101,o),
(95,265,cs),
(95,437,ls),
(95,602,o),
(147,675,o),
(330,675,cs),
(482,675,o),
(535,624,o),
(551,511,c),
(587,515,l),
(569,664,o),
(504,711,o),
(330,711,cs),
(109,711,o),
(59,626,o),
(59,425,cs),
(59,277,ls),
(59,80,o),
(105,-9,o),
(330,-9,cs)
);
}
);
width = 650;
}
);
unicode = 71;
},
{
color = 4;
glyphname = H;
layers = (
{
anchors = (
{
name = bottom;
pos = (355,0);
},
{
name = center;
pos = (355,315);
},
{
name = top;
pos = (355,630);
},
{
name = topleft;
pos = (20,630);
}
);
layerId = "B3961A9D-C6DC-4F74-9770-9C992C479D86";
shapes = (
{
closed = 1;
nodes = (
(86,0,l),
(222,0,l),
(222,300,l),
(487,300,l),
(487,0,l),
(623,0,l),
(623,701,l),
(487,701,l),
(487,407,l),
(222,407,l),
(222,701,l),
(86,701,l)
);
}
);
width = 709;
},
{
anchors = (
{
name = bottom;
pos = (303,0);
},
{
name = center;
pos = (303,350);
},
{
name = top;
pos = (303,700);
},
{
name = topleft;
pos = (20,700);
}
);
layerId = "0DC1F6FB-20EC-4E8F-AE98-F98B5FD714DE";
shapes = (
{
closed = 1;
nodes = (
(80,-5,l),
(116,0,l),
(116,346,l),
(490,346,l),
(490,-5,l),
(526,0,l),
(526,701,l),
(490,701,l),
(490,379,l),
(116,379,l),
(116,701,l),
(80,701,l)
);
}
);
width = 606;
}
);
unicode = 72;
},
{
color = 4;
glyphname = I;
kernRight = I;
layers = (
{
anchors = (
{
name = bottom;
pos = (154,0);
},
{
name = ogonek;
pos = (277,10);
},
{
name = top;
pos = (154,630);
},
{
name = topleft;
pos = (20,630);
}
);
layerId = "B3961A9D-C6DC-4F74-9770-9C992C479D86";
shapes = (
{
closed = 1;
nodes = (
(86,0,l),
(222,0,l),
(222,701,l),
(86,701,l)
);
}
);
width = 308;
},
{
anchors = (
{
name = bottom;
pos = (98,0);
},
{
name = ogonek;
pos = (176,10);
},
{
name = top;
pos = (98,700);
},
{
name = topleft;
pos = (20,700);
}
);
layerId = "0DC1F6FB-20EC-4E8F-AE98-F98B5FD714DE";
shapes = (
{
closed = 1;
nodes = (
(80,0,l),
(116,0,l),
(116,701,l),
(80,701,l)
);
}
);
width = 196;
}
);
unicode = 73;
},
{
color = 4;
glyphname = J;
kernLeft = J;
kernRight = J;
layers = (
{
anchors = (
{
name = bottom;
pos = (204,0);
},
{
name = top;
pos = (204,630);
}
);
layerId = "B3961A9D-C6DC-4F74-9770-9C992C479D86";
shapes = (
{
closed = 1;
nodes = (
(29,0,l),
(142,0,ls),
(294,0,o),
(327,36,o),
(327,235,cs),
(327,701,l),
(193,701,l),
(193,235,ls),
(193,135,o),
(187,109,o),
(98,109,cs),
(29,109,l)
);
}
);
width = 407;
},
{
anchors = (
{
name = bottom;
pos = (121,0);
},
{
name = top;
pos = (121,700);
}
);
layerId = "0DC1F6FB-20EC-4E8F-AE98-F98B5FD714DE";
shapes = (
{
closed = 1;
nodes = (
(13,0,l),
(72,0,ls),
(130,0,o),
(165,8,o),
(163,85,c),
(163,701,l),
(127,701,l),
(127,85,ls),
(127,49,o),
(120,33,o),
(72,33,cs),
(13,33,l)
);
}
);
width = 242;
}
);
unicode = 74;
},
{
color = 4;
glyphname = K;
kernRight = K;
layers = (
{
anchors = (
{
name = bottom;
pos = (321,0);
},
{
name = top;
pos = (321,630);
}
);
guides = (
{
angle = 90;
pos = (605,0);
}
);
layerId = "B3961A9D-C6DC-4F74-9770-9C992C479D86";
shapes = (
{
closed = 1;
nodes = (
(86,0,l),
(222,0,l),
(222,300,l),
(269,300,l),
(464,0,l),
(616,0,l),
(383,351,l),
(605,701,l),
(454,701,l),
(269,400,l),
(222,400,l),
(222,701,l),
(86,701,l)
);
}
);
width = 641;
},
{
anchors = (
{
name = bottom;
pos = (249,0);
},
{
name = top;
pos = (249,700);
}
);
guides = (
{
angle = 90;
pos = (481,0);
}
);
layerId = "0DC1F6FB-20EC-4E8F-AE98-F98B5FD714DE";
shapes = (
{
closed = 1;
nodes = (
(80,0,l),
(116,0,l),
(116,347,l),
(180,347,l),
(436,0,l),
(481,0,l),
(209,364,l),
(473,701,l),
(427,701,l),
(180,381,l),
(116,381,l),
(116,701,l),
(80,701,l)
);
}
);
width = 497;
}
);
unicode = 75;
},
{
color = 4;
glyphname = L;
kernRight = L;
layers = (
{
anchors = (
{
name = bottom;
pos = (271,0);
},
{
name = center;
pos = (271,315);
},
{
name = top;
pos = (271,630);
},
{
name = topright;
pos = (521,630);
}
);
layerId = "B3961A9D-C6DC-4F74-9770-9C992C479D86";
shapes = (
{
closed = 1;
nodes = (
(86,0,l),
(512,0,l),
(512,109,l),
(222,109,l),
(222,701,l),
(86,701,l)
);
}
);
width = 541;
},
{
anchors = (
{
name = bottom;
pos = (230,0);
},
{
name = center;
pos = (230,350);
},
{
name = top;
pos = (230,700);
},
{
name = topright;
pos = (439,700);
}
);
layerId = "0DC1F6FB-20EC-4E8F-AE98-F98B5FD714DE";
shapes = (
{
closed = 1;
nodes = (
(80,0,l),
(446,0,l),
(446,33,l),
(116,33,l),
(116,701,l),
(80,701,l)
);
}
);
width = 459;
}
);
unicode = 76;
},
{
color = 4;
glyphname = M;
kernRight = M;
layers = (
{
anchors = (
{
name = bottom;
pos = (481,0);
},
{
name = top;
pos = (481,630);
}
);
layerId = "B3961A9D-C6DC-4F74-9770-9C992C479D86";
shapes = (
{
closed = 1;
nodes = (
(201,0,l),
(233,556,l),
(236,556,l),
(397,0,l),
(565,0,l),
(726,556,l),
(729,556,l),
(761,0,l),
(896,0,l),
(856,701,l),
(660,701,l),
(483,118,l),
(479,118,l),
(302,701,l),
(106,701,l),
(66,0,l)
);
}
);
width = 962;
},
{
anchors = (
{
name = bottom;
pos = (382,0);
},
{
name = top;
pos = (382,700);
}
);
layerId = "0DC1F6FB-20EC-4E8F-AE98-F98B5FD714DE";
shapes = (
{
closed = 1;
nodes = (
(102,0,l),
(129,639,l),
(133,639,l),
(355,0,l),
(409,0,l),
(631,639,l),
(635,639,l),
(662,0,l),
(698,0,l),
(668,701,l),
(621,701,l),
(384,45,l),
(380,45,l),
(143,701,l),
(96,701,l),
(66,0,l)
);
}
);
width = 764;
}
);
unicode = 77;
},
{
color = 4;
glyphname = N;
layers = (
{
anchors = (
{
name = bottom;
pos = (375,0);
},
{
name = top;
pos = (375,630);
}
);
layerId = "B3961A9D-C6DC-4F74-9770-9C992C479D86";
shapes = (
{
closed = 1;
nodes = (
(663,0,l),
(663,701,l),
(528,701,l),
(528,108,l),
(524,108,l),
(302,701,l),
(86,701,l),
(86,0,l),
(221,0,l),
(221,601,l),
(222,601,l),
(447,0,l)
);
}
);
width = 749;
},
{
anchors = (
{
name = bottom;
pos = (305,0);
},
{
name = top;
pos = (305,700);
}
);
layerId = "0DC1F6FB-20EC-4E8F-AE98-F98B5FD714DE";
shapes = (
{
closed = 1;
nodes = (
(529,0,l),
(529,701,l),
(493,701,l),
(493,39,l),
(489,39,l),
(137,701,l),
(80,701,l),
(80,0,l),
(116,0,l),
(116,662,l),
(120,662,l),
(472,0,l)
);
}
);
width = 609;
}
);
unicode = 78;
},
{
color = 4;
glyphname = O;
kernLeft = O;
kernRight = O;
layers = (
{
anchors = (
{
name = bottom;
pos = (354,0);
},
{
name = center;
pos = (354,315);
},
{
name = ogonek;
pos = (636,10);
},
{
name = top;
pos = (354,630);
},
{
name = topleft;
pos = (20,630);
},
{
name = topright;
pos = (687,630);
}
);
guides = (
{
pos = (0,701);
}
);
layerId = "B3961A9D-C6DC-4F74-9770-9C992C479D86";
shapes = (
{
closed = 1;
nodes = (
(528,-9,o),
(647,57,o),
(647,277,c),
(647,425,l),
(647,645,o),
(528,711,o),
(353,711,c),
(178,711,o),
(60,644,o),
(60,425,c),
(60,277,l),
(60,57,o),
(178,-9,o),
(353,-9,c)
);
},
{
closed = 1;
nodes = (
(236,100,o),
(194,158,o),
(194,285,c),
(194,417,l),
(194,545,o),
(235,602,o),
(353,602,c),
(471,602,o),
(513,545,o),
(513,417,c),
(513,285,l),
(513,158,o),
(470,100,o),
(353,100,c)
);
}
);
width = 707;
},
{
anchors = (
{
name = bottom;
pos = (331,0);
},
{
name = center;
pos = (331,350);
},
{
name = ogonek;
pos = (595,10);
},
{
name = top;
pos = (331,700);
},
{
name = topleft;
pos = (20,700);
},
{
name = topright;
pos = (641,700);
}
);
layerId = "0DC1F6FB-20EC-4E8F-AE98-F98B5FD714DE";
shapes = (
{
closed = 1;
nodes = (
(535,-9,o),
(602,57,o),
(602,277,c),
(602,425,l),
(602,645,o),
(535,711,o),
(330,711,c),
(125,711,o),
(59,644,o),
(59,425,c),
(59,277,l),
(59,57,o),
(125,-9,o),
(330,-9,c)
);
},
{
closed = 1;
nodes = (
(149,27,o),
(95,101,o),
(95,265,c),
(95,437,l),
(95,602,o),
(148,675,o),
(330,675,c),
(512,675,o),
(566,602,o),
(566,437,c),
(566,265,l),
(566,101,o),
(511,27,o),
(330,27,c)
);
}
);
width = 661;
}
);
unicode = 79;
},
{
color = 4;
glyphname = Oslash;
layers = (
{
layerId = "B3961A9D-C6DC-4F74-9770-9C992C479D86";
shapes = (
{
closed = 1;
nodes = (
(528,-9,o),
(647,57,o),
(647,277,c),
(647,425,l),
(647,645,o),
(528,711,o),
(353,711,c),
(178,711,o),
(60,644,o),
(60,425,c),
(60,277,l),
(60,57,o),
(178,-9,o),
(353,-9,c)
);
},
{
closed = 1;
nodes = (
(236,100,o),
(194,158,o),
(194,285,c),
(194,417,l),
(194,545,o),
(235,602,o),
(353,602,c),
(471,602,o),
(513,545,o),
(513,417,c),
(513,285,l),
(513,158,o),
(470,100,o),
(353,100,c)
);
},
{
closed = 1;
nodes = (
(448,802,l),
(120,-107,l),
(260,-107,l),
(588,802,l)
);
}
);
width = 707;
},
{
layerId = "0DC1F6FB-20EC-4E8F-AE98-F98B5FD714DE";
shapes = (
{
closed = 1;
nodes = (
(535,-9,o),
(602,57,o),
(602,277,c),
(602,425,l),
(602,645,o),
(535,711,o),
(330,711,c),
(125,711,o),
(59,644,o),
(59,425,c),
(59,277,l),
(59,57,o),
(125,-9,o),
(330,-9,c)
);
},
{
closed = 1;
nodes = (
(149,27,o),
(95,101,o),
(95,265,c),
(95,437,l),
(95,602,o),
(148,675,o),
(330,675,c),
(512,675,o),
(566,602,o),
(566,437,c),
(566,265,l),
(566,101,o),
(511,27,o),
(330,27,c)
);
},
{
closed = 1;
nodes = (
(507,792,l),
(116,-99,l),
(155,-99,l),
(546,792,l)
);
}
);
width = 661;
}
);
unicode = 216;
},
{
color = 4;
glyphname = OE;
layers = (
{
anchors = (
{
name = bottom;
pos = (351,0);
},
{
name = center;
pos = (351,315);
},
{
name = ogonek;
pos = (633,10);
},
{
name = top;
pos = (351,630);
},
{
name = topleft;
pos = (17,630);
},
{
name = topright;
pos = (684,630);
}
);
layerId = "B3961A9D-C6DC-4F74-9770-9C992C479D86";
shapes = (
{
closed = 1;
nodes = (
(508,-9,o),
(594,57,o),
(594,277,c),
(594,425,l),
(594,645,o),
(508,711,o),
(333,711,cs),
(158,711,o),
(60,644,o),
(60,425,c),
(60,277,l),
(60,57,o),
(178,-9,o),
(333,-9,c)
);
},
{
closed = 1;
nodes = (
(236,100,o),
(194,158,o),
(194,285,c),
(194,417,l),
(194,545,o),
(235,602,o),
(353,602,c),
(471,602,o),
(513,545,o),
(513,417,c),
(513,285,l),
(513,158,o),
(470,100,o),
(353,100,c)
);
},
{
closed = 1;
nodes = (
(513,0,l),
(949,0,l),
(949,109,l),
(649,109,l),
(649,301,l),
(939,301,l),
(939,408,l),
(649,408,l),
(649,592,l),
(949,592,l),
(949,701,l),
(513,701,l)
);
}
);
width = 1007;
},
{
anchors = (
{
name = bottom;
pos = (331,0);
},
{
name = center;
pos = (331,350);
},
{
name = ogonek;
pos = (595,10);
},
{
name = top;
pos = (331,700);
},
{
name = topleft;
pos = (20,700);
},
{
name = topright;
pos = (641,700);
}
);
layerId = "0DC1F6FB-20EC-4E8F-AE98-F98B5FD714DE";
shapes = (
{
closed = 1;
nodes = (
(535,-9,o),
(592,57,o),
(592,277,c),
(592,425,l),
(592,645,o),
(535,711,o),
(330,711,c),
(125,711,o),
(59,644,o),
(59,425,c),
(59,277,l),
(59,57,o),
(125,-9,o),
(330,-9,c)
);
},
{
closed = 1;
nodes = (
(149,27,o),
(95,101,o),
(95,265,c),
(95,437,l),
(95,602,o),
(148,675,o),
(330,675,c),
(512,675,o),
(566,602,o),
(566,437,c),
(566,265,l),
(566,101,o),
(511,27,o),
(330,27,c)
);
},
{
closed = 1;
nodes = (
(566,0,l),
(952,0,l),
(952,36,l),
(602,36,l),
(602,342,l),
(942,342,l),
(942,375,l),
(602,375,l),
(602,665,l),
(952,665,l),
(952,701,l),
(566,701,l)
);
}
);
width = 983;
}
);
unicode = 338;
},
{
color = 4;
glyphname = P;
layers = (
{
anchors = (
{
name = bottom;
pos = (316,0);
},
{
name = top;
pos = (316,630);
}
);
layerId = "B3961A9D-C6DC-4F74-9770-9C992C479D86";
shapes = (
{
closed = 1;
nodes = (
(330,254,ls),
(416,254,o),
(584,250,o),
(584,428,cs),
(584,527,ls),
(584,715,o),
(416,701,o),
(330,701,cs),
(86,701,l),
(86,0,l),
(222,0,l),
(222,254,l)
);
},
{
closed = 1;
nodes = (
(222,592,l),
(340,592,ls),
(409,592,o),
(445,574,o),
(446,505,c),
(446,450,l),
(445,381,o),
(409,363,o),
(340,363,cs),
(222,363,l)
);
}
);
width = 631;
},
{
anchors = (
{
name = bottom;
pos = (258,0);
},
{
name = top;
pos = (258,700);
}
);
layerId = "0DC1F6FB-20EC-4E8F-AE98-F98B5FD714DE";
shapes = (
{
closed = 1;
nodes = (
(242,293,ls),
(341,293,o),
(478,294,o),
(478,443,cs),
(478,561,ls),
(478,704,o),
(323,701,o),
(245,701,cs),
(80,701,l),
(80,0,l),
(116,0,l),
(116,293,l)
);
},
{
closed = 1;
nodes = (
(116,665,l),
(224,665,l),
(291,663,o),
(442,676,o),
(442,561,cs),
(442,445,ls),
(442,359,o),
(395,328,o),
(242,326,c),
(116,326,l)
);
}
);
width = 516;
}
);
unicode = 80;
},
{
color = 4;
glyphname = Q;
layers = (
{
anchors = (
{
name = bottom;
pos = (345,0);
},
{
name = top;
pos = (345,630);
}
);
layerId = "B3961A9D-C6DC-4F74-9770-9C992C479D86";
shapes = (
{
closed = 1;
nodes = (
(519,-9,o),
(636,57,o),
(636,277,c),
(636,425,l),
(636,645,o),
(519,711,o),
(344,711,c),
(169,711,o),
(53,644,o),
(53,425,c),
(53,277,l),
(53,57,o),
(169,-9,o),
(344,-9,c)
);
},
{
closed = 1;
nodes = (
(227,100,o),
(185,158,o),
(185,285,c),
(185,417,l),
(185,545,o),
(226,602,o),
(344,602,c),
(462,602,o),
(504,545,o),
(504,417,c),
(504,285,l),
(504,158,o),
(461,100,o),
(344,100,c)
);
},
{
closed = 1;
nodes = (
(285,-163,l),
(406,-163,l),
(406,73,l),
(285,73,l)
);
}
);
width = 689;
},
{
anchors = (
{
name = bottom;
pos = (322,0);
},
{
name = top;
pos = (322,700);
}
);
layerId = "0DC1F6FB-20EC-4E8F-AE98-F98B5FD714DE";
shapes = (
{
closed = 1;
nodes = (
(526,-9,o),
(593,57,o),
(593,277,c),
(593,425,l),
(593,645,o),
(526,711,o),
(321,711,c),
(116,711,o),
(50,644,o),
(50,425,c),
(50,277,l),
(50,57,o),
(116,-9,o),
(321,-9,c)
);
},
{
closed = 1;
nodes = (
(140,27,o),
(86,101,o),
(86,265,c),
(86,437,l),
(86,602,o),
(139,675,o),
(321,675,c),
(503,675,o),
(557,602,o),
(557,437,c),
(557,265,l),
(557,101,o),
(502,27,o),
(321,27,c)
);
},
{
closed = 1;
nodes = (
(303,-163,l),
(339,-163,l),
(339,13,l),
(303,13,l)
);
}
);
width = 643;
}
);
unicode = 81;
},
{
color = 4;
glyphname = R;
kernRight = R;
layers = (
{
anchors = (
{
name = bottom;
pos = (322,0);
},
{
name = top;
pos = (322,630);
}
);
layerId = "B3961A9D-C6DC-4F74-9770-9C992C479D86";
shapes = (
{
closed = 1;
nodes = (
(222,0,l),
(222,274,l),
(311,274,l),
(442,0,l),
(595,0,l),
(448,279,l),
(518,292,o),
(584,330,o),
(584,448,cs),
(584,527,ls),
(584,715,o),
(416,701,o),
(330,701,cs),
(86,701,l),
(86,0,l)
);
},
{
closed = 1;
nodes = (
(222,592,l),
(340,592,ls),
(409,592,o),
(446,574,o),
(446,505,cs),
(446,470,ls),
(446,401,o),
(409,383,o),
(340,383,cs),
(222,383,l)
);
}
);
width = 643;
},
{
anchors = (
{
name = bottom;
pos = (265,0);
},
{
name = top;
pos = (265,700);
}
);
guides = (
{
angle = 90;
pos = (478,0);
}
);
layerId = "0DC1F6FB-20EC-4E8F-AE98-F98B5FD714DE";
shapes = (
{
closed = 1;
nodes = (
(116,0,l),
(116,307,l),
(275,307,l),
(451,0,l),
(490,0,l),
(313,308,l),
(396,314,o),
(478,339,o),
(478,457,cs),
(478,561,ls),
(478,706,o),
(323,701,o),
(245,701,cs),
(80,701,l),
(80,0,l)
);
},
{
closed = 1;
nodes = (
(116,665,l),
(224,665,l),
(291,663,o),
(441,676,o),
(442,561,c),
(442,459,l),
(441,373,o),
(395,342,o),
(242,340,c),
(116,340,l)
);
}
);
width = 530;
}
);
unicode = 82;
},
{
color = 4;
glyphname = S;
kernLeft = S;
kernRight = S;
layers = (
{
anchors = (
{
name = bottom;
pos = (290,0);
},
{
name = top;
pos = (290,630);
}
);
guides = (
{
pos = (0,701);
},
{
angle = 90;
pos = (817,0);
},
{
angle = 90;
pos = (1322,0);
},
{
angle = 90;
pos = (529,0);
},
{
angle = 90;
pos = (56,0);
}
);
layerId = "B3961A9D-C6DC-4F74-9770-9C992C479D86";
shapes = (
{
closed = 1;
nodes = (
(77,329,o),
(56,407,o),
(56,524,cs),
(56,630,o),
(134,714,o),
(293,711,cs),
(372,710,o),
(436,695,o),
(507,665,c),
(507,532,l),
(445,568,o),
(376,592,o),
(312,592,cs),
(235,592,o),
(192,570,o),
(192,513,cs),
(192,446,o),
(240,429,o),
(348,398,c),
(488,356,o),
(528,303,o),
(528,183,cs),
(528,42,o),
(447,-8,o),
(281,-8,c),
(207,-7,o),
(129,8,o),
(56,33,c),
(56,153,l),
(132,129,o),
(204,113,o),
(278,110,cs),
(365,106,o),
(388,134,o),
(392,180,cs),
(397,236,o),
(354,261,o),
(301,274,cs)
);
}
);
width = 579;
},
{
anchors = (
{
name = bottom;
pos = (255,0);
},
{
name = top;
pos = (255,700);
}
);
layerId = "0DC1F6FB-20EC-4E8F-AE98-F98B5FD714DE";
shapes = (
{
closed = 1;
nodes = (
(123,375,o),
(38,418,o),
(38,534,cs),
(38,647,o),
(112,713,o),
(257,711,cs),
(330,710,o),
(389,693,o),
(455,657,c),
(455,617,l),
(397,653,o),
(325,675,o),
(257,675,cs),
(172,675,o),
(74,651,o),
(74,534,cs),
(74,433,o),
(170,400,o),
(270,366,c),
(399,324,o),
(474,282,o),
(474,165,cs),
(474,33,o),
(399,-8,o),
(246,-8,c),
(177,-7,o),
(105,5,o),
(38,30,c),
(38,68,l),
(108,44,o),
(176,30,o),
(243,28,cs),
(443,23,o),
(437,121,o),
(438,162,cs),
(441,277,o),
(313,316,o),
(264,331,cs)
);
}
);
width = 510;
}
);
unicode = 83;
},
{
color = 4;
glyphname = T;
kernLeft = T;
kernRight = T;
layers = (
{
anchors = (
{
name = bottom;
pos = (262,0);
},
{
name = center;
pos = (262,315);
},
{
name = top;
pos = (262,630);
}
);
layerId = "B3961A9D-C6DC-4F74-9770-9C992C479D86";
shapes = (
{
closed = 1;
nodes = (
(29,701,l),
(29,592,l),
(194,592,l),
(194,0,l),
(330,0,l),
(330,592,l),
(494,592,l),
(494,701,l)
);
}
);
width = 523;
},
{
anchors = (
{
name = bottom;
pos = (262,0);
},
{
name = center;
pos = (262,350);
},
{
name = top;
pos = (262,700);
}
);
layerId = "0DC1F6FB-20EC-4E8F-AE98-F98B5FD714DE";
shapes = (
{
closed = 1;
nodes = (
(13,701,l),
(13,668,l),
(244,668,l),
(244,-5,l),
(280,0,l),
(280,668,l),
(510,668,l),
(510,701,l)
);
}
);
width = 523;
}
);
unicode = 84;
},
{
color = 4;
glyphname = U;
kernLeft = U;
layers = (
{
anchors = (
{
name = bottom;
pos = (357,0);
},
{
name = ogonek;
pos = (642,10);
},
{
name = top;
pos = (357,630);
},
{
name = topright;
pos = (693,630);
}
);
guides = (
{
pos = (0,701);
}
);
layerId = "B3961A9D-C6DC-4F74-9770-9C992C479D86";
shapes = (
{
closed = 1;
nodes = (
(506,701,l),
(506,285,l),
(506,158,o),
(463,100,o),
(356,100,c),
(249,100,o),
(207,158,o),
(207,285,c),
(207,701,l),
(73,701,l),
(73,277,l),
(73,57,o),
(191,-9,o),
(356,-9,c),
(521,-9,o),
(640,57,o),
(640,277,c),
(640,701,l)
);
}
);
width = 713;
},
{
anchors = (
{
name = bottom;
pos = (312,0);
},
{
name = ogonek;
pos = (562,10);
},
{
name = top;
pos = (312,700);
},
{
name = topright;
pos = (604,700);
}
);
layerId = "0DC1F6FB-20EC-4E8F-AE98-F98B5FD714DE";
shapes = (
{
closed = 1;
nodes = (
(518,703,l),
(518,265,l),
(518,101,o),
(473,27,o),
(312,27,c),
(151,27,o),
(107,101,o),
(107,265,c),
(107,703,l),
(71,703,l),
(71,277,l),
(71,57,o),
(127,-9,o),
(312,-9,c),
(497,-9,o),
(554,57,o),
(554,277,c),
(554,703,l)
);
}
);
width = 624;
}
);
unicode = 85;
},
{
color = 4;
glyphname = V;
layers = (
{
anchors = (
{
name = bottom;
pos = (338,0);
},
{
name = top;
pos = (338,630);
}
);
layerId = "B3961A9D-C6DC-4F74-9770-9C992C479D86";
shapes = (
{
closed = 1;
nodes = (
(430,0,l),
(649,701,l),
(507,701,l),
(339,141,l),
(336,141,l),
(168,701,l),
(27,701,l),
(245,0,l)
);
}
);
width = 676;
},
{
anchors = (
{
name = bottom;
pos = (274,0);
},
{
name = top;
pos = (274,700);
}
);
layerId = "0DC1F6FB-20EC-4E8F-AE98-F98B5FD714DE";
shapes = (
{
closed = 1;
nodes = (
(293,0,l),
(529,701,l),
(491,701,l),
(275,49,l),
(271,49,l),
(56,701,l),
(18,701,l),
(253,0,l)
);
}
);
width = 547;
}
);
unicode = 86;
},
{
color = 4;
glyphname = W;
layers = (
{
anchors = (
{
name = bottom;
pos = (505,0);
},
{
name = top;
pos = (505,630);
}
);
layerId = "B3961A9D-C6DC-4F74-9770-9C992C479D86";
shapes = (
{
closed = 1;
nodes = (
(386,0,l),
(503,548,l),
(507,548,l),
(624,0,l),
(812,0,l),
(980,701,l),
(840,701,l),
(713,146,l),
(711,146,l),
(577,701,l),
(433,701,l),
(300,146,l),
(297,146,l),
(170,701,l),
(30,701,l),
(198,0,l)
);
}
);
width = 1010;
},
{
anchors = (
{
name = bottom;
pos = (396,0);
},
{
name = top;
pos = (396,700);
}
);
layerId = "0DC1F6FB-20EC-4E8F-AE98-F98B5FD714DE";
shapes = (
{
closed = 1;
nodes = (
(243,0,l),
(394,632,l),
(398,632,l),
(549,0,l),
(594,0,l),
(771,701,l),
(734,701,l),
(573,49,l),
(568,49,l),
(413,701,l),
(379,701,l),
(224,49,l),
(219,49,l),
(58,701,l),
(21,701,l),
(198,0,l)
);
}
);
width = 792;
}
);
unicode = 87;
},
{
color = 4;
glyphname = X;
layers = (
{
anchors = (
{
name = bottom;
pos = (335,0);
},
{
name = top;
pos = (335,630);
}
);
guides = (
{
pos = (0,350);
},
{
angle = 90;
pos = (643,0);
},
{
pos = (0,701);
},
{
angle = 90;
pos = (-445,0);
},
{
angle = 90;
pos = (-1012,0);
},
{
angle = 90;
pos = (25,0);
}
);
layerId = "B3961A9D-C6DC-4F74-9770-9C992C479D86";
shapes = (
{
closed = 1;
nodes = (
(177,0,l),
(332,285,l),
(336,285,l),
(490,0,l),
(643,0,l),
(439,355,l),
(627,701,l),
(479,701,l),
(336,419,l),
(332,419,l),
(190,701,l),
(41,701,l),
(229,355,l),
(25,0,l)
);
}
);
width = 669;
},
{
anchors = (
{
name = bottom;
pos = (262,0);
},
{
name = top;
pos = (262,700);
}
);
layerId = "0DC1F6FB-20EC-4E8F-AE98-F98B5FD714DE";
shapes = (
{
closed = 1;
nodes = (
(59,0,l),
(259,339,l),
(263,339,l),
(463,0,l),
(504,0,l),
(290,355,l),
(497,701,l),
(460,701,l),
(263,371,l),
(259,371,l),
(62,701,l),
(25,701,l),
(232,355,l),
(18,0,l)
);
}
);
width = 523;
}
);
unicode = 88;
},
{
color = 4;
glyphname = Y;
kernLeft = Y;
kernRight = Y;
layers = (
{
anchors = (
{
name = bottom;
pos = (315,0);
},
{
name = top;
pos = (315,630);
},
{
name = topleft;
pos = (20,630);
}
);
layerId = "B3961A9D-C6DC-4F74-9770-9C992C479D86";
shapes = (
{
closed = 1;
nodes = (
(387,0,l),
(387,290,l),
(608,701,l),
(462,701,l),
(317,415,l),
(313,415,l),
(170,701,l),
(22,701,l),
(244,292,l),
(244,0,l)
);
}
);
width = 630;
},
{
anchors = (
{
name = bottom;
pos = (239,0);
},
{
name = top;
pos = (239,700);
},
{
name = topleft;
pos = (20,700);
}
);
layerId = "0DC1F6FB-20EC-4E8F-AE98-F98B5FD714DE";
shapes = (
{
closed = 1;
nodes = (
(256,0,l),
(256,308,l),
(465,701,l),
(425,701,l),
(240,341,l),
(236,341,l),
(53,701,l),
(13,701,l),
(220,308,l),
(220,0,l)
);
}
);
width = 478;
}
);
unicode = 89;
},
{
color = 4;
glyphname = Z;
kernLeft = Z;
kernRight = Z;
layers = (
{
anchors = (
{
name = bottom;
pos = (296,0);
},
{
name = center;
pos = (296,315);
},
{
name = top;
pos = (296,630);
}
);
guides = (
{
angle = 90;
pos = (1352,0);
}
);
layerId = "B3961A9D-C6DC-4F74-9770-9C992C479D86";
shapes = (
{
closed = 1;
nodes = (
(61,701,l),
(61,592,l),
(377,592,l),
(377,588,l),
(41,109,l),
(41,0,l),
(549,0,l),
(549,109,l),
(203,109,l),
(203,113,l),
(539,592,l),
(539,701,l)
);
}
);
width = 591;
},
{
anchors = (
{
name = bottom;
pos = (244,0);
},
{
name = center;
pos = (244,350);
},
{
name = top;
pos = (244,700);
}
);
guides = (
{
angle = 90;
pos = (455,0);
},
{
angle = 90;
pos = (22,0);
}
);
layerId = "0DC1F6FB-20EC-4E8F-AE98-F98B5FD714DE";
shapes = (
{
closed = 1;
nodes = (
(34,701,l),
(34,665,l),
(413,665,l),
(413,662,l),
(22,36,l),
(22,0,l),
(467,0,l),
(467,36,l),
(64,36,l),
(64,39,l),
(455,665,l),
(455,701,l)
);
}
);
width = 488;
}
);
unicode = 90;
},
{
color = 4;
glyphname = a;
kernLeft = a;
kernRight = a;
layers = (
{
anchors = (
{
name = bottom;
pos = (286,0);
},
{
name = ogonek;
pos = (514,10);
},
{
name = top;
pos = (286,470);
}
);
guides = (
{
pos = (0,528);
},
{
pos = (0,-9);
}
);
layerId = "B3961A9D-C6DC-4F74-9770-9C992C479D86";
shapes = (
{
closed = 1;
nodes = (
(498,288,l),
(498,457,o),
(440,537,o),
(268,537,cs),
(207,537,o),
(144,526,o),
(81,499,c),
(81,388,l),
(140,412,o),
(194,426,o),
(255,426,cs),
(342,426,o),
(377,395,o),
(377,294,c),
(377,281,o),
(376,268,o),
(376,256,c),
(376,0,l),
(498,0,l)
);
},
{
closed = 1;
nodes = (
(289,-9,o),
(348,12,o),
(373,94,c),
(391,94,l),
(376,201,l),
(376,98,o),
(301,79,o),
(258,77,cs),
(215,75,o),
(177,78,o),
(173,139,cs),
(170,198,o),
(202,213,o),
(268,221,cs),
(393,236,l),
(393,326,l),
(236,309,ls),
(95,294,o),
(44,235,o),
(51,122,cs),
(57,22,o),
(121,-9,o),
(213,-9,c)
);
}
);
width = 571;
},
{
anchors = (
{
name = bottom;
pos = (238,0);
},
{
name = ogonek;
pos = (428,10);
},
{
name = top;
pos = (238,500);
}
);
guides = (
{
angle = 90;
pos = (42,0);
},
{
pos = (0,524);
}
);
layerId = "0DC1F6FB-20EC-4E8F-AE98-F98B5FD714DE";
shapes = (
{
closed = 1;
nodes = (
(403,337,l),
(403,428,o),
(386,540,o),
(229,537,cs),
(168,536,o),
(128,529,o),
(72,509,c),
(72,473,l),
(121,493,o),
(173,502,o),
(229,502,cs),
(297,502,o),
(367,491,o),
(367,346,c),
(367,346,o),
(367,268,o),
(367,256,c),
(367,0,l),
(403,0,l)
);
},
{
closed = 1;
nodes = (
(292,-7,o),
(339,12,o),
(364,94,c),
(382,94,l),
(367,217,l),
(367,74,o),
(310,27,o),
(218,25,c),
(125,22,o),
(81,47,o),
(76,131,cs),
(71,212,o),
(110,263,o),
(227,274,cs),
(384,289,l),
(384,324,l),
(227,309,ls),
(80,295,o),
(36,235,o),
(42,122,cs),
(47,34,o),
(93,-12,o),
(216,-9,c)
);
}
);
width = 475;
}
);
unicode = 97;
},
{
color = 4;
glyphname = ae;
layers = (
{
anchors = (
{
name = bottom;
pos = (600,0);
},
{
name = ogonek;
pos = (822,10);
},
{
name = top;
pos = (600,470);
}
);
layerId = "B3961A9D-C6DC-4F74-9770-9C992C479D86";
shapes = (
{
closed = 1;
nodes = (
(490,288,l),
(490,457,o),
(397,537,o),
(252,537,cs),
(191,537,o),
(146,526,o),
(83,499,c),
(83,388,l),
(142,412,o),
(196,426,o),
(257,426,cs),
(344,426,o),
(379,395,o),
(379,294,c),
(379,281,o),
(378,268,o),
(378,256,c),
(378,153,l),
(490,153,l)
);
},
{
closed = 1;
nodes = (
(291,-9,o),
(389,-5,o),
(424,94,c),
(451,94,l),
(378,201,l),
(378,98,o),
(303,79,o),
(260,77,cs),
(217,75,o),
(179,78,o),
(175,139,cs),
(172,198,o),
(204,213,o),
(270,221,cs),
(395,236,l),
(395,326,l),
(238,309,ls),
(97,294,o),
(46,235,o),
(53,122,cs),
(59,22,o),
(123,-9,o),
(215,-9,c)
);
},
{
closed = 1;
nodes = (
(691,-8,o),
(743,-5,o),
(802,23,c),
(802,118,l),
(734,96,o),
(681,92,o),
(646,92,cs),
(536,92,o),
(502,132,o),
(498,231,c),
(812,231,l),
(814,277,ls),
(822,464,o),
(748,538,o),
(612,538,c),
(484,535,o),
(390,464,o),
(390,277,cs),
(390,253,ls),
(390,53,o),
(508,-8,o),
(638,-8,cs)
);
},
{
closed = 1;
nodes = (
(498,313,l),
(503,395,o),
(523,436,o),
(602,438,c),
(682,436,o),
(699,397,o),
(701,313,c)
);
}
);
width = 877;
},
{
anchors = (
{
name = bottom;
pos = (555,0);
},
{
name = ogonek;
pos = (751,10);
},
{
name = top;
pos = (555,500);
}
);
layerId = "0DC1F6FB-20EC-4E8F-AE98-F98B5FD714DE";
shapes = (
{
closed = 1;
nodes = (
(403,337,l),
(403,428,o),
(386,540,o),
(229,537,cs),
(168,536,o),
(128,529,o),
(72,509,c),
(72,473,l),
(121,493,o),
(173,502,o),
(229,502,cs),
(297,502,o),
(367,491,o),
(367,346,c),
(367,346,o),
(367,268,o),
(367,256,c),
(367,121,l),
(403,121,l)
);
},
{
closed = 1;
nodes = (
(292,-7,o),
(359,12,o),
(384,94,c),
(402,94,l),
(367,217,l),
(367,74,o),
(310,27,o),
(218,25,c),
(125,22,o),
(81,47,o),
(76,131,cs),
(71,212,o),
(110,263,o),
(227,274,cs),
(384,289,l),
(384,324,l),
(227,309,ls),
(80,295,o),
(36,235,o),
(42,122,cs),
(47,34,o),
(93,-12,o),
(216,-9,c)
);
},
{
closed = 1;
nodes = (
(646,-9,o),
(702,-1,o),
(738,22,c),
(738,60,l),
(709,41,o),
(655,27,o),
(588,27,cs),
(457,27,o),
(403,69,o),
(403,265,c),
(750,265,l),
(751,277,ls),
(767,473,o),
(696,537,o),
(562,538,cs),
(428,539,o),
(367,474,o),
(367,277,cs),
(367,252,ls),
(367,51,o),
(417,-9,o),
(588,-9,cs)
);
},
{
closed = 1;
nodes = (
(403,298,l),
(406,436,o),
(437,504,o),
(562,502,cs),
(691,500,o),
(725,436,o),
(716,298,c)
);
}
);
width = 800;
}
);
unicode = 230;
},
{
color = 4;
glyphname = b;
kernRight = b;
layers = (
{
anchors = (
{
name = bottom;
pos = (325,0);
},
{
name = center;
pos = (325,235);
},
{
name = top;
pos = (325,470);
}
);
layerId = "B3961A9D-C6DC-4F74-9770-9C992C479D86";
shapes = (
{
closed = 1;
nodes = (
(535,-9,o),
(602,61,o),
(602,252,cs),
(602,277,ls),
(602,478,o),
(535,538,o),
(375,538,cs),
(228,538,o),
(195,438,o),
(195,257,cs),
(195,242,ls),
(195,60,o),
(228,-9,o),
(375,-9,cs)
);
},
{
closed = 1;
nodes = (
(216,88,l),
(216,102,l),
(204,102,l),
(204,88,l)
);
},
{
closed = 1;
nodes = (
(208,0,l),
(208,775,l),
(86,775,l),
(86,0,l)
);
},
{
closed = 1;
nodes = (
(216,406,l),
(216,420,l),
(204,420,l),
(204,406,l)
);
},
{
closed = 1;
nodes = (
(236,91,o),
(208,144,o),
(208,259,cs),
(208,270,ls),
(208,386,o),
(235,438,o),
(343,438,cs),
(451,438,o),
(479,386,o),
(479,270,cs),
(479,259,ls),
(479,144,o),
(450,91,o),
(343,91,cs)
);
}
);
width = 649;
},
{
anchors = (
{
name = bottom;
pos = (282,0);
},
{
name = center;
pos = (282,250);
},
{
name = top;
pos = (282,500);
}
);
layerId = "0DC1F6FB-20EC-4E8F-AE98-F98B5FD714DE";
shapes = (
{
closed = 1;
nodes = (
(444,-9,o),
(523,51,o),
(523,252,cs),
(523,277,ls),
(523,478,o),
(444,538,o),
(301,538,cs),
(153,538,o),
(104,477,o),
(104,277,cs),
(104,252,ls),
(104,51,o),
(156,-9,o),
(301,-9,cs)
);
},
{
closed = 1;
nodes = (
(126,105,l),
(126,123,l),
(114,123,l),
(114,105,l)
);
},
{
closed = 1;
nodes = (
(116,0,l),
(116,775,l),
(80,775,l),
(80,0,l)
);
},
{
closed = 1;
nodes = (
(126,409,l),
(126,426,l),
(114,426,l),
(114,409,l)
);
},
{
closed = 1;
nodes = (
(155,27,o),
(116,100,o),
(116,257,cs),
(116,272,ls),
(116,430,o),
(153,502,o),
(301,502,cs),
(448,502,o),
(487,430,o),
(487,272,cs),
(487,257,ls),
(487,100,o),
(446,27,o),
(301,27,cs)
);
}
);
width = 563;
}
);
unicode = 98;
},
{
color = 4;
glyphname = c;
kernLeft = c;
kernRight = c;
layers = (
{
anchors = (
{
name = bottom;
pos = (253,0);
},
{
name = top;
pos = (253,470);
}
);
guides = (
{
angle = 90;
pos = (942,0);
},
{
angle = 90;
pos = (433,0);
}
);
layerId = "B3961A9D-C6DC-4F74-9770-9C992C479D86";
shapes = (
{
closed = 1;
nodes = (
(451,506,l),
(421,525,o),
(354,538,o),
(301,538,cs),
(149,538,o),
(58,477,o),
(58,277,cs),
(58,253,ls),
(58,53,o),
(149,-8,o),
(301,-8,cs),
(354,-8,o),
(421,5,o),
(451,24,c),
(451,119,l),
(418,102,o),
(366,92,o),
(316,92,cs),
(208,92,o),
(181,144,o),
(181,260,cs),
(181,270,ls),
(181,386,o),
(208,438,o),
(316,438,cs),
(366,438,o),
(418,428,o),
(451,411,c)
);
}
);
width = 506;
},
{
anchors = (
{
name = bottom;
pos = (226,0);
},
{
name = top;
pos = (226,500);
}
);
layerId = "0DC1F6FB-20EC-4E8F-AE98-F98B5FD714DE";
shapes = (
{
closed = 1;
nodes = (
(417,505,l),
(384,526,o),
(334,538,o),
(276,538,c),
(128,538,o),
(55,477,o),
(55,277,c),
(55,252,l),
(55,51,o),
(131,-9,o),
(276,-9,c),
(334,-9,o),
(381,5,o),
(417,28,c),
(417,66,l),
(388,50,o),
(343,27,o),
(276,27,c),
(130,27,o),
(91,100,o),
(91,257,c),
(91,272,l),
(91,430,o),
(128,502,o),
(276,502,c),
(344,502,o),
(388,484,o),
(417,466,c)
);
}
);
width = 451;
}
);
unicode = 99;
},
{
color = 4;
glyphname = d;
kernLeft = d;
layers = (
{
anchors = (
{
name = bottom;
pos = (325,0);
},
{
name = center;
pos = (325,235);
},
{
name = top;
pos = (325,1130);
},
{
name = topright;
pos = (629,1130);
}
);
layerId = "B3961A9D-C6DC-4F74-9770-9C992C479D86";
shapes = (
{
closed = 1;
nodes = (
(421,-9,o),
(454,60,o),
(454,242,cs),
(454,257,ls),
(454,438,o),
(421,538,o),
(274,538,cs),
(114,538,o),
(47,478,o),
(47,277,cs),
(47,252,ls),
(47,61,o),
(114,-9,o),
(274,-9,cs)
);
},
{
closed = 1;
nodes = (
(199,91,o),
(170,144,o),
(170,259,cs),
(170,270,ls),
(170,386,o),
(198,438,o),
(306,438,cs),
(414,438,o),
(441,386,o),
(441,270,cs),
(441,259,ls),
(441,144,o),
(413,91,o),
(306,91,cs)
);
},
{
closed = 1;
nodes = (
(445,88,l),
(445,102,l),
(433,102,l),
(433,88,l)
);
},
{
closed = 1;
nodes = (
(563,0,l),
(563,775,l),
(441,775,l),
(441,0,l)
);
},
{
closed = 1;
nodes = (
(445,406,l),
(445,420,l),
(433,420,l),
(433,406,l)
);
}
);
width = 649;
},
{
anchors = (
{
name = bottom;
pos = (282,0);
},
{
name = center;
pos = (282,250);
},
{
name = top;
pos = (282,800);
},
{
name = topright;
pos = (543,800);
}
);
layerId = "0DC1F6FB-20EC-4E8F-AE98-F98B5FD714DE";
shapes = (
{
closed = 1;
nodes = (
(407,-9,o),
(459,51,o),
(459,252,cs),
(459,277,ls),
(459,477,o),
(410,538,o),
(262,538,cs),
(119,538,o),
(40,478,o),
(40,277,cs),
(40,252,ls),
(40,51,o),
(119,-9,o),
(262,-9,cs)
);
},
{
closed = 1;
nodes = (
(117,27,o),
(76,100,o),
(76,257,cs),
(76,272,ls),
(76,430,o),
(115,502,o),
(262,502,cs),
(410,502,o),
(447,430,o),
(447,272,cs),
(447,257,ls),
(447,100,o),
(408,27,o),
(262,27,cs)
);
},
{
closed = 1;
nodes = (
(449,105,l),
(449,123,l),
(437,123,l),
(437,105,l)
);
},
{
closed = 1;
nodes = (
(483,0,l),
(483,775,l),
(447,775,l),
(447,0,l)
);
},
{
closed = 1;
nodes = (
(449,409,l),
(449,426,l),
(437,426,l),
(437,409,l)
);
}
);
width = 563;
}
);
unicode = 100;
},
{
color = 4;
glyphname = e;
kernLeft = e;
kernRight = e;
layers = (
{
anchors = (
{
name = bottom;
pos = (278,0);
},
{
name = ogonek;
pos = (500,10);
},
{
name = top;
pos = (278,470);
}
);
guides = (
{
pos = (0,356);
}
);
layerId = "B3961A9D-C6DC-4F74-9770-9C992C479D86";
shapes = (
{
closed = 1;
nodes = (
(359,-8,o),
(421,-5,o),
(480,23,c),
(480,118,l),
(412,96,o),
(359,92,o),
(324,92,cs),
(214,92,o),
(180,132,o),
(176,231,c),
(490,231,l),
(492,277,ls),
(500,464,o),
(416,538,o),
(280,538,c),
(152,535,o),
(58,464,o),
(58,277,cs),
(58,253,ls),
(58,53,o),
(154,-8,o),
(306,-8,cs)
);
},
{
closed = 1;
nodes = (
(176,313,l),
(181,395,o),
(201,436,o),
(280,438,c),
(360,436,o),
(377,397,o),
(379,313,c)
);
}
);
width = 555;
},
{
anchors = (
{
name = bottom;
pos = (245,0);
},
{
name = ogonek;
pos = (441,10);
},
{
name = top;
pos = (245,500);
}
);
layerId = "0DC1F6FB-20EC-4E8F-AE98-F98B5FD714DE";
shapes = (
{
closed = 1;
nodes = (
(336,-9,o),
(392,-1,o),
(428,22,c),
(428,60,l),
(399,41,o),
(345,27,o),
(278,27,cs),
(147,27,o),
(93,69,o),
(93,265,c),
(440,265,l),
(441,277,ls),
(457,473,o),
(386,537,o),
(252,538,cs),
(118,539,o),
(57,474,o),
(57,277,cs),
(57,252,ls),
(57,51,o),
(127,-9,o),
(278,-9,cs)
);
},
{
closed = 1;
nodes = (
(93,298,l),
(96,436,o),
(127,504,o),
(252,502,cs),
(381,500,o),
(415,436,o),
(406,298,c)
);
}
);
width = 490;
}
);
unicode = 101;
},
{
color = 4;
glyphname = f;
layers = (
{
anchors = (
{
name = bottom;
pos = (190,0);
},
{
name = top;
pos = (190,1130);
}
);
layerId = "B3961A9D-C6DC-4F74-9770-9C992C479D86";
shapes = (
{
closed = 1;
nodes = (
(96,0,l),
(218,0,l),
(218,528,l),
(96,528,l)
);
},
{
closed = 1;
nodes = (
(282,752,l),
(145,755,o),
(96,713,o),
(96,545,c),
(96,412,l),
(218,412,l),
(218,538,l),
(218,629,o),
(223,636,o),
(314,636,c),
(336,636,l),
(336,751,l)
);
},
{
closed = 1;
nodes = (
(0,517,l),
(0,415,l),
(336,415,l),
(336,517,l)
);
}
);
width = 379;
},
{
anchors = (
{
name = bottom;
pos = (156,0);
},
{
name = top;
pos = (156,800);
}
);
layerId = "0DC1F6FB-20EC-4E8F-AE98-F98B5FD714DE";
shapes = (
{
closed = 1;
nodes = (
(104,0,l),
(140,0,l),
(140,528,l),
(104,528,l)
);
},
{
closed = 1;
nodes = (
(260,751,l),
(136,751,o),
(104,716,o),
(104,585,c),
(104,412,l),
(140,412,l),
(140,578,ls),
(140,653,o),
(133,720,o),
(251,716,c),
(288,716,l),
(288,751,l)
);
},
{
closed = 1;
nodes = (
(8,530,l),
(8,498,l),
(288,498,l),
(288,530,l)
);
}
);
width = 311;
}
);
unicode = 102;
},
{
color = 4;
glyphname = g;
kernLeft = g;
kernRight = g;
layers = (
{
anchors = (
{
name = bottom;
pos = (337,-532);
},
{
name = top;
pos = (337,470);
}
);
guides = (
{
pos = (0,538);
},
{
angle = 90;
pos = (1659,0);
},
{
angle = 90;
pos = (1031,0);
},
{
angle = 90;
pos = (585,0);
},
{
angle = 90;
pos = (61,0);
},
{
angle = 90;
pos = (1732,0);
},
{
angle = 90;
pos = (640,0);
}
);
layerId = "B3961A9D-C6DC-4F74-9770-9C992C479D86";
shapes = (
{
closed = 1;
nodes = (
(580,317,l),
(580,387,o),
(551,431,o),
(504,448,c),
(504,452,l),
(627,452,l),
(627,549,l),
(323,539,l),
(169,539,o),
(68,497,o),
(67,324,c),
(67,322,l),
(68,194,o),
(118,141,o),
(201,120,c),
(201,119,l),
(153,115,o),
(112,97,o),
(112,44,c),
(112,3,o),
(135,-13,o),
(178,-21,c),
(178,-25,l),
(120,-30,o),
(42,-36,o),
(42,-152,c),
(47,-286,o),
(201,-305,o),
(314,-305,c),
(487,-303,o),
(615,-279,o),
(615,-122,c),
(615,5,o),
(519,24,o),
(423,28,c),
(359,33,o),
(230,32,o),
(233,83,c),
(233,97,o),
(241,106,o),
(253,112,c),
(274,110,o),
(298,109,o),
(323,109,c),
(477,109,o),
(585,141,o),
(580,316,c)
);
},
{
closed = 1;
nodes = (
(193,390,o),
(214,452,o),
(323,452,c),
(441,452,o),
(454,390,o),
(455,324,c),
(454,258,o),
(441,196,o),
(323,196,c),
(214,196,o),
(193,258,o),
(192,324,c)
);
},
{
closed = 1;
nodes = (
(264,-196,o),
(164,-196,o),
(164,-124,c),
(164,-72,o),
(218,-56,o),
(233,-48,c),
(400,-64,l),
(442,-69,o),
(491,-74,o),
(491,-124,c),
(491,-199,o),
(374,-196,o),
(300,-196,c)
);
}
);
width = 695;
},
{
anchors = (
{
name = bottom;
pos = (275,-200);
},
{
name = top;
pos = (275,500);
}
);
guides = (
{
angle = 90;
pos = (490,0);
},
{
angle = 90;
pos = (57,0);
},
{
angle = 90;
pos = (534,0);
}
);
layerId = "0DC1F6FB-20EC-4E8F-AE98-F98B5FD714DE";
shapes = (
{
closed = 1;
nodes = (
(491,306,l),
(491,384,o),
(477,472,o),
(409,500,c),
(409,504,l),
(537,504,l),
(537,542,l),
(272,537,l),
(150,537,o),
(57,494,o),
(56,314,c),
(56,313,l),
(56,201,o),
(93,143,o),
(146,116,c),
(146,113,l),
(98,107,o),
(92,80,o),
(92,63,c),
(92,31,o),
(116,10,o),
(144,7,c),
(144,3,l),
(82,-1,o),
(37,-40,o),
(37,-115,c),
(35,-227,o),
(150,-249,o),
(268,-249,c),
(446,-247,o),
(529,-219,o),
(529,-116,c),
(529,-8,o),
(483,9,o),
(288,14,c),
(219,17,o),
(128,20,o),
(128,67,c),
(128,90,o),
(150,100,o),
(173,104,c),
(204,95,o),
(238,91,o),
(272,91,c),
(384,91,o),
(496,124,o),
(491,305,c)
);
},
{
closed = 1;
nodes = (
(94,408,o),
(112,499,o),
(272,499,c),
(435,499,o),
(453,408,o),
(454,312,c),
(453,217,o),
(435,126,o),
(272,126,c),
(112,126,o),
(94,217,o),
(93,312,c)
);
},
{
closed = 1;
nodes = (
(217,-213,o),
(74,-219,o),
(74,-114,c),
(74,-33,o),
(153,-22,o),
(174,-13,c),
(402,-27,l),
(460,-34,o),
(492,-45,o),
(492,-114,c),
(492,-209,o),
(366,-213,o),
(266,-213,c)
);
}
);
width = 553;
}
);
unicode = 103;
},
{
color = 4;
glyphname = h;
kernLeft = h;
kernRight = h;
layers = (
{
anchors = (
{
name = bottom;
pos = (301,0);
},
{
name = center;
pos = (301,565);
},
{
name = top;
pos = (301,1130);
}
);
layerId = "B3961A9D-C6DC-4F74-9770-9C992C479D86";
shapes = (
{
closed = 1;
nodes = (
(86,0,l),
(208,0,l),
(208,368,l),
(208,775,l),
(86,775,l)
);
},
{
closed = 1;
nodes = (
(422,0,l),
(544,0,l),
(544,324,l),
(422,352,l)
);
},
{
closed = 1;
nodes = (
(208,278,l),
(208,398,o),
(242,427,o),
(319,427,cs),
(396,427,o),
(422,387,o),
(422,278,c),
(544,324,l),
(544,470,o),
(482,526,o),
(367,526,cs),
(271,526,o),
(208,490,o),
(208,368,c)
);
},
{
closed = 1;
nodes = (
(181,384,l),
(210,363,l),
(219,417,l),
(181,417,l)
);
}
);
width = 601;
},
{
anchors = (
{
name = bottom;
pos = (257,0);
},
{
name = center;
pos = (257,400);
},
{
name = top;
pos = (257,800);
}
);
guides = (
{
angle = 90;
pos = (272,0);
}
);
layerId = "0DC1F6FB-20EC-4E8F-AE98-F98B5FD714DE";
shapes = (
{
closed = 1;
nodes = (
(80,0,l),
(116,0,l),
(116,368,l),
(116,775,l),
(80,775,l)
);
},
{
closed = 1;
nodes = (
(426,0,l),
(462,0,l),
(462,338,l),
(426,289,l)
);
},
{
closed = 1;
nodes = (
(116,278,l),
(116,398,o),
(138,502,o),
(276,502,cs),
(417,502,o),
(424,411,o),
(426,289,c),
(462,333,l),
(458,491,o),
(391,538,o),
(276,538,cs),
(180,538,o),
(116,490,o),
(116,368,c)
);
},
{
closed = 1;
nodes = (
(89,384,l),
(118,363,l),
(127,417,l),
(89,417,l)
);
}
);
width = 513;
}
);
unicode = 104;
},
{
color = 4;
glyphname = i;
kernLeft = i;
kernRight = i;
layers = (
{
anchors = (
{
name = bottom;
pos = (140,0);
}
);
layerId = "B3961A9D-C6DC-4F74-9770-9C992C479D86";
shapes = (
{
closed = 1;
nodes = (
(201,0,l),
(201,528,l),
(79,528,l),
(79,0,l)
);
},
{
closed = 1;
nodes = (
(175,630,o),
(202,637,o),
(202,692,cs),
(202,747,o),
(175,754,o),
(140,754,cs),
(105,754,o),
(78,747,o),
(78,692,cs),
(78,637,o),
(105,630,o),
(140,630,cs)
);
}
);
width = 280;
},
{
anchors = (
{
name = bottom;
pos = (93,0);
}
);
layerId = "0DC1F6FB-20EC-4E8F-AE98-F98B5FD714DE";
shapes = (
{
closed = 1;
nodes = (
(111,0,l),
(111,528,l),
(75,528,l),
(75,0,l)
);
},
{
closed = 1;
nodes = (
(106,656,o),
(116,659,o),
(116,679,cs),
(116,699,o),
(106,702,o),
(93,702,cs),
(80,702,o),
(70,699,o),
(70,679,cs),
(70,659,o),
(80,656,o),
(93,656,cs)
);
}
);
width = 186;
}
);
unicode = 105;
},
{
color = 4;
glyphname = idotless;
layers = (
{
anchors = (
{
name = bottom;
pos = (147,0);
},
{
name = ogonek;
pos = (265,10);
},
{
name = top;
pos = (147,470);
}
);
layerId = "B3961A9D-C6DC-4F74-9770-9C992C479D86";
shapes = (
{
closed = 1;
nodes = (
(208,0,l),
(208,528,l),
(86,528,l),
(86,0,l)
);
}
);
width = 294;
},
{
anchors = (
{
name = bottom;
pos = (98,0);
},
{
name = ogonek;
pos = (176,10);
},
{
name = top;
pos = (98,500);
}
);
layerId = "0DC1F6FB-20EC-4E8F-AE98-F98B5FD714DE";
shapes = (
{
closed = 1;
nodes = (
(116,0,l),
(116,528,l),
(80,528,l),
(80,0,l)
);
}
);
width = 196;
}
);
unicode = 305;
},
{
color = 4;
glyphname = j;
kernLeft = j;
layers = (
{
layerId = "B3961A9D-C6DC-4F74-9770-9C992C479D86";
shapes = (
{
closed = 1;
nodes = (
(15,-204,ls),
(152,-204,o),
(201,-165,o),
(201,3,cs),
(201,170,l),
(79,170,l),
(79,10,ls),
(79,-81,o),
(74,-88,o),
(-17,-88,cs),
(-39,-88,l),
(-39,-204,l)
);
},
{
closed = 1;
nodes = (
(201,154,l),
(201,528,l),
(79,528,l),
(79,154,l)
);
},
{
closed = 1;
nodes = (
(175,630,o),
(202,637,o),
(202,692,cs),
(202,747,o),
(175,754,o),
(140,754,cs),
(105,754,o),
(78,747,o),
(78,692,cs),
(78,637,o),
(105,630,o),
(140,630,cs)
);
}
);
width = 280;
},
{
layerId = "0DC1F6FB-20EC-4E8F-AE98-F98B5FD714DE";
shapes = (
{
closed = 1;
nodes = (
(25,-84,ls),
(67,-84,o),
(111,-76,o),
(111,-14,cs),
(111,170,l),
(75,170,l),
(75,16,ls),
(75,-37,o),
(70,-46,o),
(25,-48,c),
(-2,-48,l),
(-2,-84,l)
);
},
{
closed = 1;
nodes = (
(111,165,l),
(111,528,l),
(75,528,l),
(75,165,l)
);
},
{
closed = 1;
nodes = (
(106,656,o),
(116,659,o),
(116,679,cs),
(116,699,o),
(106,702,o),
(93,702,cs),
(80,702,o),
(70,699,o),
(70,679,cs),
(70,659,o),
(80,656,o),
(93,656,cs)
);
}
);
width = 186;
}
);
unicode = 106;
},
{
color = 4;
glyphname = jdotless;
layers = (
{
layerId = "B3961A9D-C6DC-4F74-9770-9C992C479D86";
shapes = (
{
closed = 1;
nodes = (
(15,-204,ls),
(152,-204,o),
(201,-165,o),
(201,3,cs),
(201,170,l),
(79,170,l),
(79,10,ls),
(79,-81,o),
(74,-88,o),
(-17,-88,cs),
(-39,-88,l),
(-39,-204,l)
);
},
{
closed = 1;
nodes = (
(201,154,l),
(201,528,l),
(79,528,l),
(79,154,l)
);
}
);
width = 279;
},
{
layerId = "0DC1F6FB-20EC-4E8F-AE98-F98B5FD714DE";
shapes = (
{
closed = 1;
nodes = (
(25,-84,ls),
(67,-84,o),
(111,-76,o),
(111,-14,cs),
(111,170,l),
(75,170,l),
(75,16,ls),
(75,-37,o),
(70,-46,o),
(25,-48,c),
(-2,-48,l),
(-2,-84,l)
);
},
{
closed = 1;
nodes = (
(111,165,l),
(111,528,l),
(75,528,l),
(75,165,l)
);
}
);
width = 181;
}
);
unicode = 567;
},
{
color = 4;
glyphname = jacute;
layers = (
{
layerId = "B3961A9D-C6DC-4F74-9770-9C992C479D86";
shapes = (
{
closed = 1;
nodes = (
(15,-204,ls),
(152,-204,o),
(201,-165,o),
(201,3,cs),
(201,528,l),
(79,528,l),
(79,10,ls),
(79,-81,o),
(74,-88,o),
(-17,-88,cs),
(-39,-88,l),
(-39,-204,l)
);
},
{
alignment = -1;
pos = (12,62);
ref = acutecomb;
scale = (0.833,0.696);
}
);
width = 383;
},
{
layerId = "0DC1F6FB-20EC-4E8F-AE98-F98B5FD714DE";
shapes = (
{
closed = 1;
nodes = (
(25,-84,ls),
(67,-84,o),
(111,-76,o),
(111,-14,cs),
(111,528,l),
(75,528,l),
(75,16,ls),
(75,-37,o),
(70,-46,o),
(25,-48,c),
(-2,-48,l),
(-2,-84,l)
);
},
{
alignment = -1;
pos = (30,16);
ref = acutecomb;
scale = (0.911,0.911);
}
);
width = 181;
}
);
},
{
color = 4;
glyphname = k;
kernRight = k;
layers = (
{
anchors = (
{
name = bottom;
pos = (282,0);
},
{
name = top;
pos = (282,1130);
}
);
guides = (
{
pos = (0,528);
},
{
angle = 90;
pos = (534,0);
}
);
layerId = "B3961A9D-C6DC-4F74-9770-9C992C479D86";
shapes = (
{
closed = 1;
nodes = (
(86,0,l),
(208,0,l),
(208,233,l),
(255,233,l),
(400,0,l),
(537,0,l),
(353,283,l),
(528,528,l),
(388,528,l),
(255,333,l),
(208,333,l),
(208,775,l),
(86,775,l)
);
}
);
width = 564;
},
{
anchors = (
{
name = bottom;
pos = (216,0);
},
{
name = top;
pos = (216,800);
}
);
layerId = "0DC1F6FB-20EC-4E8F-AE98-F98B5FD714DE";
shapes = (
{
closed = 1;
nodes = (
(80,0,l),
(116,0,l),
(116,279,l),
(183,279,l),
(370,0,l),
(415,0,l),
(213,296,l),
(408,528,l),
(360,528,l),
(183,315,l),
(116,315,l),
(116,775,l),
(80,775,l)
);
}
);
width = 432;
}
);
unicode = 107;
},
{
color = 4;
glyphname = l;
kernLeft = l;
layers = (
{
anchors = (
{
name = bottom;
pos = (147,0);
},
{
name = center;
pos = (147,565);
},
{
name = top;
pos = (147,1130);
},
{
name = topright;
pos = (274,1130);
}
);
layerId = "B3961A9D-C6DC-4F74-9770-9C992C479D86";
shapes = (
{
closed = 1;
nodes = (
(86,0,l),
(208,0,l),
(208,775,l),
(86,775,l)
);
}
);
width = 294;
},
{
anchors = (
{
name = bottom;
pos = (98,0);
},
{
name = center;
pos = (98,400);
},
{
name = top;
pos = (98,800);
},
{
name = topright;
pos = (176,800);
}
);
layerId = "0DC1F6FB-20EC-4E8F-AE98-F98B5FD714DE";
shapes = (
{
closed = 1;
nodes = (
(80,0,l),
(116,0,l),
(116,775,l),
(80,775,l)
);
}
);
width = 196;
}
);
unicode = 108;
},
{
color = 4;
glyphname = m;
kernLeft = m;
kernRight = m;
layers = (
{
anchors = (
{
name = bottom;
pos = (458,0);
},
{
name = top;
pos = (458,470);
}
);
layerId = "B3961A9D-C6DC-4F74-9770-9C992C479D86";
shapes = (
{
closed = 1;
nodes = (
(523,278,ls),
(523,398,o),
(545,427,o),
(622,427,cs),
(699,427,o),
(717,387,o),
(717,278,cs),
(717,0,l),
(839,0,l),
(839,324,ls),
(839,460,o),
(792,526,o),
(677,526,cs),
(595,526,o),
(533,500,o),
(516,417,c),
(513,417,l),
(493,490,o),
(446,526,o),
(361,526,cs),
(279,526,o),
(225,500,o),
(211,417,c),
(207,417,l),
(207,515,l),
(85,515,l),
(85,0,l),
(207,0,l),
(207,278,ls),
(207,398,o),
(229,427,o),
(306,427,cs),
(383,427,o),
(401,387,o),
(401,278,cs),
(401,0,l),
(523,0,l)
);
}
);
width = 916;
},
{
anchors = (
{
name = bottom;
pos = (410,0);
},
{
name = top;
pos = (410,500);
}
);
guides = (
{
pos = (0,538);
},
{
pos = (0,528);
}
);
layerId = "0DC1F6FB-20EC-4E8F-AE98-F98B5FD714DE";
shapes = (
{
closed = 1;
nodes = (
(432,257,ls),
(432,450,o),
(464,502,o),
(575,502,cs),
(710,502,o),
(712,418,o),
(712,267,cs),
(712,0,l),
(748,0,l),
(748,336,ls),
(748,471,o),
(701,538,o),
(586,538,cs),
(504,538,o),
(435,512,o),
(421,429,c),
(417,429,l),
(401,502,o),
(355,538,o),
(270,538,cs),
(188,538,o),
(134,520,o),
(120,429,c),
(116,429,l),
(116,528,l),
(80,528,l),
(80,0,l),
(116,0,l),
(116,267,ls),
(116,436,o),
(148,502,o),
(259,502,cs),
(394,502,o),
(396,408,o),
(396,267,cs),
(396,0,l),
(432,0,l)
);
}
);
width = 820;
}
);
unicode = 109;
},
{
color = 4;
glyphname = n;
kernLeft = m;
kernRight = m;
layers = (
{
anchors = (
{
name = bottom;
pos = (310,0);
},
{
name = top;
pos = (310,470);
}
);
guides = (
{
pos = (0,515);
}
);
layerId = "B3961A9D-C6DC-4F74-9770-9C992C479D86";
shapes = (
{
closed = 1;
nodes = (
(85,0,l),
(207,0,l),
(207,368,l),
(207,515,l),
(85,515,l)
);
},
{
closed = 1;
nodes = (
(421,0,l),
(543,0,l),
(543,324,l),
(421,352,l)
);
},
{
closed = 1;
nodes = (
(207,278,l),
(207,398,o),
(241,427,o),
(318,427,cs),
(395,427,o),
(421,387,o),
(421,278,c),
(543,324,l),
(543,470,o),
(481,526,o),
(366,526,cs),
(270,526,o),
(207,490,o),
(207,368,c)
);
},
{
closed = 1;
nodes = (
(180,384,l),
(209,363,l),
(218,417,l),
(180,417,l)
);
}
);
width = 619;
},
{
anchors = (
{
name = bottom;
pos = (267,0);
},
{
name = top;
pos = (267,500);
}
);
guides = (
{
pos = (0,538);
},
{
pos = (0,528);
}
);
layerId = "0DC1F6FB-20EC-4E8F-AE98-F98B5FD714DE";
shapes = (
{
closed = 1;
nodes = (
(80,0,l),
(116,0,l),
(116,368,l),
(116,528,l),
(80,528,l)
);
},
{
closed = 1;
nodes = (
(426,0,l),
(462,0,l),
(462,338,l),
(426,289,l)
);
},
{
closed = 1;
nodes = (
(116,278,l),
(116,398,o),
(138,502,o),
(276,502,cs),
(417,502,o),
(424,411,o),
(426,289,c),
(462,333,l),
(458,491,o),
(394,538,o),
(279,538,cs),
(172,538,o),
(116,490,o),
(116,368,c)
);
},
{
closed = 1;
nodes = (
(89,384,l),
(118,363,l),
(127,417,l),
(89,417,l)
);
}
);
width = 533;
}
);
unicode = 110;
},
{
color = 4;
glyphname = o;
kernLeft = o;
kernRight = o;
layers = (
{
anchors = (
{
name = bottom;
pos = (317,0);
},
{
name = center;
pos = (317,235);
},
{
name = ogonek;
pos = (570,10);
},
{
name = top;
pos = (317,470);
},
{
name = topright;
pos = (613,470);
}
);
guides = (
{
pos = (0,538);
}
);
layerId = "B3961A9D-C6DC-4F74-9770-9C992C479D86";
shapes = (
{
closed = 1;
nodes = (
(476,-9,o),
(575,51,o),
(575,252,c),
(575,277,l),
(575,478,o),
(476,538,o),
(316,538,c),
(156,538,o),
(58,477,o),
(58,277,c),
(58,252,l),
(58,51,o),
(156,-9,o),
(316,-9,c)
);
},
{
closed = 1;
nodes = (
(209,91,o),
(181,144,o),
(181,259,c),
(181,270,l),
(181,386,o),
(208,438,o),
(316,438,c),
(424,438,o),
(452,386,o),
(452,270,c),
(452,259,l),
(452,144,o),
(423,91,o),
(316,91,c)
);
}
);
width = 633;
},
{
anchors = (
{
name = bottom;
pos = (277,0);
},
{
name = center;
pos = (277,250);
},
{
name = ogonek;
pos = (498,10);
},
{
name = top;
pos = (277,500);
},
{
name = topright;
pos = (533,500);
}
);
guides = (
{
pos = (0,538);
}
);
layerId = "0DC1F6FB-20EC-4E8F-AE98-F98B5FD714DE";
shapes = (
{
closed = 1;
nodes = (
(419,-9,o),
(498,51,o),
(498,252,c),
(498,277,l),
(498,478,o),
(419,538,o),
(276,538,c),
(128,538,o),
(55,477,o),
(55,277,c),
(55,252,l),
(55,51,o),
(131,-9,o),
(276,-9,c)
);
},
{
closed = 1;
nodes = (
(130,27,o),
(91,100,o),
(91,257,c),
(91,272,l),
(91,430,o),
(128,502,o),
(276,502,c),
(423,502,o),
(462,430,o),
(462,272,c),
(462,257,l),
(462,100,o),
(421,27,o),
(276,27,c)
);
}
);
width = 553;
}
);
unicode = 111;
},
{
color = 4;
glyphname = oslash;
layers = (
{
anchors = (
{
name = bottom;
pos = (306,0);
},
{
name = center;
pos = (306,235);
},
{
name = ogonek;
pos = (559,10);
},
{
name = top;
pos = (306,470);
},
{
name = topright;
pos = (602,470);
}
);
layerId = "B3961A9D-C6DC-4F74-9770-9C992C479D86";
shapes = (
{
closed = 1;
nodes = (
(462,-9,o),
(561,51,o),
(561,252,c),
(561,277,l),
(561,478,o),
(462,538,o),
(302,538,c),
(142,538,o),
(44,477,o),
(44,277,c),
(44,252,l),
(44,51,o),
(142,-9,o),
(302,-9,c)
);
},
{
closed = 1;
nodes = (
(195,91,o),
(167,144,o),
(167,259,c),
(167,270,l),
(167,386,o),
(194,438,o),
(302,438,c),
(410,438,o),
(438,386,o),
(438,270,c),
(438,259,l),
(438,144,o),
(409,91,o),
(302,91,c)
);
},
{
closed = 1;
nodes = (
(417,706,l),
(73,-169,l),
(183,-169,l),
(527,706,l)
);
}
);
width = 605;
},
{
anchors = (
{
name = bottom;
pos = (264,0);
},
{
name = center;
pos = (264,250);
},
{
name = ogonek;
pos = (485,10);
},
{
name = top;
pos = (264,500);
},
{
name = topright;
pos = (520,500);
}
);
layerId = "0DC1F6FB-20EC-4E8F-AE98-F98B5FD714DE";
shapes = (
{
closed = 1;
nodes = (
(406,-9,o),
(485,51,o),
(485,252,c),
(485,277,l),
(485,478,o),
(406,538,o),
(263,538,c),
(115,538,o),
(42,477,o),
(42,277,c),
(42,252,l),
(42,51,o),
(118,-9,o),
(263,-9,c)
);
},
{
closed = 1;
nodes = (
(117,27,o),
(78,100,o),
(78,257,c),
(78,272,l),
(78,430,o),
(115,502,o),
(263,502,c),
(410,502,o),
(449,430,o),
(449,272,c),
(449,257,l),
(449,100,o),
(408,27,o),
(263,27,c)
);
},
{
closed = 1;
nodes = (
(431,684,l),
(65,-159,l),
(104,-159,l),
(470,684,l)
);
}
);
width = 527;
}
);
unicode = 248;
},
{
color = 4;
glyphname = oe;
layers = (
{
layerId = "B3961A9D-C6DC-4F74-9770-9C992C479D86";
shapes = (
{
closed = 1;
nodes = (
(476,-9,o),
(545,51,o),
(545,252,c),
(545,277,l),
(545,478,o),
(476,538,o),
(316,538,c),
(156,538,o),
(58,477,o),
(58,277,c),
(58,252,l),
(58,51,o),
(156,-9,o),
(316,-9,c)
);
},
{
closed = 1;
nodes = (
(209,91,o),
(181,144,o),
(181,259,c),
(181,270,l),
(181,386,o),
(208,438,o),
(316,438,c),
(424,438,o),
(452,386,o),
(452,270,c),
(452,259,l),
(452,144,o),
(423,91,o),
(316,91,c)
);
},
{
closed = 1;
nodes = (
(759,-8,o),
(815,-5,o),
(874,23,c),
(874,118,l),
(806,96,o),
(753,92,o),
(718,92,cs),
(608,92,o),
(574,132,o),
(570,231,c),
(884,231,l),
(886,277,ls),
(894,464,o),
(816,538,o),
(680,538,c),
(552,535,o),
(458,464,o),
(458,277,cs),
(458,253,ls),
(458,53,o),
(554,-8,o),
(706,-8,cs)
);
},
{
closed = 1;
nodes = (
(570,313,l),
(575,395,o),
(595,436,o),
(674,438,c),
(754,436,o),
(771,397,o),
(773,313,c)
);
}
);
width = 949;
},
{
layerId = "0DC1F6FB-20EC-4E8F-AE98-F98B5FD714DE";
shapes = (
{
closed = 1;
nodes = (
(419,-9,o),
(497,51,o),
(497,252,c),
(497,277,l),
(497,478,o),
(419,538,o),
(276,538,c),
(128,538,o),
(55,477,o),
(55,277,c),
(55,252,l),
(55,51,o),
(131,-9,o),
(276,-9,c)
);
},
{
closed = 1;
nodes = (
(130,27,o),
(91,100,o),
(91,257,c),
(91,272,l),
(91,430,o),
(128,502,o),
(276,502,c),
(423,502,o),
(462,430,o),
(462,272,c),
(462,257,l),
(462,100,o),
(421,27,o),
(276,27,c)
);
},
{
closed = 1;
nodes = (
(741,-9,o),
(797,-1,o),
(833,22,c),
(833,60,l),
(804,41,o),
(750,27,o),
(683,27,cs),
(552,27,o),
(498,69,o),
(498,265,c),
(845,265,l),
(846,277,ls),
(862,473,o),
(791,537,o),
(657,538,cs),
(523,539,o),
(462,474,o),
(462,277,cs),
(462,252,ls),
(462,51,o),
(532,-9,o),
(683,-9,cs)
);
},
{
closed = 1;
nodes = (
(498,298,l),
(501,436,o),
(532,504,o),
(657,502,cs),
(786,500,o),
(820,436,o),
(811,298,c)
);
}
);
width = 895;
}
);
unicode = 339;
},
{
color = 4;
glyphname = p;
layers = (
{
anchors = (
{
name = bottom;
pos = (325,0);
},
{
name = top;
pos = (325,470);
}
);
layerId = "B3961A9D-C6DC-4F74-9770-9C992C479D86";
shapes = (
{
closed = 1;
nodes = (
(535,-10,o),
(602,50,o),
(602,251,cs),
(602,276,ls),
(602,467,o),
(535,537,o),
(375,537,cs),
(281,537,o),
(234,509,o),
(212,441,c),
(208,441,l),
(208,528,l),
(86,528,l),
(86,-247,l),
(208,-247,l),
(208,107,l),
(212,107,l),
(234,31,o),
(281,-10,o),
(375,-10,cs)
);
},
{
closed = 1;
nodes = (
(235,90,o),
(208,142,o),
(208,258,cs),
(208,269,ls),
(208,384,o),
(236,437,o),
(343,437,cs),
(450,437,o),
(479,384,o),
(479,269,cs),
(479,258,ls),
(479,142,o),
(451,90,o),
(343,90,cs)
);
}
);
width = 649;
},
{
anchors = (
{
name = bottom;
pos = (282,0);
},
{
name = top;
pos = (282,500);
}
);
guides = (
{
pos = (0,538);
},
{
pos = (0,528);
},
{
pos = (0,538);
},
{
pos = (0,528);
}
);
layerId = "0DC1F6FB-20EC-4E8F-AE98-F98B5FD714DE";
shapes = (
{
closed = 1;
nodes = (
(444,-9,o),
(523,51,o),
(523,252,cs),
(523,277,ls),
(523,478,o),
(444,538,o),
(301,538,cs),
(200,538,o),
(144,509,o),
(120,424,c),
(116,424,l),
(116,528,l),
(80,528,l),
(80,-246,l),
(116,-246,l),
(116,103,l),
(120,103,l),
(144,20,o),
(199,-9,o),
(301,-9,cs)
);
},
{
closed = 1;
nodes = (
(153,27,o),
(116,99,o),
(116,257,cs),
(116,272,ls),
(116,429,o),
(155,502,o),
(301,502,cs),
(446,502,o),
(487,429,o),
(487,272,cs),
(487,257,ls),
(487,99,o),
(448,27,o),
(301,27,cs)
);
}
);
width = 563;
}
);
unicode = 112;
},
{
color = 4;
glyphname = thorn;
layers = (
{
layerId = "B3961A9D-C6DC-4F74-9770-9C992C479D86";
shapes = (
{
closed = 1;
nodes = (
(535,-10,o),
(602,50,o),
(602,251,cs),
(602,276,ls),
(602,467,o),
(535,537,o),
(375,537,cs),
(281,537,o),
(234,509,o),
(212,441,c),
(208,441,l),
(208,818,l),
(86,818,l),
(86,-247,l),
(208,-247,l),
(208,107,l),
(212,107,l),
(234,31,o),
(281,-10,o),
(375,-10,cs)
);
},
{
closed = 1;
nodes = (
(235,90,o),
(208,142,o),
(208,258,cs),
(208,269,ls),
(208,384,o),
(236,437,o),
(343,437,cs),
(450,437,o),
(479,384,o),
(479,269,cs),
(479,258,ls),
(479,142,o),
(451,90,o),
(343,90,cs)
);
}
);
width = 641;
},
{
layerId = "0DC1F6FB-20EC-4E8F-AE98-F98B5FD714DE";
shapes = (
{
closed = 1;
nodes = (
(444,-9,o),
(523,51,o),
(523,252,cs),
(523,277,ls),
(523,478,o),
(444,538,o),
(301,538,cs),
(200,538,o),
(144,509,o),
(120,424,c),
(116,424,l),
(116,728,l),
(80,728,l),
(80,-246,l),
(116,-246,l),
(116,103,l),
(120,103,l),
(144,20,o),
(199,-9,o),
(301,-9,cs)
);
},
{
closed = 1;
nodes = (
(153,27,o),
(116,99,o),
(116,257,cs),
(116,272,ls),
(116,429,o),
(155,502,o),
(301,502,cs),
(446,502,o),
(487,429,o),
(487,272,cs),
(487,257,ls),
(487,99,o),
(448,27,o),
(301,27,cs)
);
}
);
width = 556;
}
);
unicode = 254;
},
{
color = 4;
glyphname = q;
layers = (
{
anchors = (
{
name = bottom;
pos = (325,0);
},
{
name = top;
pos = (325,470);
}
);
layerId = "B3961A9D-C6DC-4F74-9770-9C992C479D86";
shapes = (
{
closed = 1;
nodes = (
(368,-10,o),
(415,31,o),
(437,107,c),
(441,107,l),
(441,-247,l),
(563,-247,l),
(563,528,l),
(441,528,l),
(441,441,l),
(437,441,l),
(415,509,o),
(368,537,o),
(274,537,cs),
(114,537,o),
(47,467,o),
(47,276,cs),
(47,251,ls),
(47,50,o),
(114,-10,o),
(274,-10,cs)
);
},
{
closed = 1;
nodes = (
(198,90,o),
(170,142,o),
(170,258,cs),
(170,269,ls),
(170,384,o),
(199,437,o),
(306,437,cs),
(413,437,o),
(441,384,o),
(441,269,cs),
(441,258,ls),
(441,142,o),
(414,90,o),
(306,90,cs)
);
}
);
width = 649;
},
{
anchors = (
{
name = bottom;
pos = (282,0);
},
{
name = top;
pos = (282,500);
}
);
guides = (
{
pos = (0,538);
},
{
pos = (0,528);
}
);
layerId = "0DC1F6FB-20EC-4E8F-AE98-F98B5FD714DE";
shapes = (
{
closed = 1;
nodes = (
(364,-9,o),
(419,20,o),
(443,103,c),
(447,103,l),
(447,-246,l),
(483,-246,l),
(483,528,l),
(447,528,l),
(447,424,l),
(443,424,l),
(419,509,o),
(363,538,o),
(262,538,cs),
(119,538,o),
(40,478,o),
(40,277,cs),
(40,252,ls),
(40,51,o),
(119,-9,o),
(262,-9,cs)
);
},
{
closed = 1;
nodes = (
(115,27,o),
(76,99,o),
(76,257,cs),
(76,272,ls),
(76,429,o),
(117,502,o),
(262,502,cs),
(408,502,o),
(447,429,o),
(447,272,cs),
(447,257,ls),
(447,99,o),
(410,27,o),
(262,27,cs)
);
}
);
width = 563;
}
);
unicode = 113;
},
{
color = 4;
glyphname = r;
kernLeft = r;
kernRight = r;
layers = (
{
anchors = (
{
name = bottom;
pos = (223,0);
},
{
name = top;
pos = (223,470);
}
);
layerId = "B3961A9D-C6DC-4F74-9770-9C992C479D86";
shapes = (
{
closed = 1;
nodes = (
(85,0,l),
(207,0,l),
(207,270,ls),
(207,386,o),
(234,436,o),
(342,436,cs),
(413,436,l),
(413,538,l),
(364,538,ls),
(284,538,o),
(236,504,o),
(210,440,c),
(207,440,l),
(207,528,l),
(85,528,l)
);
}
);
width = 446;
},
{
anchors = (
{
name = bottom;
pos = (169,0);
},
{
name = top;
pos = (169,500);
}
);
guides = (
{
pos = (0,538);
},
{
pos = (0,528);
},
{
pos = (0,528);
},
{
pos = (0,538);
},
{
pos = (0,502);
},
{
pos = (0,424);
}
);
layerId = "0DC1F6FB-20EC-4E8F-AE98-F98B5FD714DE";
shapes = (
{
closed = 1;
nodes = (
(80,0,l),
(116,0,l),
(116,280,ls),
(116,429,o),
(160,502,o),
(278,502,cs),
(322,502,l),
(322,538,l),
(285,538,ls),
(205,538,o),
(151,521,o),
(119,424,c),
(116,424,l),
(116,528,l),
(80,528,l)
);
}
);
width = 337;
}
);
unicode = 114;
},
{
color = 4;
glyphname = s;
kernLeft = s;
kernRight = s;
layers = (
{
anchors = (
{
name = bottom;
pos = (250,0);
},
{
name = top;
pos = (250,470);
}
);
guides = (
{
pos = (0,528);
},
{
angle = 90;
pos = (57,0);
},
{
angle = 90;
pos = (445,0);
},
{
angle = 90;
pos = (657,0);
},
{
angle = 90;
pos = (1057,0);
}
);
layerId = "B3961A9D-C6DC-4F74-9770-9C992C479D86";
shapes = (
{
closed = 1;
nodes = (
(362,-8,o),
(445,24,o),
(445,135,cs),
(445,248,o),
(383,271,o),
(291,296,cs),
(198,321,o),
(173,334,o),
(174,383,cs),
(175,426,o),
(207,439,o),
(264,439,cs),
(312,439,o),
(384,425,o),
(431,409,c),
(431,502,l),
(373,525,o),
(320,533,o),
(261,535,cs),
(142,539,o),
(54,496,o),
(54,391,cs),
(54,303,o),
(73,245,o),
(256,203,cs),
(295,194,o),
(325,178,o),
(324,136,cs),
(323,98,o),
(304,79,o),
(239,82,cs),
(183,84,o),
(129,95,o),
(72,112,c),
(72,18,l),
(127,3,o),
(190,-8,o),
(246,-8,cs)
);
}
);
width = 500;
},
{
anchors = (
{
name = bottom;
pos = (216,0);
},
{
name = top;
pos = (216,500);
}
);
guides = (
{
pos = (0,538);
},
{
angle = 90;
pos = (40,0);
},
{
angle = 90;
pos = (384,0);
}
);
layerId = "0DC1F6FB-20EC-4E8F-AE98-F98B5FD714DE";
shapes = (
{
closed = 1;
nodes = (
(309,-8,o),
(389,25,o),
(394,128,cs),
(399,226,o),
(322,256,o),
(230,281,cs),
(137,306,o),
(76,326,o),
(77,405,cs),
(78,458,o),
(121,505,o),
(230,502,cs),
(281,501,o),
(325,494,o),
(374,475,c),
(374,512,l),
(339,525,o),
(292,537,o),
(231,538,cs),
(124,540,o),
(44,500,o),
(41,408,cs),
(39,346,o),
(54,285,o),
(222,246,cs),
(261,237,o),
(368,208,o),
(358,127,cs),
(353,89,o),
(333,22,o),
(186,28,cs),
(140,30,o),
(94,36,o),
(46,48,c),
(46,10,l),
(93,-1,o),
(139,-8,o),
(185,-8,cs)
);
}
);
width = 432;
}
);
unicode = 115;
},
{
color = 4;
glyphname = t;
kernLeft = t;
kernRight = t;
layers = (
{
anchors = (
{
name = bottom;
pos = (208,0);
},
{
name = center;
pos = (208,235);
},
{
name = top;
pos = (208,470);
},
{
name = topright;
pos = (395,1130);
}
);
layerId = "B3961A9D-C6DC-4F74-9770-9C992C479D86";
shapes = (
{
closed = 1;
nodes = (
(250,258,l),
(250,726,l),
(128,706,l),
(128,258,l)
);
},
{
closed = 1;
nodes = (
(368,0,l),
(368,116,l),
(346,116,l),
(255,116,o),
(250,123,o),
(250,214,c),
(250,374,l),
(128,374,l),
(128,207,l),
(128,39,o),
(177,0,o),
(314,0,c)
);
},
{
closed = 1;
nodes = (
(368,517,l),
(32,517,l),
(32,415,l),
(368,415,l)
);
}
);
width = 415;
},
{
anchors = (
{
name = bottom;
pos = (160,0);
},
{
name = center;
pos = (160,250);
},
{
name = top;
pos = (160,500);
},
{
name = topright;
pos = (299,800);
}
);
guides = (
{
angle = 90;
pos = (872,0);
},
{
angle = 90;
pos = (296,0);
}
);
layerId = "0DC1F6FB-20EC-4E8F-AE98-F98B5FD714DE";
shapes = (
{
closed = 1;
nodes = (
(165,223,l),
(165,741,l),
(129,731,l),
(129,223,l)
);
},
{
closed = 1;
nodes = (
(296,0,l),
(296,35,l),
(255,35,l),
(162,35,o),
(165,98,o),
(165,173,cs),
(165,339,l),
(129,339,l),
(129,155,l),
(129,51,o),
(145,0,o),
(264,0,c)
);
},
{
closed = 1;
nodes = (
(296,530,l),
(16,530,l),
(16,498,l),
(296,498,l)
);
}
);
width = 319;
}
);
unicode = 116;
},
{
color = 4;
glyphname = u;
kernLeft = u;
kernRight = u;
layers = (
{
anchors = (
{
name = bottom;
pos = (267,0);
},
{
name = ogonek;
pos = (480,10);
},
{
name = top;
pos = (267,500);
},
{
name = topright;
pos = (513,500);
}
);
associatedMasterId = "0DC1F6FB-20EC-4E8F-AE98-F98B5FD714DE";
layerId = "A60E2505-20D3-4070-AD0C-80FD77649E51";
name = "#instance";
shapes = (
{
closed = 1;
nodes = (
(453,528,l),
(417,528,l),
(417,160,l),
(417,0,l),
(453,0,l)
);
},
{
closed = 1;
nodes = (
(107,528,l),
(71,528,l),
(71,190,l),
(107,239,l)
);
},
{
closed = 1;
nodes = (
(417,250,l),
(417,130,o),
(395,26,o),
(257,26,cs),
(116,26,o),
(109,117,o),
(107,239,c),
(71,195,l),
(75,37,o),
(139,-10,o),
(254,-10,cs),
(361,-10,o),
(417,38,o),
(417,160,cs)
);
},
{
closed = 1;
nodes = (
(444,144,l),
(415,165,l),
(406,111,l),
(444,111,l)
);
}
);
width = 533;
},
{
anchors = (
{
name = bottom;
pos = (310,0);
},
{
name = ogonek;
pos = (558,10);
},
{
name = top;
pos = (310,470);
},
{
name = topright;
pos = (600,470);
}
);
guides = (
{
pos = (0,528);
}
);
layerId = "B3961A9D-C6DC-4F74-9770-9C992C479D86";
shapes = (
{
closed = 1;
nodes = (
(535,528,l),
(413,528,l),
(413,147,l),
(413,0,l),
(535,0,l)
);
},
{
closed = 1;
nodes = (
(199,528,l),
(77,528,l),
(77,191,l),
(199,163,l)
);
},
{
closed = 1;
nodes = (
(413,237,l),
(413,117,o),
(379,88,o),
(302,88,cs),
(225,88,o),
(199,128,o),
(199,237,c),
(77,191,l),
(77,45,o),
(139,-11,o),
(254,-11,cs),
(350,-11,o),
(413,25,o),
(413,147,c)
);
},
{
closed = 1;
nodes = (
(440,131,l),
(411,152,l),
(402,98,l),
(440,98,l)
);
}
);
width = 620;
},
{
anchors = (
{
name = bottom;
pos = (267,0);
},
{
name = ogonek;
pos = (480,10);
},
{
name = top;
pos = (267,500);
},
{
name = topright;
pos = (513,500);
}
);
layerId = "0DC1F6FB-20EC-4E8F-AE98-F98B5FD714DE";
shapes = (
{
closed = 1;
nodes = (
(453,528,l),
(417,528,l),
(417,160,l),
(417,0,l),
(453,0,l)
);
},
{
closed = 1;
nodes = (
(107,528,l),
(71,528,l),
(71,190,l),
(107,239,l)
);
},
{
closed = 1;
nodes = (
(417,250,l),
(417,130,o),
(395,26,o),
(257,26,cs),
(116,26,o),
(109,117,o),
(107,239,c),
(71,195,l),
(75,37,o),
(139,-10,o),
(254,-10,cs),
(361,-10,o),
(417,38,o),
(417,160,c)
);
},
{
closed = 1;
nodes = (
(444,144,l),
(415,165,l),
(406,111,l),
(444,111,l)
);
}
);
width = 533;
}
);
unicode = 117;
},
{
color = 4;
glyphname = v;
layers = (
{
anchors = (
{
name = bottom;
pos = (286,0);
},
{
name = top;
pos = (286,470);
}
);
layerId = "B3961A9D-C6DC-4F74-9770-9C992C479D86";
shapes = (
{
closed = 1;
nodes = (
(376,0,l),
(541,528,l),
(413,528,l),
(287,106,l),
(285,106,l),
(158,528,l),
(30,528,l),
(196,0,l)
);
}
);
width = 572;
},
{
anchors = (
{
name = bottom;
pos = (236,0);
},
{
name = top;
pos = (236,500);
}
);
layerId = "0DC1F6FB-20EC-4E8F-AE98-F98B5FD714DE";
shapes = (
{
closed = 1;
nodes = (
(259,0,l),
(451,528,l),
(413,528,l),
(237,36,l),
(235,36,l),
(58,528,l),
(20,527,l),
(213,0,l)
);
}
);
width = 472;
}
);
unicode = 118;
},
{
color = 4;
glyphname = w;
kernLeft = w;
kernRight = w;
layers = (
{
anchors = (
{
name = bottom;
pos = (436,0);
},
{
name = top;
pos = (436,470);
}
);
layerId = "B3961A9D-C6DC-4F74-9770-9C992C479D86";
shapes = (
{
closed = 1;
nodes = (
(333,0,l),
(434,412,l),
(438,412,l),
(539,0,l),
(708,0,l),
(837,528,l),
(711,528,l),
(617,110,l),
(613,110,l),
(513,528,l),
(359,528,l),
(259,110,l),
(255,110,l),
(161,528,l),
(35,528,l),
(164,0,l)
);
}
);
width = 872;
},
{
anchors = (
{
name = bottom;
pos = (337,0);
},
{
name = top;
pos = (337,500);
}
);
layerId = "0DC1F6FB-20EC-4E8F-AE98-F98B5FD714DE";
shapes = (
{
closed = 1;
nodes = (
(224,0,l),
(335,505,l),
(339,505,l),
(450,0,l),
(500,0,l),
(649,528,l),
(611,528,l),
(477,36,l),
(473,36,l),
(365,528,l),
(309,528,l),
(201,36,l),
(197,36,l),
(63,528,l),
(25,528,l),
(174,0,l)
);
}
);
width = 674;
}
);
unicode = 119;
},
{
color = 4;
glyphname = x;
layers = (
{
anchors = (
{
name = bottom;
pos = (288,0);
},
{
name = top;
pos = (288,470);
}
);
guides = (
{
pos = (0,528);
}
);
layerId = "B3961A9D-C6DC-4F74-9770-9C992C479D86";
shapes = (
{
closed = 1;
nodes = (
(289,215,l),
(405,0,l),
(546,0,l),
(389,269,l),
(527,528,l),
(396,528,l),
(289,316,l),
(285,316,l),
(178,528,l),
(47,528,l),
(185,269,l),
(28,0,l),
(169,0,l),
(285,215,l)
);
}
);
width = 575;
},
{
anchors = (
{
name = bottom;
pos = (231,0);
},
{
name = top;
pos = (231,500);
}
);
guides = (
{
angle = 90;
pos = (48,0);
},
{
angle = 90;
pos = (416,0);
}
);
layerId = "0DC1F6FB-20EC-4E8F-AE98-F98B5FD714DE";
shapes = (
{
closed = 1;
nodes = (
(232,258,l),
(399,0,l),
(442,0,l),
(261,276,l),
(422,528,l),
(381,528,l),
(232,294,l),
(228,294,l),
(79,528,l),
(38,528,l),
(199,276,l),
(18,0,l),
(61,0,l),
(228,258,l)
);
}
);
width = 461;
}
);
unicode = 120;
},
{
color = 4;
glyphname = y;
kernLeft = y;
kernRight = y;
layers = (
{
anchors = (
{
name = bottom;
pos = (299,0);
},
{
name = top;
pos = (299,470);
}
);
guides = (
{
pos = (0,528);
}
);
layerId = "B3961A9D-C6DC-4F74-9770-9C992C479D86";
shapes = (
{
closed = 1;
nodes = (
(24,528,l),
(203,0,l),
(268,0,l),
(169,-284,l),
(298,-284,l),
(574,528,l),
(445,528,l),
(299,79,l),
(296,79,l),
(152,528,l)
);
}
);
width = 598;
},
{
anchors = (
{
name = bottom;
pos = (230,0);
},
{
name = top;
pos = (230,500);
}
);
layerId = "0DC1F6FB-20EC-4E8F-AE98-F98B5FD714DE";
shapes = (
{
closed = 1;
nodes = (
(14,528,l),
(218,27,l),
(206,-5,l),
(100,-284,l),
(138,-284,l),
(444,528,l),
(406,528,l),
(236,79,l),
(233,79,l),
(53,528,l)
);
}
);
width = 459;
}
);
unicode = 121;
},
{
color = 4;
glyphname = z;
kernLeft = z;
kernRight = z;
layers = (
{
anchors = (
{
name = bottom;
pos = (263,0);
},
{
name = center;
pos = (263,235);
},
{
name = top;
pos = (263,470);
}
);
guides = (
{
pos = (0,528);
},
{
angle = 90;
pos = (473,0);
},
{
angle = 90;
pos = (53,0);
}
);
layerId = "B3961A9D-C6DC-4F74-9770-9C992C479D86";
shapes = (
{
closed = 1;
nodes = (
(59,528,l),
(59,416,l),
(305,416,l),
(305,412,l),
(53,114,l),
(53,0,l),
(473,0,l),
(473,112,l),
(200,112,l),
(200,115,l),
(467,414,l),
(467,528,l)
);
}
);
width = 526;
},
{
anchors = (
{
name = bottom;
pos = (204,0);
},
{
name = center;
pos = (204,250);
},
{
name = top;
pos = (204,500);
}
);
guides = (
{
angle = 90;
pos = (37,0);
},
{
angle = 90;
pos = (380,0);
}
);
layerId = "0DC1F6FB-20EC-4E8F-AE98-F98B5FD714DE";
shapes = (
{
closed = 1;
nodes = (
(33,528,l),
(33,492,l),
(333,492,l),
(333,488,l),
(27,36,l),
(27,0,l),
(380,0,l),
(380,36,l),
(69,36,l),
(69,40,l),
(374,490,l),
(374,528,l)
);
}
);
width = 407;
}
);
unicode = 122;
},
{
color = 4;
glyphname = c_t;
layers = (
{
layerId = "B3961A9D-C6DC-4F74-9770-9C992C479D86";
shapes = (
{
closed = 1;
nodes = (
(340,-8,o),
(407,5,o),
(437,24,c),
(437,119,l),
(404,102,o),
(352,92,o),
(302,92,cs),
(194,92,o),
(167,144,o),
(167,260,cs),
(167,270,ls),
(167,386,o),
(194,438,o),
(302,438,cs),
(352,438,o),
(404,428,o),
(437,411,c),
(437,506,l),
(407,525,o),
(340,538,o),
(287,538,cs),
(135,538,o),
(44,477,o),
(44,277,cs),
(44,253,ls),
(44,53,o),
(135,-8,o),
(287,-8,cs)
);
},
{
closed = 1;
nodes = (
(864,0,l),
(864,116,l),
(842,116,ls),
(751,116,o),
(746,123,o),
(746,214,cs),
(746,374,l),
(624,374,l),
(624,207,ls),
(624,39,o),
(673,0,o),
(810,0,cs)
);
},
{
closed = 1;
nodes = (
(746,223,l),
(746,597,ls),
(746,703,o),
(735,803,o),
(528,803,cs),
(307,803,o),
(336,597,o),
(337,513,c),
(437,505,l),
(437,599,o),
(425,703,o),
(527,703,cs),
(617,703,o),
(624,655,o),
(624,590,cs),
(624,223,l)
);
},
{
closed = 1;
nodes = (
(864,415,l),
(864,517,l),
(528,517,l),
(528,415,l)
);
}
);
width = 907;
},
{
layerId = "0DC1F6FB-20EC-4E8F-AE98-F98B5FD714DE";
shapes = (
{
closed = 1;
nodes = (
(321,-9,o),
(368,5,o),
(404,28,c),
(404,66,l),
(375,50,o),
(330,27,o),
(263,27,cs),
(117,27,o),
(78,100,o),
(78,257,cs),
(78,272,ls),
(78,430,o),
(115,502,o),
(263,502,cs),
(331,502,o),
(375,484,o),
(404,466,c),
(404,505,l),
(371,526,o),
(321,538,o),
(263,538,cs),
(115,538,o),
(42,477,o),
(42,277,cs),
(42,252,ls),
(42,51,o),
(118,-9,o),
(263,-9,cs)
);
},
{
closed = 1;
nodes = (
(773,0,l),
(773,35,l),
(732,35,ls),
(639,35,o),
(642,98,o),
(642,173,cs),
(642,339,l),
(606,339,l),
(606,155,ls),
(606,51,o),
(622,0,o),
(741,0,cs)
);
},
{
closed = 1;
nodes = (
(642,223,l),
(642,597,ls),
(642,703,o),
(597,743,o),
(502,744,cs),
(357,744,o),
(369,597,o),
(370,513,c),
(404,505,l),
(404,599,o),
(400,709,o),
(502,709,cs),
(592,709,o),
(606,655,o),
(606,590,cs),
(606,223,l)
);
},
{
closed = 1;
nodes = (
(773,498,l),
(773,530,l),
(493,530,l),
(493,498,l)
);
}
);
width = 796;
}
);
},
{
color = 4;
glyphname = f_f_j;
layers = (
{
layerId = "B3961A9D-C6DC-4F74-9770-9C992C479D86";
shapes = (
{
closed = 1;
nodes = (
(124,0,l),
(246,0,l),
(246,528,l),
(124,528,l)
);
},
{
closed = 1;
nodes = (
(310,752,l),
(173,755,o),
(124,713,o),
(124,545,c),
(124,412,l),
(246,412,l),
(246,538,l),
(246,629,o),
(251,636,o),
(342,636,c),
(364,636,l),
(364,751,l)
);
},
{
closed = 1;
nodes = (
(28,517,l),
(28,415,l),
(364,415,l),
(364,517,l)
);
},
{
closed = 1;
nodes = (
(464,0,l),
(586,0,l),
(586,528,l),
(464,528,l)
);
},
{
closed = 1;
nodes = (
(650,752,l),
(513,755,o),
(464,713,o),
(464,545,c),
(464,412,l),
(586,412,l),
(586,538,l),
(586,629,o),
(591,636,o),
(682,636,c),
(704,636,l),
(704,751,l)
);
},
{
closed = 1;
nodes = (
(338,517,l),
(338,415,l),
(908,415,l),
(908,517,l)
);
},
{
closed = 1;
nodes = (
(722,-204,ls),
(859,-204,o),
(908,-165,o),
(908,3,cs),
(908,170,l),
(786,170,l),
(786,10,ls),
(786,-81,o),
(781,-88,o),
(690,-88,cs),
(668,-88,l),
(668,-204,l)
);
},
{
closed = 1;
nodes = (
(908,154,l),
(908,498,l),
(786,498,l),
(786,154,l)
);
}
);
width = 975;
},
{
layerId = "0DC1F6FB-20EC-4E8F-AE98-F98B5FD714DE";
shapes = (
{
closed = 1;
nodes = (
(110,0,l),
(146,0,l),
(146,528,l),
(110,528,l)
);
},
{
closed = 1;
nodes = (
(266,751,l),
(142,751,o),
(110,716,o),
(110,585,c),
(110,412,l),
(146,412,l),
(146,578,ls),
(146,653,o),
(139,720,o),
(257,716,c),
(294,716,l),
(294,751,l)
);
},
{
closed = 1;
nodes = (
(14,530,l),
(14,498,l),
(294,498,l),
(294,530,l)
);
},
{
closed = 1;
nodes = (
(384,0,l),
(420,0,l),
(420,528,l),
(384,528,l)
);
},
{
closed = 1;
nodes = (
(540,751,l),
(416,751,o),
(384,716,o),
(384,585,c),
(384,412,l),
(420,412,l),
(420,578,ls),
(420,653,o),
(413,720,o),
(531,716,c),
(568,716,l),
(568,751,l)
);
},
{
closed = 1;
nodes = (
(288,530,l),
(288,498,l),
(682,498,l),
(682,530,l)
);
},
{
closed = 1;
nodes = (
(596,-84,ls),
(638,-84,o),
(682,-76,o),
(682,-14,cs),
(682,170,l),
(646,170,l),
(646,16,ls),
(646,-37,o),
(641,-46,o),
(596,-48,c),
(569,-48,l),
(569,-84,l)
);
},
{
closed = 1;
nodes = (
(682,165,l),
(682,528,l),
(646,528,l),
(646,165,l)
);
}
);
width = 745;
}
);
},
{
color = 4;
glyphname = f_j;
layers = (
{
layerId = "B3961A9D-C6DC-4F74-9770-9C992C479D86";
shapes = (
{
closed = 1;
nodes = (
(124,0,l),
(246,0,l),
(246,528,l),
(124,528,l)
);
},
{
closed = 1;
nodes = (
(310,752,l),
(173,755,o),
(124,713,o),
(124,545,c),
(124,412,l),
(246,412,l),
(246,538,l),
(246,629,o),
(251,636,o),
(342,636,c),
(364,636,l),
(364,751,l)
);
},
{
closed = 1;
nodes = (
(28,517,l),
(28,415,l),
(568,415,l),
(568,517,l)
);
},
{
closed = 1;
nodes = (
(382,-204,ls),
(519,-204,o),
(568,-165,o),
(568,3,cs),
(568,170,l),
(446,170,l),
(446,10,ls),
(446,-81,o),
(441,-88,o),
(350,-88,cs),
(328,-88,l),
(328,-204,l)
);
},
{
closed = 1;
nodes = (
(568,154,l),
(568,498,l),
(446,498,l),
(446,154,l)
);
}
);
width = 635;
},
{
layerId = "0DC1F6FB-20EC-4E8F-AE98-F98B5FD714DE";
shapes = (
{
closed = 1;
nodes = (
(110,0,l),
(146,0,l),
(146,528,l),
(110,528,l)
);
},
{
closed = 1;
nodes = (
(266,751,l),
(142,751,o),
(110,716,o),
(110,585,c),
(110,412,l),
(146,412,l),
(146,578,ls),
(146,653,o),
(139,720,o),
(257,716,c),
(294,716,l),
(294,751,l)
);
},
{
closed = 1;
nodes = (
(14,530,l),
(14,498,l),
(408,498,l),
(408,530,l)
);
},
{
closed = 1;
nodes = (
(322,-84,ls),
(364,-84,o),
(408,-76,o),
(408,-14,cs),
(408,170,l),
(372,170,l),
(372,16,ls),
(372,-37,o),
(367,-46,o),
(322,-48,c),
(295,-48,l),
(295,-84,l)
);
},
{
closed = 1;
nodes = (
(408,165,l),
(408,528,l),
(372,528,l),
(372,165,l)
);
}
);
width = 471;
}
);
},
{
color = 4;
glyphname = ff;
layers = (
{
layerId = "B3961A9D-C6DC-4F74-9770-9C992C479D86";
shapes = (
{
closed = 1;
nodes = (
(127,0,l),
(249,0,l),
(249,528,l),
(127,528,l)
);
},
{
closed = 1;
nodes = (
(313,752,l),
(176,755,o),
(127,713,o),
(127,545,c),
(127,412,l),
(249,412,l),
(249,538,l),
(249,629,o),
(254,636,o),
(345,636,c),
(367,636,l),
(367,751,l)
);
},
{
closed = 1;
nodes = (
(31,517,l),
(31,415,l),
(367,415,l),
(367,517,l)
);
},
{
closed = 1;
nodes = (
(467,0,l),
(589,0,l),
(589,528,l),
(467,528,l)
);
},
{
closed = 1;
nodes = (
(653,752,l),
(516,755,o),
(467,713,o),
(467,545,c),
(467,412,l),
(589,412,l),
(589,538,l),
(589,629,o),
(594,636,o),
(685,636,c),
(707,636,l),
(707,751,l)
);
},
{
closed = 1;
nodes = (
(341,517,l),
(341,415,l),
(707,415,l),
(707,517,l)
);
}
);
width = 751;
},
{
layerId = "0DC1F6FB-20EC-4E8F-AE98-F98B5FD714DE";
shapes = (
{
closed = 1;
nodes = (
(112,0,l),
(148,0,l),
(148,528,l),
(112,528,l)
);
},
{
closed = 1;
nodes = (
(268,751,l),
(144,751,o),
(112,716,o),
(112,585,c),
(112,412,l),
(148,412,l),
(148,578,ls),
(148,653,o),
(141,720,o),
(259,716,c),
(296,716,l),
(296,751,l)
);
},
{
closed = 1;
nodes = (
(16,530,l),
(16,498,l),
(296,498,l),
(296,530,l)
);
},
{
closed = 1;
nodes = (
(386,0,l),
(422,0,l),
(422,528,l),
(386,528,l)
);
},
{
closed = 1;
nodes = (
(542,751,l),
(418,751,o),
(386,716,o),
(386,585,c),
(386,412,l),
(422,412,l),
(422,578,ls),
(422,653,o),
(415,720,o),
(533,716,c),
(570,716,l),
(570,751,l)
);
},
{
closed = 1;
nodes = (
(290,530,l),
(290,498,l),
(570,498,l),
(570,530,l)
);
}
);
width = 593;
}
);
unicode = 64256;
},
{
color = 4;
glyphname = ffi;
layers = (
{
layerId = "B3961A9D-C6DC-4F74-9770-9C992C479D86";
shapes = (
{
closed = 1;
nodes = (
(127,0,l),
(249,0,l),
(249,528,l),
(127,528,l)
);
},
{
closed = 1;
nodes = (
(313,752,l),
(176,755,o),
(127,713,o),
(127,545,c),
(127,412,l),
(249,412,l),
(249,538,l),
(249,629,o),
(254,636,o),
(345,636,c),
(367,636,l),
(367,751,l)
);
},
{
closed = 1;
nodes = (
(31,517,l),
(31,415,l),
(367,415,l),
(367,517,l)
);
},
{
closed = 1;
nodes = (
(467,0,l),
(589,0,l),
(589,528,l),
(467,528,l)
);
},
{
closed = 1;
nodes = (
(653,752,l),
(516,755,o),
(467,713,o),
(467,545,c),
(467,412,l),
(589,412,l),
(589,538,l),
(589,629,o),
(594,636,o),
(685,636,c),
(707,636,l),
(707,751,l)
);
},
{
closed = 1;
nodes = (
(341,517,l),
(341,415,l),
(911,415,l),
(911,517,l)
);
},
{
closed = 1;
nodes = (
(911,0,l),
(911,498,l),
(789,498,l),
(789,0,l)
);
}
);
width = 978;
},
{
layerId = "0DC1F6FB-20EC-4E8F-AE98-F98B5FD714DE";
shapes = (
{
closed = 1;
nodes = (
(112,0,l),
(148,0,l),
(148,528,l),
(112,528,l)
);
},
{
closed = 1;
nodes = (
(268,751,l),
(144,751,o),
(112,716,o),
(112,585,c),
(112,412,l),
(148,412,l),
(148,578,ls),
(148,653,o),
(141,720,o),
(259,716,c),
(296,716,l),
(296,751,l)
);
},
{
closed = 1;
nodes = (
(16,530,l),
(16,498,l),
(296,498,l),
(296,530,l)
);
},
{
closed = 1;
nodes = (
(386,0,l),
(422,0,l),
(422,528,l),
(386,528,l)
);
},
{
closed = 1;
nodes = (
(542,751,l),
(418,751,o),
(386,716,o),
(386,585,c),
(386,412,l),
(422,412,l),
(422,578,ls),
(422,653,o),
(415,720,o),
(533,716,c),
(570,716,l),
(570,751,l)
);
},
{
closed = 1;
nodes = (
(290,530,l),
(290,498,l),
(684,498,l),
(684,530,l)
);
},
{
closed = 1;
nodes = (
(684,0,l),
(684,528,l),
(648,528,l),
(648,0,l)
);
}
);
width = 746;
}
);
unicode = 64259;
},
{
color = 4;
glyphname = ffl;
layers = (
{
layerId = "B3961A9D-C6DC-4F74-9770-9C992C479D86";
shapes = (
{
closed = 1;
nodes = (
(127,0,l),
(249,0,l),
(249,528,l),
(127,528,l)
);
},
{
closed = 1;
nodes = (
(313,752,l),
(176,755,o),
(127,713,o),
(127,545,c),
(127,412,l),
(249,412,l),
(249,538,l),
(249,629,o),
(254,636,o),
(345,636,c),
(367,636,l),
(367,751,l)
);
},
{
closed = 1;
nodes = (
(31,517,l),
(31,415,l),
(367,415,l),
(367,517,l)
);
},
{
closed = 1;
nodes = (
(467,0,l),
(589,0,l),
(589,528,l),
(467,528,l)
);
},
{
closed = 1;
nodes = (
(516,755,o),
(467,713,o),
(467,545,c),
(467,412,l),
(589,412,l),
(589,538,l),
(589,629,o),
(594,636,o),
(685,636,c),
(768,636,o),
(841,624,o),
(911,611,c),
(911,725,l),
(874,732,o),
(751,752,o),
(653,752,c)
);
},
{
closed = 1;
nodes = (
(341,517,l),
(341,415,l),
(911,415,l),
(911,517,l)
);
},
{
closed = 1;
nodes = (
(911,0,l),
(911,650,l),
(789,650,l),
(789,0,l)
);
}
);
width = 996;
},
{
layerId = "0DC1F6FB-20EC-4E8F-AE98-F98B5FD714DE";
shapes = (
{
closed = 1;
nodes = (
(112,0,l),
(148,0,l),
(148,528,l),
(112,528,l)
);
},
{
closed = 1;
nodes = (
(268,751,l),
(144,751,o),
(112,716,o),
(112,585,c),
(112,412,l),
(148,412,l),
(148,578,ls),
(148,653,o),
(141,720,o),
(259,716,c),
(296,716,l),
(296,751,l)
);
},
{
closed = 1;
nodes = (
(16,530,l),
(16,498,l),
(296,498,l),
(296,530,l)
);
},
{
closed = 1;
nodes = (
(386,0,l),
(422,0,l),
(422,528,l),
(386,528,l)
);
},
{
closed = 1;
nodes = (
(418,751,o),
(386,716,o),
(386,585,c),
(386,412,l),
(422,412,l),
(422,578,ls),
(422,653,o),
(415,720,o),
(533,716,c),
(601,716,o),
(655,703,o),
(684,694,c),
(684,731,l),
(637,742,o),
(601,749,o),
(542,751,c)
);
},
{
closed = 1;
nodes = (
(290,530,l),
(290,498,l),
(684,498,l),
(684,530,l)
);
},
{
closed = 1;
nodes = (
(684,0,l),
(684,709,l),
(648,709,l),
(648,0,l)
);
}
);
width = 764;
}
);
unicode = 64260;
},
{
color = 4;
glyphname = fi;
layers = (
{
layerId = "B3961A9D-C6DC-4F74-9770-9C992C479D86";
shapes = (
{
closed = 1;
nodes = (
(157,0,l),
(279,0,l),
(279,528,l),
(157,528,l)
);
},
{
closed = 1;
nodes = (
(343,752,l),
(206,755,o),
(157,713,o),
(157,545,c),
(157,412,l),
(279,412,l),
(279,538,l),
(279,629,o),
(284,636,o),
(375,636,c),
(397,636,l),
(397,751,l)
);
},
{
closed = 1;
nodes = (
(31,517,l),
(31,415,l),
(601,415,l),
(601,517,l)
);
},
{
closed = 1;
nodes = (
(601,0,l),
(601,498,l),
(479,498,l),
(479,0,l)
);
}
);
width = 668;
},
{
layerId = "0DC1F6FB-20EC-4E8F-AE98-F98B5FD714DE";
shapes = (
{
closed = 1;
nodes = (
(112,0,l),
(148,0,l),
(148,528,l),
(112,528,l)
);
},
{
closed = 1;
nodes = (
(268,751,l),
(144,751,o),
(112,716,o),
(112,585,c),
(112,412,l),
(148,412,l),
(148,578,ls),
(148,653,o),
(141,720,o),
(259,716,c),
(296,716,l),
(296,751,l)
);
},
{
closed = 1;
nodes = (
(16,530,l),
(16,498,l),
(410,498,l),
(410,530,l)
);
},
{
closed = 1;
nodes = (
(410,0,l),
(410,528,l),
(374,528,l),
(374,0,l)
);
}
);
width = 472;
}
);
unicode = 64257;
},
{
color = 4;
glyphname = fl;
layers = (
{
layerId = "B3961A9D-C6DC-4F74-9770-9C992C479D86";
shapes = (
{
closed = 1;
nodes = (
(157,0,l),
(279,0,l),
(279,528,l),
(157,528,l)
);
},
{
closed = 1;
nodes = (
(206,755,o),
(157,713,o),
(157,545,c),
(157,412,l),
(279,412,l),
(279,538,l),
(279,629,o),
(284,636,o),
(375,636,c),
(458,636,o),
(531,624,o),
(601,611,c),
(601,725,l),
(564,732,o),
(441,752,o),
(343,752,c)
);
},
{
closed = 1;
nodes = (
(31,517,l),
(31,415,l),
(601,415,l),
(601,517,l)
);
},
{
closed = 1;
nodes = (
(601,0,l),
(601,650,l),
(479,650,l),
(479,0,l)
);
}
);
width = 686;
},
{
layerId = "0DC1F6FB-20EC-4E8F-AE98-F98B5FD714DE";
shapes = (
{
closed = 1;
nodes = (
(112,0,l),
(148,0,l),
(148,528,l),
(112,528,l)
);
},
{
closed = 1;
nodes = (
(144,751,o),
(112,716,o),
(112,585,c),
(112,412,l),
(148,412,l),
(148,578,ls),
(148,653,o),
(141,720,o),
(259,716,c),
(327,716,o),
(381,703,o),
(410,694,c),
(410,731,l),
(363,742,o),
(327,749,o),
(268,751,c)
);
},
{
closed = 1;
nodes = (
(16,530,l),
(16,498,l),
(410,498,l),
(410,530,l)
);
},
{
closed = 1;
nodes = (
(410,0,l),
(410,709,l),
(374,709,l),
(374,0,l)
);
}
);
width = 490;
}
);
unicode = 64258;
},
{
color = 4;
glyphname = s_t;
layers = (
{
layerId = "B3961A9D-C6DC-4F74-9770-9C992C479D86";
shapes = (
{
closed = 1;
nodes = (
(845,0,l),
(845,116,l),
(823,116,ls),
(732,116,o),
(727,123,o),
(727,214,cs),
(727,374,l),
(605,374,l),
(605,207,ls),
(605,39,o),
(654,0,o),
(791,0,cs)
);
},
{
closed = 1;
nodes = (
(727,223,l),
(727,597,ls),
(727,703,o),
(716,803,o),
(509,803,cs),
(288,803,o),
(317,577,o),
(318,493,c),
(418,485,l),
(418,579,o),
(406,703,o),
(508,703,cs),
(598,703,o),
(605,655,o),
(605,590,cs),
(605,223,l)
);
},
{
closed = 1;
nodes = (
(845,415,l),
(845,517,l),
(509,517,l),
(509,415,l)
);
},
{
closed = 1;
nodes = (
(349,-8,o),
(432,24,o),
(432,135,cs),
(432,248,o),
(370,271,o),
(278,296,cs),
(185,321,o),
(160,334,o),
(161,383,cs),
(162,426,o),
(194,439,o),
(251,439,cs),
(299,439,o),
(371,425,o),
(418,409,c),
(418,502,l),
(360,525,o),
(307,533,o),
(248,535,cs),
(129,539,o),
(41,496,o),
(41,391,cs),
(41,303,o),
(60,245,o),
(243,203,cs),
(282,194,o),
(312,178,o),
(311,136,cs),
(310,98,o),
(291,79,o),
(226,82,cs),
(170,84,o),
(116,95,o),
(59,112,c),
(59,18,l),
(114,3,o),
(177,-8,o),
(233,-8,cs)
);
}
);
width = 888;
},
{
layerId = "0DC1F6FB-20EC-4E8F-AE98-F98B5FD714DE";
shapes = (
{
closed = 1;
nodes = (
(734,0,l),
(734,35,l),
(693,35,ls),
(600,35,o),
(603,98,o),
(603,173,cs),
(603,339,l),
(567,339,l),
(567,155,ls),
(567,51,o),
(583,0,o),
(702,0,cs)
);
},
{
closed = 1;
nodes = (
(603,223,l),
(603,597,ls),
(603,703,o),
(558,743,o),
(463,744,cs),
(318,744,o),
(330,597,o),
(331,513,c),
(365,505,l),
(365,599,o),
(361,709,o),
(463,709,cs),
(553,709,o),
(567,655,o),
(567,590,cs),
(567,223,l)
);
},
{
closed = 1;
nodes = (
(734,498,l),
(734,530,l),
(454,530,l),
(454,498,l)
);
},
{
closed = 1;
nodes = (
(300,-8,o),
(380,25,o),
(385,128,cs),
(390,226,o),
(313,256,o),
(221,281,cs),
(128,306,o),
(67,326,o),
(68,405,cs),
(69,458,o),
(112,505,o),
(221,502,cs),
(272,501,o),
(316,494,o),
(365,475,c),
(365,512,l),
(330,525,o),
(283,537,o),
(222,538,cs),
(115,540,o),
(35,500,o),
(32,408,cs),
(30,346,o),
(45,285,o),
(213,246,cs),
(252,237,o),
(359,208,o),
(349,127,cs),
(344,89,o),
(324,22,o),
(177,28,cs),
(131,30,o),
(85,36,o),
(37,48,c),
(37,10,l),
(84,-1,o),
(130,-8,o),
(176,-8,cs)
);
}
);
width = 757;
}
);
unicode = 64262;
},
{
color = 4;
glyphname = pi;
layers = (
{
guides = (
{
pos = (0,528);
}
);
layerId = "B3961A9D-C6DC-4F74-9770-9C992C479D86";
shapes = (
{
closed = 1;
nodes = (
(126,0,l),
(248,0,l),
(248,518,l),
(126,518,l)
);
},
{
closed = 1;
nodes = (
(35,528,l),
(35,414,l),
(635,414,l),
(635,528,l)
);
},
{
closed = 1;
nodes = (
(422,109,l),
(422,30,o),
(434,0,o),
(507,0,c),
(591,0,l),
(591,106,l),
(544,106,l),
(544,518,l),
(422,518,l)
);
}
);
width = 676;
},
{
guides = (
{
pos = (0,528);
}
);
layerId = "0DC1F6FB-20EC-4E8F-AE98-F98B5FD714DE";
shapes = (
{
closed = 1;
nodes = (
(107,0,l),
(143,0,l),
(143,518,l),
(107,518,l)
);
},
{
closed = 1;
nodes = (
(16,528,l),
(16,492,l),
(560,492,l),
(560,528,l)
);
},
{
closed = 1;
nodes = (
(433,36,l),
(433,13,o),
(440,0,o),
(469,0,c),
(516,0,l),
(516,36,l),
(469,36,l),
(469,518,l),
(433,518,l)
);
}
);
width = 578;
}
);
unicode = 960;
},
{
color = 3;
glyphname = vowelA.dv;
kernLeft = vowelShortA.dv;
kernRight = Chandrabindu.dv;
layers = (
{
anchors = (
{
name = bottom;
pos = (649,0);
},
{
name = candra;
pos = (337,795);
},
{
name = nukta;
pos = (227,0);
},
{
name = top;
pos = (684,701);
}
);
guides = (
{
angle = 90;
pos = (125,0);
},
{
pos = (0,14);
}
);
layerId = "B3961A9D-C6DC-4F74-9770-9C992C479D86";
shapes = (
{
closed = 1;
nodes = (
(94,578,l),
(133,590,o),
(175,594,o),
(199,594,cs),
(260,594,o),
(283,581,o),
(284,546,cs),
(285,491,ls),
(285,471,o),
(287,440,o),
(253,440,cs),
(171,440,l),
(171,338,l),
(253,338,ls),
(279,338,o),
(295,329,o),
(295,300,cs),
(295,239,ls),
(295,174,o),
(250,167,o),
(214,167,cs),
(192,167,o),
(145,169,o),
(79,205,c),
(29,110,l),
(86,74,o),
(150,57,o),
(215,54,c),
(369,48,o),
(430,105,o),
(430,224,cs),
(430,246,ls),
(430,278,o),
(431,290,o),
(411,306,c),
(414,310,l),
(451,288,o),
(506,277,o),
(570,300,c),
(570,0,l),
(706,0,l),
(706,592,l),
(813,592,l),
(813,701,l),
(570,701,l),
(570,420,l),
(513,383,o),
(415,388,o),
(382,405,c),
(382,409,l),
(412,411,o),
(419,429,o),
(419,472,cs),
(419,567,ls),
(419,691,o),
(317,713,o),
(216,713,cs),
(168,713,o),
(132,710,o),
(65,687,c)
);
}
);
width = 783;
},
{
anchors = (
{
name = bottom;
pos = (520,0);
},
{
name = candra;
pos = (402,700);
},
{
name = nukta;
pos = (165,0);
},
{
name = top;
pos = (526,699);
}
);
guides = (
{
angle = 90;
pos = (47,0);
},
{
pos = (0,6);
},
{
pos = (0,11);
}
);
layerId = "0DC1F6FB-20EC-4E8F-AE98-F98B5FD714DE";
shapes = (
{
closed = 1;
nodes = (
(55,643,l),
(96,661,o),
(160,668,o),
(194,668,cs),
(259,668,o),
(301,650,o),
(302,589,cs),
(303,502,ls),
(303,476,o),
(303,405,o),
(197,405,cs),
(86,405,l),
(86,370,l),
(197,370,ls),
(243,370,o),
(315,364,o),
(315,273,cs),
(315,214,ls),
(315,147,o),
(277,88,o),
(165,88,cs),
(118,88,o),
(80,98,o),
(34,118,c),
(20,84,l),
(62,66,o),
(95,55,o),
(165,52,c),
(253,52,o),
(350,87,o),
(350,214,cs),
(350,283,ls),
(350,308,o),
(347,334,o),
(325,351,c),
(328,354,l),
(380,327,o),
(474,328,o),
(501,361,c),
(501,0,l),
(537,0,l),
(537,664,l),
(646,664,l),
(646,700,l),
(501,700,l),
(501,400,l),
(457,349,o),
(324,373,o),
(282,389,c),
(282,393,l),
(310,401,o),
(339,425,o),
(339,486,cs),
(339,589,ls),
(339,662,o),
(302,705,o),
(194,705,cs),
(142,705,o),
(102,699,o),
(51,681,c)
);
}
);
width = 616;
}
);
unicode = 2309;
},
{
color = 3;
glyphname = vowelChandraA.dv;
kernLeft = vowelShortA.dv;
kernRight = Chandrabindu.dv;
layers = (
{
anchors = (
{
name = bottom;
pos = (649,0);
},
{
name = candra;
pos = (337,795);
},
{
name = nukta;
pos = (222,0);
},
{
name = top;
pos = (684,701);
}
);
guides = (
{
pos = (0,14);
},
{
pos = (0,775);
}
);
layerId = "B3961A9D-C6DC-4F74-9770-9C992C479D86";
shapes = (
{
closed = 1;
nodes = (
(94,578,l),
(133,590,o),
(175,594,o),
(199,594,cs),
(260,594,o),
(283,581,o),
(284,546,cs),
(285,491,ls),
(285,471,o),
(287,440,o),
(253,440,cs),
(171,440,l),
(171,338,l),
(253,338,ls),
(279,338,o),
(295,329,o),
(295,300,cs),
(295,239,ls),
(295,174,o),
(250,167,o),
(214,167,cs),
(192,167,o),
(145,169,o),
(79,205,c),
(29,110,l),
(86,74,o),
(150,57,o),
(215,54,c),
(369,48,o),
(430,105,o),
(430,224,cs),
(430,246,ls),
(430,278,o),
(431,290,o),
(411,306,c),
(414,310,l),
(451,288,o),
(506,277,o),
(570,300,c),
(570,0,l),
(706,0,l),
(706,592,l),
(813,592,l),
(813,701,l),
(570,701,l),
(570,420,l),
(513,383,o),
(415,388,o),
(382,405,c),
(382,409,l),
(412,411,o),
(419,429,o),
(419,472,cs),
(419,567,ls),
(419,691,o),
(317,713,o),
(216,713,cs),
(168,713,o),
(132,710,o),
(65,687,c)
);
},
{
closed = 1;
nodes = (
(777,980,l),
(776,929,o),
(747,891,o),
(693,891,cs),
(644,891,ls),
(590,891,o),
(562,930,o),
(560,980,c),
(444,974,l),
(449,874,o),
(497,775,o),
(634,775,cs),
(703,775,ls),
(835,775,o),
(889,868,o),
(893,974,c)
);
}
);
width = 783;
},
{
anchors = (
{
name = bottom;
pos = (521,0);
},
{
name = candra;
pos = (421,700);
},
{
name = nukta;
pos = (165,0);
},
{
name = top;
pos = (526,700);
}
);
layerId = "0DC1F6FB-20EC-4E8F-AE98-F98B5FD714DE";
shapes = (
{
closed = 1;
nodes = (
(55,643,l),
(96,661,o),
(160,668,o),
(194,668,cs),
(259,668,o),
(301,650,o),
(302,589,cs),
(303,502,ls),
(303,476,o),
(303,405,o),
(197,405,cs),
(86,405,l),
(86,370,l),
(197,370,ls),
(243,370,o),
(315,364,o),
(315,273,cs),
(315,214,ls),
(315,147,o),
(277,88,o),
(165,88,cs),
(118,88,o),
(80,98,o),
(34,118,c),
(20,84,l),
(62,66,o),
(95,55,o),
(165,52,c),
(253,52,o),
(350,87,o),
(350,214,cs),
(350,283,ls),
(350,308,o),
(347,334,o),
(325,351,c),
(328,354,l),
(380,327,o),
(474,328,o),
(501,361,c),
(501,0,l),
(537,0,l),
(537,664,l),
(646,664,l),
(646,700,l),
(501,700,l),
(501,400,l),
(457,349,o),
(324,373,o),
(282,389,c),
(282,393,l),
(310,401,o),
(339,425,o),
(339,486,cs),
(339,589,ls),
(339,662,o),
(302,705,o),
(194,705,cs),
(142,705,o),
(102,699,o),
(51,681,c)
);
},
{
closed = 1;
nodes = (
(649,915,l),
(649,832,o),
(614,800,o),
(538,800,cs),
(526,800,ls),
(450,800,o),
(417,832,o),
(415,915,c),
(379,909,l),
(384,855,o),
(390,764,o),
(526,764,cs),
(538,764,ls),
(671,764,o),
(680,849,o),
(685,909,c)
);
}
);
width = 616;
}
);
unicode = 2418;
},
{
color = 3;
glyphname = vowelShortA.dv;
kernLeft = vowelShortA.dv;
kernRight = Chandrabindu.dv;
layers = (
{
anchors = (
{
name = bottom;
pos = (649,0);
},
{
name = candra;
pos = (392,1130);
},
{
name = nukta;
pos = (237,0);
},
{
name = top;
pos = (684,701);
}
);
guides = (
{
pos = (0,14);
}
);
layerId = "B3961A9D-C6DC-4F74-9770-9C992C479D86";
shapes = (
{
closed = 1;
nodes = (
(94,578,l),
(133,590,o),
(175,594,o),
(199,594,cs),
(260,594,o),
(283,581,o),
(284,546,cs),
(285,491,ls),
(285,471,o),
(287,440,o),
(253,440,cs),
(171,440,l),
(171,338,l),
(253,338,ls),
(279,338,o),
(295,329,o),
(295,300,cs),
(295,239,ls),
(295,174,o),
(250,167,o),
(214,167,cs),
(192,167,o),
(145,169,o),
(79,205,c),
(29,110,l),
(86,74,o),
(150,57,o),
(215,54,c),
(369,48,o),
(430,105,o),
(430,224,cs),
(430,246,ls),
(430,278,o),
(431,290,o),
(411,306,c),
(414,310,l),
(451,288,o),
(506,277,o),
(570,300,c),
(570,0,l),
(706,0,l),
(706,592,l),
(813,592,l),
(813,701,l),
(570,701,l),
(570,420,l),
(513,383,o),
(415,388,o),
(382,405,c),
(382,409,l),
(412,411,o),
(419,429,o),
(419,472,cs),
(419,567,ls),
(419,691,o),
(317,713,o),
(216,713,cs),
(168,713,o),
(132,710,o),
(65,687,c)
);
},
{
closed = 1;
nodes = (
(704,694,l),
(704,707,l),
(697,851,o),
(622,892,o),
(501,913,cs),
(396,931,o),
(375,970,o),
(374,1021,c),
(239,1021,l),
(246,870,o),
(322,821,o),
(443,802,cs),
(552,785,o),
(569,745,o),
(570,694,c)
);
}
);
width = 783;
},
{
anchors = (
{
name = bottom;
pos = (520,0);
},
{
name = candra;
pos = (315,700);
},
{
name = nukta;
pos = (165,0);
},
{
name = top;
pos = (526,700);
}
);
layerId = "0DC1F6FB-20EC-4E8F-AE98-F98B5FD714DE";
shapes = (
{
closed = 1;
nodes = (
(55,643,l),
(96,661,o),
(160,668,o),
(194,668,cs),
(259,668,o),
(301,650,o),
(302,589,cs),
(303,502,ls),
(303,476,o),
(303,405,o),
(197,405,cs),
(86,405,l),
(86,370,l),
(197,370,ls),
(243,370,o),
(315,364,o),
(315,273,cs),
(315,214,ls),
(315,147,o),
(277,88,o),
(165,88,cs),
(118,88,o),
(80,98,o),
(34,118,c),
(20,84,l),
(62,66,o),
(95,55,o),
(165,52,c),
(253,52,o),
(350,87,o),
(350,214,cs),
(350,283,ls),
(350,308,o),
(347,334,o),
(325,351,c),
(328,354,l),
(380,327,o),
(474,328,o),
(501,361,c),
(501,0,l),
(537,0,l),
(537,664,l),
(646,664,l),
(646,700,l),
(501,700,l),
(501,400,l),
(457,349,o),
(324,373,o),
(282,389,c),
(282,393,l),
(310,401,o),
(339,425,o),
(339,486,cs),
(339,589,ls),
(339,662,o),
(302,705,o),
(194,705,cs),
(142,705,o),
(102,699,o),
(51,681,c)
);
},
{
closed = 1;
nodes = (
(537,698,l),
(537,708,ls),
(537,793,o),
(469,816,o),
(368,837,cs),
(263,859,o),
(267,874,o),
(261,925,c),
(226,925,l),
(233,831,o),
(269,819,o),
(370,800,cs),
(479,780,o),
(500,749,o),
(501,698,c)
);
}
);
width = 616;
}
);
unicode = 2308;
},
{
color = 3;
glyphname = vowelAa.dv;
kernLeft = vowelShortA.dv;
kernRight = Chandrabindu.dv;
layers = (
{
anchors = (
{
name = bottom;
pos = (965,0);
},
{
name = candra;
pos = (550,1130);
},
{
name = nukta;
pos = (237,0);
},
{
name = top;
pos = (997,701);
}
);
guides = (
{
pos = (0,14);
}
);
layerId = "B3961A9D-C6DC-4F74-9770-9C992C479D86";
shapes = (
{
closed = 1;
nodes = (
(706,0,l),
(706,592,l),
(886,592,l),
(886,0,l),
(1022,0,l),
(1022,592,l),
(1129,592,l),
(1129,701,l),
(570,701,l),
(570,420,l),
(513,385,o),
(415,392,o),
(382,405,c),
(382,409,l),
(412,411,o),
(419,429,o),
(419,472,cs),
(419,567,ls),
(419,691,o),
(317,713,o),
(216,713,cs),
(168,713,o),
(132,710,o),
(65,687,c),
(94,578,l),
(133,590,o),
(175,594,o),
(199,594,cs),
(260,594,o),
(283,581,o),
(284,546,cs),
(285,491,ls),
(285,471,o),
(287,440,o),
(253,440,cs),
(171,440,l),
(171,338,l),
(253,338,ls),
(279,338,o),
(295,329,o),
(295,300,cs),
(295,239,ls),
(295,174,o),
(250,167,o),
(214,167,cs),
(192,167,o),
(145,169,o),
(79,205,c),
(29,110,l),
(86,74,o),
(150,57,o),
(215,54,cs),
(369,48,o),
(430,105,o),
(430,224,cs),
(430,246,ls),
(430,278,o),
(431,290,o),
(411,306,c),
(414,310,l),
(451,288,o),
(506,277,o),
(570,300,c),
(570,0,l)
);
}
);
width = 1099;
},
{
anchors = (
{
name = bottom;
pos = (722,0);
},
{
name = candra;
pos = (578,700);
},
{
name = nukta;
pos = (165,0);
},
{
name = top;
pos = (727,700);
}
);
guides = (
{
pos = (0,6);
}
);
layerId = "0DC1F6FB-20EC-4E8F-AE98-F98B5FD714DE";
shapes = (
{
closed = 1;
nodes = (
(537,0,l),
(537,664,l),
(703,664,l),
(703,0,l),
(739,0,l),
(739,664,l),
(848,664,l),
(848,700,l),
(501,700,l),
(501,400,l),
(457,349,o),
(324,373,o),
(282,389,c),
(282,393,l),
(310,401,o),
(339,425,o),
(339,486,cs),
(339,589,ls),
(339,662,o),
(302,705,o),
(194,705,cs),
(142,705,o),
(102,699,o),
(51,681,c),
(55,643,l),
(96,661,o),
(160,668,o),
(194,668,cs),
(259,668,o),
(301,650,o),
(302,589,cs),
(303,502,ls),
(303,476,o),
(303,405,o),
(197,405,cs),
(86,405,l),
(86,370,l),
(197,370,ls),
(243,370,o),
(315,364,o),
(315,273,cs),
(315,214,ls),
(315,147,o),
(277,88,o),
(165,88,cs),
(118,88,o),
(80,98,o),
(34,118,c),
(20,84,l),
(62,66,o),
(95,55,o),
(165,52,c),
(253,52,o),
(350,87,o),
(350,214,cs),
(350,283,ls),
(350,308,o),
(347,334,o),
(325,351,c),
(328,354,l),
(380,327,o),
(474,328,o),
(501,361,c),
(501,0,l)
);
}
);
width = 818;
}
);
unicode = 2310;
},
{
color = 3;
glyphname = vowelI.dv;
kernLeft = vowelI.dv;
kernRight = Chandrabindu.dv;
layers = (
{
anchors = (
{
name = bottom;
pos = (232,-86);
},
{
name = candra;
pos = (251,1130);
},
{
name = nukta;
pos = (7,-45);
},
{
name = top;
pos = (397,701);
}
);
layerId = "B3961A9D-C6DC-4F74-9770-9C992C479D86";
shapes = (
{
closed = 1;
nodes = (
(151,-169,o),
(197,-162,o),
(243,-155,c),
(234,-105,o),
(221,-43,o),
(212,7,c),
(404,-19,o),
(463,19,o),
(463,135,cs),
(463,145,ls),
(463,245,o),
(392,277,o),
(321,293,cs),
(248,309,o),
(175,310,o),
(175,350,cs),
(175,355,ls),
(175,387,o),
(197,391,o),
(223,391,cs),
(420,391,l),
(420,592,l),
(531,592,l),
(531,701,l),
(-30,701,l),
(-30,592,l),
(284,592,l),
(284,502,l),
(214,502,ls),
(93,502,o),
(47,459,o),
(47,376,cs),
(47,355,ls),
(47,246,o),
(134,217,o),
(211,202,cs),
(273,189,o),
(330,185,o),
(330,153,cs),
(330,147,ls),
(330,116,o),
(322,103,o),
(254,103,cs),
(243,103,o),
(224,103,o),
(194,112,c),
(178,194,l),
(88,196,o),
(41,169,o),
(46,92,cs),
(48,68,o),
(50,16,o),
(127,7,c),
(127,4,l),
(99,-41,o),
(94,-102,o),
(105,-176,c)
);
}
);
width = 501;
},
{
anchors = (
{
name = bottom;
pos = (158,-87);
},
{
name = candra;
pos = (135,700);
},
{
name = nukta;
pos = (25,-30);
},
{
name = top;
pos = (393,700);
}
);
layerId = "0DC1F6FB-20EC-4E8F-AE98-F98B5FD714DE";
shapes = (
{
closed = 1;
nodes = (
(162,-98,o),
(126,-106,o),
(162,-98,c),
(152,-59,o),
(141,-19,o),
(131,20,c),
(330,-23,o),
(441,12,o),
(441,150,cs),
(441,160,ls),
(441,276,o),
(343,293,o),
(248,298,cs),
(161,303,o),
(77,307,o),
(77,384,cs),
(77,393,ls),
(77,477,o),
(132,475,o),
(158,475,cs),
(404,475,l),
(404,664,l),
(506,664,l),
(506,700,l),
(-30,700,l),
(-30,664,l),
(369,664,l),
(369,510,l),
(167,510,ls),
(81,510,o),
(42,483,o),
(42,400,cs),
(42,379,ls),
(42,275,o),
(154,264,o),
(254,262,cs),
(332,260,o),
(406,238,o),
(406,159,cs),
(406,155,ls),
(406,107,o),
(396,30,o),
(262,38,cs),
(167,44,o),
(142,51,o),
(121,58,c),
(97,153,l),
(74,150,o),
(24,133,o),
(35,82,cs),
(39,65,o),
(46,15,o),
(108,25,c),
(109,21,l),
(106,10,o),
(102,-22,o),
(126,-106,c)
);
}
);
width = 476;
}
);
unicode = 2311;
},
{
color = 3;
glyphname = vowelIi.dv;
kernLeft = vowelI.dv;
kernRight = Chandrabindu.dv;
layers = (
{
anchors = (
{
name = bottom;
pos = (222,-86);
},
{
name = candra;
pos = (278,1130);
},
{
name = nukta;
pos = (-2,-45);
},
{
name = top;
pos = (387,701);
}
);
layerId = "B3961A9D-C6DC-4F74-9770-9C992C479D86";
shapes = (
{
closed = 1;
nodes = (
(144,-169,o),
(190,-162,o),
(236,-155,c),
(227,-105,o),
(214,-43,o),
(205,7,c),
(397,-19,o),
(456,19,o),
(456,135,cs),
(456,145,ls),
(456,245,o),
(385,277,o),
(314,293,cs),
(241,309,o),
(168,310,o),
(168,350,cs),
(168,355,ls),
(168,387,o),
(190,391,o),
(216,391,cs),
(413,391,l),
(413,592,l),
(586,592,l),
(586,701,l),
(-30,701,l),
(-30,592,l),
(277,592,l),
(277,502,l),
(207,502,ls),
(86,502,o),
(40,459,o),
(40,376,cs),
(40,355,ls),
(40,246,o),
(127,217,o),
(204,202,cs),
(266,189,o),
(323,185,o),
(323,153,cs),
(323,147,ls),
(323,116,o),
(315,103,o),
(247,103,cs),
(236,103,o),
(217,103,o),
(187,112,c),
(171,194,l),
(81,196,o),
(34,169,o),
(39,92,cs),
(41,68,o),
(43,16,o),
(120,7,c),
(120,4,l),
(92,-41,o),
(87,-102,o),
(98,-176,c)
);
},
{
closed = 1;
nodes = (
(279,688,l),
(329,688,o),
(378,688,o),
(428,688,c),
(386,689,o),
(360,738,o),
(360,778,c),
(360,817,o),
(385,848,o),
(431,848,c),
(456,848,o),
(482,839,o),
(507,827,c),
(539,914,l),
(502,938,o),
(447,958,o),
(395,962,cs),
(282,970,o),
(229,908,o),
(228,810,c),
(228,774,o),
(242,731,o),
(279,701,c)
);
}
);
width = 556;
},
{
anchors = (
{
name = bottom;
pos = (158,-87);
},
{
name = candra;
pos = (167,700);
},
{
name = nukta;
pos = (25,-30);
},
{
name = top;
pos = (393,700);
}
);
guides = (
{
pos = (0,-82);
}
);
layerId = "0DC1F6FB-20EC-4E8F-AE98-F98B5FD714DE";
shapes = (
{
closed = 1;
nodes = (
(162,-98,o),
(126,-106,o),
(162,-98,c),
(152,-59,o),
(141,-19,o),
(131,20,c),
(330,-23,o),
(441,12,o),
(441,150,cs),
(441,160,ls),
(441,276,o),
(343,293,o),
(248,298,cs),
(161,303,o),
(77,307,o),
(77,384,cs),
(77,393,ls),
(77,477,o),
(132,475,o),
(158,475,cs),
(404,475,l),
(404,664,l),
(506,664,l),
(506,700,l),
(-30,700,l),
(-30,664,l),
(369,664,l),
(369,510,l),
(167,510,ls),
(81,510,o),
(42,483,o),
(42,400,cs),
(42,379,ls),
(42,275,o),
(154,264,o),
(254,262,cs),
(332,260,o),
(406,238,o),
(406,159,cs),
(406,155,ls),
(406,107,o),
(396,30,o),
(262,38,cs),
(167,44,o),
(142,51,o),
(121,58,c),
(97,153,l),
(74,150,o),
(24,133,o),
(35,82,cs),
(39,65,o),
(46,15,o),
(108,25,c),
(109,21,l),
(106,10,o),
(102,-22,o),
(126,-106,c)
);
},
{
closed = 1;
nodes = (
(367,697,l),
(382,697,o),
(404,697,o),
(410,697,c),
(367,715,o),
(342,752,o),
(342,794,cs),
(342,856,o),
(350,899,o),
(432,896,cs),
(457,895,o),
(493,886,o),
(526,860,c),
(546,888,l),
(517,915,o),
(470,929,o),
(433,931,cs),
(336,935,o),
(304,884,o),
(306,794,cs),
(308,722,o),
(351,706,o),
(367,702,c)
);
}
);
width = 476;
}
);
unicode = 2312;
},
{
color = 3;
glyphname = vowelU.dv;
kernLeft = vowelI.dv;
kernRight = Chandrabindu.dv;
layers = (
{
anchors = (
{
name = bottom;
pos = (253,11);
},
{
name = candra;
pos = (246,1130);
},
{
name = nukta;
pos = (252,-48);
},
{
name = top;
pos = (307,701);
}
);
guides = (
{
pos = (0,389);
},
{
pos = (0,14);
}
);
layerId = "B3961A9D-C6DC-4F74-9770-9C992C479D86";
shapes = (
{
closed = 1;
nodes = (
(26,60,l),
(81,26,o),
(148,6,o),
(209,4,cs),
(363,-2,o),
(429,55,o),
(429,174,cs),
(429,256,ls),
(429,313,o),
(410,332,o),
(381,337,c),
(381,341,l),
(410,346,o),
(418,370,o),
(418,413,cs),
(418,504,ls),
(418,547,o),
(409,574,o),
(381,588,c),
(381,592,l),
(521,592,l),
(521,701,l),
(-30,701,l),
(-30,592,l),
(188,592,ls),
(283,592,o),
(282,543,o),
(283,508,cs),
(284,441,ls),
(284,421,o),
(286,390,o),
(252,390,cs),
(128,390,l),
(128,288,l),
(252,288,ls),
(278,288,o),
(294,279,o),
(294,250,cs),
(294,189,ls),
(294,124,o),
(249,117,o),
(213,117,cs),
(192,117,o),
(138,123,o),
(76,155,c)
);
}
);
width = 491;
},
{
anchors = (
{
name = bottom;
pos = (176,25);
},
{
name = candra;
pos = (39,700);
},
{
name = nukta;
pos = (166,-30);
},
{
name = top;
pos = (262,700);
}
);
layerId = "0DC1F6FB-20EC-4E8F-AE98-F98B5FD714DE";
shapes = (
{
closed = 1;
nodes = (
(14,38,l),
(57,13,o),
(118,2,o),
(165,2,cs),
(281,2,o),
(348,49,o),
(348,169,cs),
(348,254,ls),
(348,316,o),
(310,345,o),
(281,350,c),
(281,354,l),
(318,369,o),
(337,409,o),
(337,455,cs),
(337,560,ls),
(337,603,o),
(328,647,o),
(300,661,c),
(300,664,l),
(439,664,l),
(439,700,l),
(-30,700,l),
(-30,664,l),
(213,664,ls),
(289,664,o),
(302,611,o),
(302,570,cs),
(302,464,ls),
(302,438,o),
(300,368,o),
(197,368,cs),
(94,368,l),
(94,333,l),
(197,333,ls),
(309,333,o),
(313,272,o),
(313,237,cs),
(313,169,ls),
(313,104,o),
(289,36,o),
(165,38,cs),
(144,38,o),
(85,43,o),
(29,71,c)
);
}
);
width = 409;
}
);
unicode = 2313;
},
{
color = 3;
glyphname = vowelUu.dv;
kernLeft = vowelI.dv;
kernRight = Chandrabindu.dv;
layers = (
{
anchors = (
{
name = candra;
pos = (382,1130);
},
{
name = nukta;
pos = (252,-48);
},
{
name = top;
pos = (319,701);
}
);
guides = (
{
pos = (0,65);
}
);
layerId = "B3961A9D-C6DC-4F74-9770-9C992C479D86";
shapes = (
{
closed = 1;
nodes = (
(26,60,l),
(81,26,o),
(148,6,o),
(209,4,cs),
(363,-2,o),
(429,55,o),
(429,174,cs),
(429,256,ls),
(429,313,o),
(410,332,o),
(381,337,c),
(381,341,l),
(410,346,o),
(418,370,o),
(418,413,cs),
(418,504,ls),
(418,547,o),
(409,574,o),
(381,588,c),
(381,592,l),
(793,592,l),
(793,701,l),
(-30,701,l),
(-30,592,l),
(188,592,ls),
(283,592,o),
(282,543,o),
(283,508,cs),
(284,441,ls),
(284,421,o),
(286,390,o),
(252,390,cs),
(120,390,l),
(120,288,l),
(252,288,ls),
(278,288,o),
(294,279,o),
(294,250,cs),
(294,189,ls),
(294,124,o),
(249,117,o),
(213,117,cs),
(192,117,o),
(138,123,o),
(76,155,c)
);
},
{
closed = 1;
nodes = (
(429,176,l),
(429,220,o),
(433,259,o),
(510,261,cs),
(552,262,o),
(586,257,o),
(586,202,cs),
(586,183,ls),
(586,142,o),
(574,134,o),
(544,134,cs),
(520,134,l),
(520,32,l),
(535,32,l),
(601,32,ls),
(674,32,o),
(721,65,o),
(721,171,cs),
(721,240,ls),
(721,346,o),
(650,373,o),
(565,373,cs),
(521,373,o),
(459,371,o),
(421,312,c),
(418,312,l)
);
}
);
width = 763;
},
{
anchors = (
{
name = candra;
pos = (30,700);
},
{
name = nukta;
pos = (166,-50);
},
{
name = top;
pos = (274,700);
}
);
layerId = "0DC1F6FB-20EC-4E8F-AE98-F98B5FD714DE";
shapes = (
{
closed = 1;
nodes = (
(14,38,l),
(57,13,o),
(118,2,o),
(165,2,cs),
(281,2,o),
(348,49,o),
(348,169,cs),
(348,254,ls),
(348,316,o),
(310,345,o),
(281,350,c),
(281,354,l),
(318,369,o),
(337,409,o),
(337,455,cs),
(337,560,ls),
(337,603,o),
(328,647,o),
(300,661,c),
(300,664,l),
(721,664,l),
(721,700,l),
(-30,700,l),
(-30,664,l),
(213,664,ls),
(289,664,o),
(302,611,o),
(302,570,cs),
(302,464,ls),
(302,438,o),
(300,368,o),
(197,368,cs),
(94,368,l),
(94,333,l),
(197,333,ls),
(309,333,o),
(313,272,o),
(313,237,cs),
(313,169,ls),
(313,104,o),
(289,36,o),
(165,38,cs),
(144,38,o),
(85,43,o),
(29,71,c)
);
},
{
closed = 1;
nodes = (
(348,238,l),
(348,310,o),
(398,339,o),
(494,342,cs),
(564,344,o),
(620,309,o),
(620,234,cs),
(620,153,ls),
(620,45,o),
(509,49,o),
(479,49,cs),
(438,49,l),
(438,14,l),
(470,14,l),
(496,14,ls),
(581,14,o),
(656,43,o),
(656,149,cs),
(656,226,ls),
(656,331,o),
(599,377,o),
(494,377,cs),
(438,377,o),
(370,365,o),
(337,310,c),
(334,310,l)
);
}
);
width = 691;
}
);
unicode = 2314;
},
{
color = 3;
glyphname = vowelRu.dv;
kernLeft = vowelI.dv;
kernRight = Chandrabindu.dv;
layers = (
{
anchors = (
{
name = bottom;
pos = (498,0);
},
{
name = candra;
pos = (461,1130);
},
{
name = nukta;
pos = (305,43);
},
{
name = top;
pos = (531,701);
}
);
layerId = "B3961A9D-C6DC-4F74-9770-9C992C479D86";
shapes = (
{
closed = 1;
nodes = (
(555,0,l),
(555,592,l),
(952,592,l),
(952,701,l),
(-30,701,l),
(-30,592,l),
(419,592,l),
(419,349,l),
(418,349,l),
(362,478,o),
(260,515,o),
(140,468,cs),
(82,445,o),
(25,410,o),
(25,410,c),
(91,295,l),
(114,308,o),
(153,332,o),
(176,342,cs),
(241,370,o),
(288,357,o),
(338,295,c),
(84,161,l),
(106,122,o),
(129,82,o),
(151,43,c),
(400,190,o),
(231,92,o),
(419,203,c),
(419,0,l)
);
},
{
closed = 1;
nodes = (
(636,49,l),
(782,42,o),
(881,83,o),
(881,196,cs),
(881,264,o),
(859,305,o),
(832,341,c),
(856,370,o),
(854,397,o),
(832,441,cs),
(828,449,ls),
(789,527,o),
(742,516,o),
(652,472,c),
(698,378,l),
(642,334,o),
(567,320,o),
(461,327,c),
(460,239,l),
(532,229,o),
(651,226,o),
(748,287,c),
(755,271,o),
(759,253,o),
(757,231,cs),
(754,187,o),
(714,171,o),
(625,164,c)
);
}
);
width = 922;
},
{
anchors = (
{
name = bottom;
pos = (431,0);
},
{
name = candra;
pos = (195,700);
},
{
name = nukta;
pos = (289,25);
},
{
name = top;
pos = (435,700);
}
);
layerId = "0DC1F6FB-20EC-4E8F-AE98-F98B5FD714DE";
shapes = (
{
closed = 1;
nodes = (
(448,0,l),
(448,664,l),
(827,664,l),
(827,700,l),
(-30,700,l),
(-30,664,l),
(413,664,l),
(413,359,l),
(412,359,l),
(346,488,o),
(253,544,o),
(129,495,cs),
(71,472,o),
(15,436,o),
(15,436,c),
(32,406,l),
(100,444,o),
(120,454,o),
(143,463,cs),
(270,513,o),
(346,416,o),
(399,327,c),
(118,145,l),
(137,115,o),
(118,145,o),
(137,115,c),
(229,175,o),
(321,235,o),
(413,295,c),
(413,0,l)
);
},
{
closed = 1;
nodes = (
(544,109,l),
(677,112,o),
(766,152,o),
(760,255,cs),
(757,308,o),
(745,334,o),
(724,386,c),
(750,403,o),
(767,415,o),
(745,458,cs),
(737,474,ls),
(717,514,o),
(689,507,o),
(645,480,c),
(683,401,l),
(612,350,o),
(551,333,o),
(441,350,c),
(440,322,l),
(511,302,o),
(621,311,o),
(696,373,c),
(715,334,o),
(725,300,o),
(727,258,cs),
(732,159,o),
(633,148,o),
(539,140,c)
);
}
);
width = 797;
}
);
unicode = 2315;
},
{
color = 3;
glyphname = vowelRuu.dv;
kernLeft = vowelI.dv;
kernRight = Chandrabindu.dv;
layers = (
{
anchors = (
{
name = bottom;
pos = (499,0);
},
{
name = candra;
pos = (485,1130);
},
{
name = nukta;
pos = (305,43);
},
{
name = top;
pos = (533,701);
}
);
layerId = "B3961A9D-C6DC-4F74-9770-9C992C479D86";
shapes = (
{
closed = 1;
nodes = (
(556,0,l),
(556,592,l),
(999,592,l),
(999,701,l),
(-30,701,l),
(-30,592,l),
(420,592,l),
(420,349,l),
(419,349,l),
(363,478,o),
(261,515,o),
(141,468,cs),
(83,445,o),
(26,410,o),
(26,410,c),
(92,295,l),
(115,308,o),
(154,332,o),
(177,342,cs),
(242,370,o),
(289,357,o),
(339,295,c),
(85,161,l),
(107,122,o),
(130,82,o),
(152,43,c),
(401,190,o),
(232,92,o),
(420,203,c),
(420,0,l)
);
},
{
closed = 1;
nodes = (
(937,92,l),
(792,67,o),
(772,82,o),
(769,122,cs),
(765,168,o),
(787,176,o),
(821,177,c),
(848,179,o),
(854,179,o),
(874,180,c),
(902,206,l),
(891,232,o),
(881,258,o),
(870,284,cs),
(833,370,o),
(870,284,o),
(833,370,c),
(857,399,o),
(855,426,o),
(833,470,cs),
(832,473,o),
(830,475,o),
(829,478,cs),
(790,556,o),
(743,545,o),
(653,501,c),
(699,407,l),
(643,363,o),
(568,349,o),
(462,356,c),
(461,268,l),
(533,258,o),
(652,255,o),
(749,316,c),
(753,307,o),
(761,286,o),
(768,266,c),
(764,266,o),
(764,266,o),
(758,266,cs),
(675,266,o),
(652,202,o),
(655,118,c),
(663,-9,o),
(729,-41,o),
(937,-4,c)
);
}
);
width = 969;
},
{
anchors = (
{
name = bottom;
pos = (431,0);
},
{
name = candra;
pos = (556,700);
},
{
name = nukta;
pos = (287,25);
},
{
name = top;
pos = (435,700);
}
);
layerId = "0DC1F6FB-20EC-4E8F-AE98-F98B5FD714DE";
shapes = (
{
closed = 1;
nodes = (
(448,0,l),
(448,664,l),
(933,664,l),
(933,700,l),
(-30,700,l),
(-30,664,l),
(413,664,l),
(413,359,l),
(412,359,l),
(346,488,o),
(253,544,o),
(129,495,cs),
(71,472,o),
(15,436,o),
(15,436,c),
(32,406,l),
(100,444,o),
(120,454,o),
(143,463,cs),
(270,513,o),
(346,416,o),
(399,327,c),
(118,145,l),
(137,115,o),
(118,145,o),
(137,115,c),
(229,175,o),
(321,235,o),
(413,295,c),
(413,0,l)
);
},
{
closed = 1;
nodes = (
(906,64,l),
(791,37,o),
(601,1,o),
(596,131,cs),
(593,210,o),
(652,232,o),
(693,234,cs),
(736,236,o),
(733,237,o),
(756,238,c),
(775,272,l),
(737,358,o),
(756,315,o),
(746,336,cs),
(743,343,o),
(737,358,o),
(724,386,c),
(750,403,o),
(767,415,o),
(745,458,cs),
(742,463,o),
(740,469,o),
(737,474,cs),
(717,514,o),
(689,507,o),
(645,480,c),
(683,401,l),
(612,350,o),
(551,333,o),
(441,350,c),
(440,322,l),
(511,302,o),
(621,311,o),
(696,373,c),
(709,343,o),
(731,295,o),
(742,270,c),
(729,270,o),
(713,269,o),
(692,268,cs),
(595,263,o),
(558,204,o),
(561,130,cs),
(568,-33,o),
(764,-4,o),
(908,27,c)
);
}
);
width = 903;
}
);
unicode = 2400;
},
{
color = 3;
glyphname = vowelLru.dv;
kernLeft = vowelI.dv;
layers = (
{
anchors = (
{
name = bottom;
pos = (595,-63);
},
{
name = candra;
pos = (393,1130);
},
{
name = nukta;
pos = (185,-61);
},
{
name = top;
pos = (536,701);
}
);
guides = (
{
pos = (0,460);
}
);
layerId = "B3961A9D-C6DC-4F74-9770-9C992C479D86";
shapes = (
{
closed = 1;
nodes = (
(658,-79,o),
(707,-67,o),
(760,-32,c),
(716,67,l),
(692,51,o),
(652,34,o),
(622,34,c),
(598,34,o),
(570,41,o),
(570,69,c),
(570,88,o),
(581,116,o),
(595,150,cs),
(614,193,o),
(639,260,o),
(639,327,c),
(639,385,o),
(614,425,o),
(559,446,c),
(559,632,l),
(423,632,l),
(423,456,l),
(389,450,o),
(362,432,o),
(345,402,c),
(342,402,l),
(315,445,o),
(263,460,o),
(208,460,c),
(108,460,o),
(43,411,o),
(43,300,c),
(43,227,o),
(64,157,o),
(96,0,c),
(230,0,l),
(188,169,o),
(175,220,o),
(175,285,c),
(175,328,o),
(188,350,o),
(228,350,c),
(273,350,o),
(285,324,o),
(285,284,c),
(285,160,l),
(397,160,l),
(401,284,l),
(401,324,o),
(414,350,o),
(457,350,c),
(487,350,o),
(514,337,o),
(509,294,cs),
(506,264,o),
(490,223,o),
(473,177,cs),
(459,139,o),
(454,129,o),
(445,97,cs),
(408,-32,o),
(500,-81,o),
(605,-80,cs)
);
},
{
closed = 1;
nodes = (
(815,592,l),
(815,701,l),
(-30,701,l),
(-30,592,l)
);
}
);
width = 785;
},
{
anchors = (
{
name = bottom;
pos = (494,-15);
},
{
name = candra;
pos = (495,700);
},
{
name = nukta;
pos = (143,-58);
},
{
name = top;
pos = (398,700);
}
);
guides = (
{
pos = (0,191);
},
{
pos = (0,460);
}
);
layerId = "0DC1F6FB-20EC-4E8F-AE98-F98B5FD714DE";
shapes = (
{
closed = 1;
nodes = (
(530,-23,o),
(575,-18,o),
(607,3,c),
(594,35,l),
(567,19,o),
(546,14,o),
(505,13,c),
(458,15,o),
(418,21,o),
(418,76,c),
(419,119,o),
(445,148,o),
(467,181,c),
(495,225,o),
(511,287,o),
(511,337,c),
(511,406,o),
(482,456,o),
(409,459,c),
(409,674,l),
(374,674,l),
(374,460,l),
(338,457,o),
(295,440,o),
(283,402,c),
(281,402,l),
(262,449,o),
(211,460,o),
(166,460,c),
(87,460,o),
(38,426,o),
(38,342,c),
(38,252,o),
(79,99,o),
(105,0,c),
(142,0,l),
(118,91,o),
(73,258,o),
(73,340,c),
(73,401,o),
(109,425,o),
(165,425,c),
(230,425,o),
(264,391,o),
(264,325,c),
(264,211,l),
(300,211,l),
(300,325,l),
(300,389,o),
(329,425,o),
(393,425,c),
(450,425,o),
(476,397,o),
(476,340,c),
(476,293,o),
(463,240,o),
(435,197,c),
(411,162,o),
(385,129,o),
(382,83,c),
(378,-2,o),
(429,-22,o),
(506,-23,c)
);
},
{
closed = 1;
nodes = (
(651,664,l),
(651,700,l),
(-30,700,l),
(-30,664,l)
);
}
);
width = 621;
}
);
unicode = 2316;
},
{
color = 3;
glyphname = vowelLruu.dv;
kernLeft = vowelI.dv;
layers = (
{
anchors = (
{
name = candra;
pos = (422,1130);
},
{
name = nukta;
pos = (185,-61);
},
{
name = top;
pos = (531,701);
}
);
layerId = "B3961A9D-C6DC-4F74-9770-9C992C479D86";
shapes = (
{
closed = 1;
nodes = (
(873,592,l),
(873,701,l),
(-30,701,l),
(-30,592,l)
);
},
{
closed = 1;
nodes = (
(419,647,l),
(419,461,l),
(385,455,o),
(358,437,o),
(341,407,c),
(338,407,l),
(311,450,o),
(259,465,o),
(204,465,c),
(104,465,o),
(39,416,o),
(39,305,c),
(39,232,o),
(67,102,o),
(99,0,c),
(233,0,l),
(209,94,o),
(171,225,o),
(171,290,c),
(171,333,o),
(184,355,o),
(224,355,c),
(269,355,o),
(281,329,o),
(281,289,c),
(281,176,l),
(397,176,l),
(397,289,l),
(397,329,o),
(410,355,o),
(453,355,c),
(483,355,o),
(505,342,o),
(505,299,c),
(505,263,o),
(490,232,o),
(475,198,cs),
(460,164,o),
(444,128,o),
(443,83,c),
(439,-25,o),
(531,-39,o),
(605,-39,c),
(658,-39,o),
(713,-24,o),
(753,8,c),
(716,98,l),
(691,78,o),
(648,65,o),
(618,65,c),
(594,65,o),
(566,72,o),
(566,100,c),
(566,119,o),
(579,147,o),
(593,181,cs),
(612,224,o),
(633,276,o),
(633,332,c),
(633,390,o),
(610,430,o),
(555,451,c),
(555,647,l)
);
},
{
closed = 1;
nodes = (
(544,-2,l),
(495,-21,o),
(461,-34,o),
(458,-104,c),
(454,-202,o),
(518,-235,o),
(636,-229,cs),
(695,-226,o),
(770,-201,o),
(820,-163,c),
(780,-72,l),
(723,-109,o),
(664,-123,o),
(634,-123,c),
(610,-123,o),
(576,-120,o),
(576,-83,cs),
(576,-42,o),
(587,-33,o),
(638,-27,c)
);
}
);
width = 843;
},
{
anchors = (
{
name = candra;
pos = (252,700);
},
{
name = nukta;
pos = (143,-58);
},
{
name = top;
pos = (391,700);
}
);
guides = (
{
pos = (0,460);
}
);
layerId = "0DC1F6FB-20EC-4E8F-AE98-F98B5FD714DE";
shapes = (
{
closed = 1;
nodes = (
(678,664,l),
(678,700,l),
(-30,700,l),
(-30,664,l)
);
},
{
closed = 1;
nodes = (
(367,680,l),
(367,460,l),
(331,457,o),
(288,440,o),
(276,402,c),
(274,402,l),
(255,449,o),
(204,460,o),
(159,460,c),
(80,460,o),
(31,426,o),
(31,342,c),
(31,252,o),
(77,108,o),
(107,0,c),
(144,0,l),
(114,101,o),
(66,258,o),
(66,340,c),
(66,401,o),
(102,425,o),
(158,425,c),
(223,425,o),
(257,391,o),
(257,325,c),
(257,204,l),
(293,204,l),
(293,325,l),
(293,389,o),
(322,425,o),
(386,425,c),
(443,425,o),
(469,397,o),
(469,340,c),
(469,293,o),
(456,240,o),
(428,197,c),
(404,162,o),
(378,129,o),
(375,83,c),
(371,-2,o),
(422,-22,o),
(499,-23,c),
(523,-23,o),
(568,-18,o),
(600,3,c),
(587,35,l),
(560,19,o),
(539,14,o),
(498,13,c),
(451,15,o),
(411,21,o),
(411,76,c),
(412,119,o),
(438,148,o),
(460,181,c),
(488,225,o),
(504,287,o),
(504,337,c),
(504,406,o),
(475,456,o),
(402,459,c),
(402,680,l)
);
},
{
closed = 1;
nodes = (
(449,13,l),
(407,6,o),
(371,-3,o),
(371,-73,c),
(371,-103,o),
(386,-154,o),
(498,-154,cs),
(539,-154,o),
(585,-148,o),
(632,-113,c),
(619,-80,l),
(564,-117,o),
(526,-118,o),
(496,-118,cs),
(454,-118,o),
(407,-107,o),
(407,-71,cs),
(407,-30,o),
(418,-21,o),
(469,-15,c)
);
}
);
width = 648;
}
);
unicode = 2401;
},
{
color = 3;
glyphname = vowelChandraE.dv;
kernLeft = vowelI.dv;
kernRight = Chandrabindu.dv;
layers = (
{
anchors = (
{
name = bottom;
pos = (376,66);
},
{
name = candra;
pos = (253,700);
},
{
name = nukta;
pos = (130,-14);
},
{
name = top;
pos = (489,701);
}
);
guides = (
{
angle = 90;
pos = (511,0);
},
{
angle = 90;
pos = (64,0);
}
);
layerId = "B3961A9D-C6DC-4F74-9770-9C992C479D86";
shapes = (
{
closed = 1;
nodes = (
(440,72,l),
(205,147,o),
(199,277,o),
(199,369,cs),
(199,646,l),
(64,646,l),
(64,387,ls),
(64,194,o),
(102,47,o),
(387,-35,c)
);
},
{
closed = 1;
nodes = (
(338,205,l),
(488,260,o),
(511,347,o),
(511,470,c),
(511,646,l),
(376,646,l),
(376,461,ls),
(376,347,o),
(338,327,o),
(286,304,c)
);
},
{
closed = 1;
nodes = (
(591,592,l),
(591,701,l),
(-30,701,l),
(-30,592,l)
);
},
{
closed = 1;
nodes = (
(387,980,l),
(386,929,o),
(357,891,o),
(303,891,cs),
(254,891,ls),
(200,891,o),
(172,930,o),
(170,980,c),
(54,974,l),
(59,874,o),
(107,775,o),
(244,775,cs),
(313,775,ls),
(445,775,o),
(499,868,o),
(503,974,c)
);
}
);
width = 561;
},
{
anchors = (
{
name = bottom;
pos = (314,25);
},
{
name = candra;
pos = (253,700);
},
{
name = nukta;
pos = (90,8);
},
{
name = top;
pos = (395,700);
}
);
layerId = "0DC1F6FB-20EC-4E8F-AE98-F98B5FD714DE";
shapes = (
{
closed = 1;
nodes = (
(357,26,l),
(123,103,o),
(94,194,o),
(94,423,cs),
(94,684,l),
(58,684,l),
(58,423,ls),
(58,181,o),
(91,78,o),
(345,-5,c)
);
},
{
closed = 1;
nodes = (
(245,250,l),
(360,301,o),
(407,355,o),
(407,469,cs),
(407,668,l),
(371,668,l),
(371,469,ls),
(371,365,o),
(328,326,o),
(231,281,c)
);
},
{
closed = 1;
nodes = (
(483,664,l),
(483,700,l),
(-30,700,l),
(-30,664,l)
);
},
{
closed = 1;
nodes = (
(517,913,l),
(517,830,o),
(482,798,o),
(406,798,cs),
(394,798,ls),
(318,798,o),
(285,830,o),
(283,913,c),
(247,907,l),
(252,853,o),
(258,762,o),
(394,762,cs),
(406,762,ls),
(539,762,o),
(548,847,o),
(553,907,c)
);
}
);
width = 453;
}
);
unicode = 2317;
},
{
color = 3;
glyphname = vowelShortE.dv;
kernLeft = vowelI.dv;
kernRight = Chandrabindu.dv;
layers = (
{
anchors = (
{
name = bottom;
pos = (376,66);
},
{
name = candra;
pos = (281,1130);
},
{
name = nukta;
pos = (130,-14);
},
{
name = top;
pos = (490,701);
}
);
guides = (
{
angle = 90;
pos = (376,0);
}
);
layerId = "B3961A9D-C6DC-4F74-9770-9C992C479D86";
shapes = (
{
closed = 1;
nodes = (
(440,72,l),
(205,147,o),
(199,277,o),
(199,369,cs),
(199,646,l),
(64,646,l),
(64,387,ls),
(64,194,o),
(102,47,o),
(387,-35,c)
);
},
{
closed = 1;
nodes = (
(338,205,l),
(488,260,o),
(511,347,o),
(511,470,c),
(511,646,l),
(376,646,l),
(376,461,ls),
(376,347,o),
(338,327,o),
(286,304,c)
);
},
{
closed = 1;
nodes = (
(591,592,l),
(591,701,l),
(-31,701,l),
(-30,592,l)
);
},
{
closed = 1;
nodes = (
(510,694,l),
(510,707,l),
(503,851,o),
(428,892,o),
(307,913,cs),
(202,931,o),
(181,970,o),
(180,1021,c),
(45,1021,l),
(52,870,o),
(128,821,o),
(249,802,cs),
(358,785,o),
(375,745,o),
(376,694,c)
);
}
);
width = 561;
},
{
anchors = (
{
name = bottom;
pos = (314,26);
},
{
name = candra;
pos = (234,700);
},
{
name = nukta;
pos = (90,8);
},
{
name = top;
pos = (396,700);
}
);
layerId = "0DC1F6FB-20EC-4E8F-AE98-F98B5FD714DE";
shapes = (
{
closed = 1;
nodes = (
(357,26,l),
(123,103,o),
(94,194,o),
(94,423,cs),
(94,684,l),
(58,684,l),
(58,423,ls),
(58,181,o),
(91,78,o),
(345,-5,c)
);
},
{
closed = 1;
nodes = (
(245,250,l),
(360,301,o),
(407,355,o),
(407,469,cs),
(407,668,l),
(371,668,l),
(371,469,ls),
(371,365,o),
(328,326,o),
(231,281,c)
);
},
{
closed = 1;
nodes = (
(483,664,l),
(483,700,l),
(-30,700,l),
(-30,664,l)
);
},
{
closed = 1;
nodes = (
(407,698,l),
(407,708,ls),
(407,793,o),
(339,816,o),
(238,837,cs),
(133,859,o),
(137,874,o),
(131,925,c),
(96,925,l),
(103,831,o),
(139,819,o),
(240,800,cs),
(349,780,o),
(370,749,o),
(371,698,c)
);
}
);
width = 453;
}
);
unicode = 2318;
},
{
color = 3;
glyphname = vowelE.dv;
kernLeft = vowelI.dv;
kernRight = Chandrabindu.dv;
layers = (
{
anchors = (
{
name = bottom;
pos = (376,66);
},
{
name = candra;
pos = (281,1130);
},
{
name = nukta;
pos = (130,-14);
},
{
name = top;
pos = (490,701);
}
);
layerId = "B3961A9D-C6DC-4F74-9770-9C992C479D86";
shapes = (
{
closed = 1;
nodes = (
(440,72,l),
(205,147,o),
(199,277,o),
(199,369,cs),
(199,646,l),
(64,646,l),
(64,387,ls),
(64,194,o),
(102,47,o),
(387,-35,c)
);
},
{
closed = 1;
nodes = (
(338,205,l),
(488,260,o),
(511,347,o),
(511,470,c),
(511,646,l),
(376,646,l),
(376,461,ls),
(376,347,o),
(338,327,o),
(286,304,c)
);
},
{
closed = 1;
nodes = (
(591,592,l),
(591,701,l),
(-30,701,l),
(-30,592,l)
);
}
);
width = 561;
},
{
anchors = (
{
name = bottom;
pos = (314,26);
},
{
name = candra;
pos = (245,700);
},
{
name = nukta;
pos = (90,8);
},
{
name = top;
pos = (397,700);
}
);
layerId = "0DC1F6FB-20EC-4E8F-AE98-F98B5FD714DE";
shapes = (
{
closed = 1;
nodes = (
(357,26,l),
(123,103,o),
(94,194,o),
(94,423,cs),
(94,684,l),
(58,684,l),
(58,423,ls),
(58,181,o),
(91,78,o),
(345,-5,c)
);
},
{
closed = 1;
nodes = (
(245,250,l),
(360,301,o),
(407,355,o),
(407,469,cs),
(407,668,l),
(371,668,l),
(371,469,ls),
(371,365,o),
(328,326,o),
(231,281,c)
);
},
{
closed = 1;
nodes = (
(483,664,l),
(483,700,l),
(-30,700,l),
(-30,664,l)
);
}
);
width = 453;
}
);
unicode = 2319;
},
{
color = 3;
glyphname = vowelAi.dv;
kernLeft = vowelI.dv;
kernRight = Chandrabindu.dv;
layers = (
{
anchors = (
{
name = bottom;
pos = (376,66);
},
{
name = candra;
pos = (281,1130);
},
{
name = nukta;
pos = (130,-14);
},
{
name = top;
pos = (490,701);
}
);
guides = (
{
angle = 90;
pos = (376,0);
},
{
angle = 90;
pos = (511,0);
}
);
layerId = "B3961A9D-C6DC-4F74-9770-9C992C479D86";
shapes = (
{
closed = 1;
nodes = (
(440,72,l),
(205,147,o),
(199,277,o),
(199,369,cs),
(199,646,l),
(64,646,l),
(64,387,ls),
(64,194,o),
(102,47,o),
(387,-35,c)
);
},
{
closed = 1;
nodes = (
(338,205,l),
(488,260,o),
(511,347,o),
(511,470,cs),
(511,646,l),
(376,646,l),
(376,461,ls),
(376,347,o),
(338,327,o),
(286,304,c)
);
},
{
closed = 1;
nodes = (
(591,592,l),
(591,701,l),
(-30,701,l),
(-30,592,l)
);
},
{
closed = 1;
nodes = (
(505,694,l),
(262,1007,l),
(114,1007,l),
(114,1005,o),
(114,1003,o),
(114,1001,c),
(184,875,o),
(286,766,o),
(382,705,c),
(382,694,l)
);
}
);
width = 562;
},
{
anchors = (
{
name = bottom;
pos = (314,26);
},
{
name = candra;
pos = (232,700);
},
{
name = nukta;
pos = (90,8);
},
{
name = top;
pos = (394,700);
}
);
guides = (
{
angle = 90;
pos = (371,0);
},
{
angle = 90;
pos = (407,0);
}
);
layerId = "0DC1F6FB-20EC-4E8F-AE98-F98B5FD714DE";
shapes = (
{
closed = 1;
nodes = (
(357,26,l),
(123,103,o),
(94,194,o),
(94,423,cs),
(94,684,l),
(58,684,l),
(58,423,ls),
(58,181,o),
(91,78,o),
(345,-5,c)
);
},
{
closed = 1;
nodes = (
(245,250,l),
(360,301,o),
(407,355,o),
(407,469,cs),
(407,668,l),
(371,668,l),
(371,469,ls),
(371,365,o),
(328,326,o),
(231,281,c)
);
},
{
closed = 1;
nodes = (
(483,664,l),
(483,700,l),
(-30,700,l),
(-30,664,l)
);
},
{
closed = 1;
nodes = (
(409,697,l),
(232,920,l),
(193,920,l),
(193,915,o),
(192,915,o),
(193,914,c),
(259,819,o),
(314,764,o),
(369,702,c),
(369,697,l)
);
}
);
width = 453;
}
);
unicode = 2320;
},
{
color = 3;
glyphname = vowelChandraO.dv;
kernLeft = vowelShortA.dv;
kernRight = Chandrabindu.dv;
layers = (
{
anchors = (
{
name = bottom;
pos = (965,0);
},
{
name = candra;
pos = (496,723);
},
{
name = nukta;
pos = (237,0);
},
{
name = top;
pos = (997,701);
}
);
guides = (
{
angle = 90;
pos = (616,0);
},
{
angle = 90;
pos = (1081,0);
}
);
layerId = "B3961A9D-C6DC-4F74-9770-9C992C479D86";
shapes = (
{
closed = 1;
nodes = (
(706,0,l),
(706,592,l),
(886,592,l),
(886,0,l),
(1022,0,l),
(1022,592,l),
(1129,592,l),
(1129,701,l),
(570,701,l),
(570,420,l),
(513,383,o),
(415,388,o),
(382,405,c),
(382,409,l),
(412,411,o),
(419,429,o),
(419,472,cs),
(419,567,ls),
(419,691,o),
(317,713,o),
(216,713,cs),
(168,713,o),
(132,710,o),
(65,687,c),
(94,578,l),
(133,590,o),
(175,594,o),
(199,594,cs),
(260,594,o),
(283,581,o),
(284,546,cs),
(285,491,ls),
(285,471,o),
(287,440,o),
(253,440,cs),
(171,440,l),
(171,338,l),
(253,338,ls),
(279,338,o),
(295,329,o),
(295,300,cs),
(295,239,ls),
(295,174,o),
(250,167,o),
(214,167,cs),
(192,167,o),
(145,169,o),
(79,205,c),
(29,110,l),
(86,74,o),
(150,57,o),
(215,54,cs),
(369,48,o),
(430,105,o),
(430,224,cs),
(430,246,ls),
(430,278,o),
(431,290,o),
(411,306,c),
(414,310,l),
(451,288,o),
(506,277,o),
(570,300,c),
(570,0,l)
);
},
{
closed = 1;
nodes = (
(957,980,l),
(956,929,o),
(927,891,o),
(873,891,cs),
(824,891,ls),
(770,891,o),
(742,930,o),
(740,980,c),
(624,974,l),
(629,874,o),
(677,775,o),
(814,775,cs),
(883,775,ls),
(1015,775,o),
(1069,868,o),
(1073,974,c)
);
}
);
width = 1099;
},
{
anchors = (
{
name = bottom;
pos = (722,0);
},
{
name = candra;
pos = (657,700);
},
{
name = nukta;
pos = (165,0);
},
{
name = top;
pos = (727,700);
}
);
guides = (
{
pos = (0,11);
},
{
angle = 90;
pos = (703,0);
}
);
layerId = "0DC1F6FB-20EC-4E8F-AE98-F98B5FD714DE";
shapes = (
{
closed = 1;
nodes = (
(537,0,l),
(537,664,l),
(703,664,l),
(703,0,l),
(739,0,l),
(739,664,l),
(848,664,l),
(848,700,l),
(501,700,l),
(501,400,l),
(457,349,o),
(324,373,o),
(282,389,c),
(282,393,l),
(310,401,o),
(339,425,o),
(339,486,cs),
(339,589,ls),
(339,662,o),
(302,705,o),
(194,705,cs),
(142,705,o),
(102,699,o),
(51,681,c),
(55,643,l),
(96,661,o),
(160,668,o),
(194,668,cs),
(259,668,o),
(301,650,o),
(302,589,cs),
(303,502,ls),
(303,476,o),
(303,405,o),
(197,405,cs),
(86,405,l),
(86,370,l),
(197,370,ls),
(243,370,o),
(315,364,o),
(315,273,cs),
(315,214,ls),
(315,147,o),
(277,88,o),
(165,88,cs),
(118,88,o),
(80,98,o),
(34,118,c),
(20,84,l),
(62,66,o),
(95,55,o),
(165,52,c),
(253,52,o),
(350,87,o),
(350,214,cs),
(350,283,ls),
(350,308,o),
(347,334,o),
(325,351,c),
(328,354,l),
(380,327,o),
(474,328,o),
(501,361,c),
(501,0,l)
);
},
{
closed = 1;
nodes = (
(847,916,l),
(847,833,o),
(812,801,o),
(736,801,cs),
(724,801,ls),
(648,801,o),
(615,833,o),
(613,916,c),
(577,910,l),
(582,856,o),
(588,765,o),
(724,765,cs),
(736,765,ls),
(869,765,o),
(878,850,o),
(883,910,c)
);
}
);
width = 818;
}
);
unicode = 2321;
},
{
color = 3;
glyphname = vowelO.dv;
kernLeft = vowelShortA.dv;
kernRight = Chandrabindu.dv;
layers = (
{
anchors = (
{
name = bottom;
pos = (965,0);
},
{
name = candra;
pos = (550,1130);
},
{
name = nukta;
pos = (237,0);
},
{
name = top;
pos = (999,701);
}
);
guides = (
{
angle = 90;
pos = (1021,0);
}
);
layerId = "B3961A9D-C6DC-4F74-9770-9C992C479D86";
shapes = (
{
closed = 1;
nodes = (
(706,0,l),
(706,592,l),
(886,592,l),
(886,0,l),
(1022,0,l),
(1022,592,l),
(1129,592,l),
(1129,701,l),
(570,701,l),
(570,420,l),
(513,383,o),
(415,388,o),
(382,405,c),
(382,409,l),
(412,411,o),
(419,429,o),
(419,472,cs),
(419,567,ls),
(419,691,o),
(317,713,o),
(216,713,cs),
(168,713,o),
(132,710,o),
(65,687,c),
(94,578,l),
(133,590,o),
(175,594,o),
(199,594,cs),
(260,594,o),
(283,581,o),
(284,546,cs),
(285,491,ls),
(285,471,o),
(287,440,o),
(253,440,cs),
(171,440,l),
(171,338,l),
(253,338,ls),
(279,338,o),
(295,329,o),
(295,300,cs),
(295,239,ls),
(295,174,o),
(250,167,o),
(214,167,cs),
(192,167,o),
(145,169,o),
(79,205,c),
(29,110,l),
(86,74,o),
(150,57,o),
(215,54,cs),
(369,48,o),
(430,105,o),
(430,224,cs),
(430,246,ls),
(430,278,o),
(431,290,o),
(411,306,c),
(414,310,l),
(451,288,o),
(506,277,o),
(570,300,c),
(570,0,l)
);
},
{
closed = 1;
nodes = (
(1014,694,l),
(771,1007,l),
(623,1007,l),
(623,1002,o),
(622,1002,o),
(623,1001,c),
(693,875,o),
(795,766,o),
(891,705,c),
(891,694,l)
);
}
);
width = 1099;
},
{
anchors = (
{
name = bottom;
pos = (722,0);
},
{
name = candra;
pos = (721,800);
},
{
name = nukta;
pos = (165,0);
},
{
name = top;
pos = (726,700);
}
);
guides = (
{
angle = 90;
pos = (739,0);
}
);
layerId = "0DC1F6FB-20EC-4E8F-AE98-F98B5FD714DE";
shapes = (
{
closed = 1;
nodes = (
(537,0,l),
(537,664,l),
(703,664,l),
(703,0,l),
(739,0,l),
(739,664,l),
(848,664,l),
(848,700,l),
(501,700,l),
(501,400,l),
(457,349,o),
(324,373,o),
(282,389,c),
(282,393,l),
(310,401,o),
(339,425,o),
(339,486,cs),
(339,589,ls),
(339,662,o),
(302,705,o),
(194,705,cs),
(142,705,o),
(102,699,o),
(51,681,c),
(55,643,l),
(96,661,o),
(160,668,o),
(194,668,cs),
(259,668,o),
(301,650,o),
(302,589,cs),
(303,502,ls),
(303,476,o),
(303,405,o),
(197,405,cs),
(86,405,l),
(86,370,l),
(197,370,ls),
(243,370,o),
(315,364,o),
(315,273,cs),
(315,214,ls),
(315,147,o),
(277,88,o),
(165,88,cs),
(118,88,o),
(80,98,o),
(34,118,c),
(20,84,l),
(62,66,o),
(95,55,o),
(165,52,c),
(253,52,o),
(350,87,o),
(350,214,cs),
(350,283,ls),
(350,308,o),
(347,334,o),
(325,351,c),
(328,354,l),
(380,327,o),
(474,328,o),
(501,361,c),
(501,0,l)
);
},
{
closed = 1;
nodes = (
(739,697,l),
(562,920,l),
(523,920,l),
(523,915,o),
(522,915,o),
(523,914,c),
(589,819,o),
(644,764,o),
(699,702,c),
(699,697,l)
);
}
);
width = 818;
}
);
unicode = 2323;
},
{
color = 3;
glyphname = vowelShortO.dv;
kernLeft = vowelShortA.dv;
kernRight = Chandrabindu.dv;
layers = (
{
anchors = (
{
name = bottom;
pos = (965,0);
},
{
name = candra;
pos = (550,1130);
},
{
name = nukta;
pos = (237,0);
},
{
name = top;
pos = (1000,701);
}
);
layerId = "B3961A9D-C6DC-4F74-9770-9C992C479D86";
shapes = (
{
closed = 1;
nodes = (
(706,0,l),
(706,592,l),
(886,592,l),
(886,0,l),
(1022,0,l),
(1022,592,l),
(1129,592,l),
(1129,701,l),
(570,701,l),
(570,420,l),
(513,383,o),
(415,388,o),
(382,405,c),
(382,409,l),
(412,411,o),
(419,429,o),
(419,472,cs),
(419,567,ls),
(419,691,o),
(317,713,o),
(216,713,cs),
(168,713,o),
(132,710,o),
(65,687,c),
(94,578,l),
(133,590,o),
(175,594,o),
(199,594,cs),
(260,594,o),
(283,581,o),
(284,546,cs),
(285,491,ls),
(285,471,o),
(287,440,o),
(253,440,cs),
(171,440,l),
(171,338,l),
(253,338,ls),
(279,338,o),
(295,329,o),
(295,300,cs),
(295,239,ls),
(295,174,o),
(250,167,o),
(214,167,cs),
(192,167,o),
(145,169,o),
(79,205,c),
(29,110,l),
(86,74,o),
(150,57,o),
(215,54,cs),
(369,48,o),
(430,105,o),
(430,224,cs),
(430,246,ls),
(430,278,o),
(431,290,o),
(411,306,c),
(414,310,l),
(451,288,o),
(506,277,o),
(570,300,c),
(570,0,l)
);
},
{
closed = 1;
nodes = (
(1020,694,l),
(1020,707,l),
(1013,851,o),
(938,892,o),
(817,913,cs),
(712,931,o),
(691,970,o),
(690,1021,c),
(555,1021,l),
(562,870,o),
(638,821,o),
(759,802,cs),
(868,785,o),
(885,745,o),
(886,694,c)
);
}
);
width = 1099;
},
{
anchors = (
{
name = bottom;
pos = (722,0);
},
{
name = candra;
pos = (598,727);
},
{
name = nukta;
pos = (165,0);
},
{
name = top;
pos = (728,700);
}
);
layerId = "0DC1F6FB-20EC-4E8F-AE98-F98B5FD714DE";
shapes = (
{
closed = 1;
nodes = (
(537,0,l),
(537,664,l),
(703,664,l),
(703,0,l),
(739,0,l),
(739,664,l),
(848,664,l),
(848,700,l),
(501,700,l),
(501,400,l),
(457,349,o),
(324,373,o),
(282,389,c),
(282,393,l),
(310,401,o),
(339,425,o),
(339,486,cs),
(339,589,ls),
(339,662,o),
(302,705,o),
(194,705,cs),
(142,705,o),
(102,699,o),
(51,681,c),
(55,643,l),
(96,661,o),
(160,668,o),
(194,668,cs),
(259,668,o),
(301,650,o),
(302,589,cs),
(303,502,ls),
(303,476,o),
(303,405,o),
(197,405,cs),
(86,405,l),
(86,370,l),
(197,370,ls),
(243,370,o),
(315,364,o),
(315,273,cs),
(315,214,ls),
(315,147,o),
(277,88,o),
(165,88,cs),
(118,88,o),
(80,98,o),
(34,118,c),
(20,84,l),
(62,66,o),
(95,55,o),
(165,52,c),
(253,52,o),
(350,87,o),
(350,214,cs),
(350,283,ls),
(350,308,o),
(347,334,o),
(325,351,c),
(328,354,l),
(380,327,o),
(474,328,o),
(501,361,c),
(501,0,l)
);
},
{
closed = 1;
nodes = (
(739,698,l),
(739,708,ls),
(739,793,o),
(671,816,o),
(570,837,cs),
(465,859,o),
(469,874,o),
(463,925,c),
(428,925,l),
(435,831,o),
(471,819,o),
(572,800,cs),
(681,780,o),
(702,749,o),
(703,698,c)
);
}
);
width = 818;
}
);
unicode = 2322;
},
{
color = 3;
glyphname = vowelAu.dv;
kernLeft = vowelShortA.dv;
kernRight = Chandrabindu.dv;
layers = (
{
anchors = (
{
name = bottom;
pos = (965,0);
},
{
name = candra;
pos = (550,1130);
},
{
name = nukta;
pos = (237,0);
},
{
name = top;
pos = (997,701);
}
);
layerId = "B3961A9D-C6DC-4F74-9770-9C992C479D86";
shapes = (
{
closed = 1;
nodes = (
(706,0,l),
(706,592,l),
(886,592,l),
(886,0,l),
(1022,0,l),
(1022,592,l),
(1129,592,l),
(1129,701,l),
(570,701,l),
(570,420,l),
(513,383,o),
(415,388,o),
(382,405,c),
(382,409,l),
(412,411,o),
(419,429,o),
(419,472,cs),
(419,567,ls),
(419,691,o),
(317,713,o),
(216,713,cs),
(168,713,o),
(132,710,o),
(65,687,c),
(94,578,l),
(133,590,o),
(175,594,o),
(199,594,cs),
(260,594,o),
(283,581,o),
(284,546,cs),
(285,491,ls),
(285,471,o),
(287,440,o),
(253,440,cs),
(171,440,l),
(171,338,l),
(253,338,ls),
(279,338,o),
(295,329,o),
(295,300,cs),
(295,239,ls),
(295,174,o),
(250,167,o),
(214,167,cs),
(192,167,o),
(145,169,o),
(79,205,c),
(29,110,l),
(86,74,o),
(150,57,o),
(215,54,cs),
(369,48,o),
(430,105,o),
(430,224,cs),
(430,246,ls),
(430,278,o),
(431,290,o),
(411,306,c),
(414,310,l),
(451,288,o),
(506,277,o),
(570,300,c),
(570,0,l)
);
},
{
closed = 1;
nodes = (
(1024,694,l),
(904,1075,l),
(762,1075,l),
(762,1069,l),
(793,964,o),
(856,861,o),
(924,735,c),
(918,735,l),
(726,967,l),
(571,967,l),
(571,961,l),
(639,856,o),
(753,747,o),
(844,705,c),
(844,694,l)
);
}
);
width = 1099;
},
{
anchors = (
{
name = bottom;
pos = (722,0);
},
{
name = candra;
pos = (528,700);
},
{
name = nukta;
pos = (165,0);
},
{
name = top;
pos = (726,700);
}
);
layerId = "0DC1F6FB-20EC-4E8F-AE98-F98B5FD714DE";
shapes = (
{
closed = 1;
nodes = (
(537,0,l),
(537,664,l),
(703,664,l),
(703,0,l),
(739,0,l),
(739,664,l),
(848,664,l),
(848,700,l),
(501,700,l),
(501,400,l),
(457,349,o),
(324,373,o),
(282,389,c),
(282,393,l),
(310,401,o),
(339,425,o),
(339,486,cs),
(339,589,ls),
(339,662,o),
(302,705,o),
(194,705,cs),
(142,705,o),
(102,699,o),
(51,681,c),
(55,643,l),
(96,661,o),
(160,668,o),
(194,668,cs),
(259,668,o),
(301,650,o),
(302,589,cs),
(303,502,ls),
(303,476,o),
(303,405,o),
(197,405,cs),
(86,405,l),
(86,370,l),
(197,370,ls),
(243,370,o),
(315,364,o),
(315,273,cs),
(315,214,ls),
(315,147,o),
(277,88,o),
(165,88,cs),
(118,88,o),
(80,98,o),
(34,118,c),
(20,84,l),
(62,66,o),
(95,55,o),
(165,52,c),
(253,52,o),
(350,87,o),
(350,214,cs),
(350,283,ls),
(350,308,o),
(347,334,o),
(325,351,c),
(328,354,l),
(380,327,o),
(474,328,o),
(501,361,c),
(501,0,l)
);
},
{
closed = 1;
nodes = (
(747,694,l),
(640,958,l),
(604,958,l),
(604,953,l),
(645,851,o),
(671,797,o),
(706,724,c),
(703,724,l),
(558,899,l),
(517,899,l),
(517,894,l),
(575,817,o),
(632,761,o),
(686,702,c),
(686,694,l)
);
}
);
width = 818;
}
);
unicode = 2324;
},
{
color = 3;
glyphname = uni0973;
kernLeft = vowelShortA.dv;
kernRight = Chandrabindu.dv;
layers = (
{
anchors = (
{
name = bottom;
pos = (649,0);
},
{
name = candra;
pos = (253,700);
},
{
name = nukta;
pos = (237,0);
},
{
name = top;
pos = (684,701);
}
);
layerId = "B3961A9D-C6DC-4F74-9770-9C992C479D86";
shapes = (
{
closed = 1;
nodes = (
(706,0,l),
(706,592,l),
(813,592,l),
(813,701,l),
(570,701,l),
(570,420,l),
(513,383,o),
(415,388,o),
(382,405,c),
(382,409,l),
(412,411,o),
(419,429,o),
(419,472,cs),
(419,567,ls),
(419,691,o),
(317,713,o),
(216,713,cs),
(168,713,o),
(132,710,o),
(65,687,c),
(94,578,l),
(133,590,o),
(175,594,o),
(199,594,cs),
(260,594,o),
(283,581,o),
(284,546,cs),
(285,491,ls),
(285,471,o),
(287,440,o),
(253,440,cs),
(171,440,l),
(171,338,l),
(253,338,ls),
(279,338,o),
(295,329,o),
(295,300,cs),
(295,239,ls),
(295,174,o),
(250,167,o),
(214,167,cs),
(192,167,o),
(145,169,o),
(79,205,c),
(29,110,l),
(86,74,o),
(150,57,o),
(215,54,c),
(369,48,o),
(430,105,o),
(430,224,cs),
(430,246,ls),
(430,278,o),
(431,290,o),
(411,306,c),
(414,310,l),
(451,288,o),
(506,277,o),
(570,300,c),
(570,0,l)
);
},
{
closed = 1;
nodes = (
(706,669,l),
(706,902,l),
(570,902,l),
(570,669,l)
);
}
);
width = 783;
},
{
anchors = (
{
name = bottom;
pos = (520,0);
},
{
name = candra;
pos = (420,700);
},
{
name = nukta;
pos = (165,0);
},
{
name = top;
pos = (526,700);
}
);
layerId = "0DC1F6FB-20EC-4E8F-AE98-F98B5FD714DE";
shapes = (
{
closed = 1;
nodes = (
(537,0,l),
(537,664,l),
(646,664,l),
(646,700,l),
(501,700,l),
(501,400,l),
(457,349,o),
(324,373,o),
(282,389,c),
(282,393,l),
(310,401,o),
(339,425,o),
(339,486,cs),
(339,589,ls),
(339,662,o),
(302,705,o),
(194,705,cs),
(142,705,o),
(102,699,o),
(51,681,c),
(55,643,l),
(96,661,o),
(160,668,o),
(194,668,cs),
(259,668,o),
(301,650,o),
(302,589,cs),
(303,502,ls),
(303,476,o),
(303,405,o),
(197,405,cs),
(86,405,l),
(86,370,l),
(197,370,ls),
(243,370,o),
(315,364,o),
(315,273,cs),
(315,214,ls),
(315,147,o),
(277,88,o),
(165,88,cs),
(118,88,o),
(80,98,o),
(34,118,c),
(20,84,l),
(62,66,o),
(95,55,o),
(165,52,c),
(253,52,o),
(350,87,o),
(350,214,cs),
(350,283,ls),
(350,308,o),
(347,334,o),
(325,351,c),
(328,354,l),
(380,327,o),
(474,328,o),
(501,361,c),
(501,0,l)
);
},
{
closed = 1;
nodes = (
(537,681,l),
(537,852,l),
(501,852,l),
(501,681,l)
);
}
);
width = 616;
}
);
unicode = 2419;
},
{
color = 3;
glyphname = uni0974;
kernLeft = vowelShortA.dv;
kernRight = Chandrabindu.dv;
layers = (
{
anchors = (
{
name = bottom;
pos = (965,0);
},
{
name = candra;
pos = (253,700);
},
{
name = nukta;
pos = (237,0);
},
{
name = top;
pos = (1000,701);
}
);
layerId = "B3961A9D-C6DC-4F74-9770-9C992C479D86";
shapes = (
{
closed = 1;
nodes = (
(706,0,l),
(706,592,l),
(886,592,l),
(886,0,l),
(1022,0,l),
(1022,592,l),
(1129,592,l),
(1129,701,l),
(570,701,l),
(570,420,l),
(513,383,o),
(415,388,o),
(382,405,c),
(382,409,l),
(412,411,o),
(419,429,o),
(419,472,cs),
(419,567,ls),
(419,691,o),
(317,713,o),
(216,713,cs),
(168,713,o),
(132,710,o),
(65,687,c),
(94,578,l),
(133,590,o),
(175,594,o),
(199,594,cs),
(260,594,o),
(283,581,o),
(284,546,cs),
(285,491,ls),
(285,471,o),
(287,440,o),
(253,440,cs),
(171,440,l),
(171,338,l),
(253,338,ls),
(279,338,o),
(295,329,o),
(295,300,cs),
(295,239,ls),
(295,174,o),
(250,167,o),
(214,167,cs),
(192,167,o),
(145,169,o),
(79,205,c),
(29,110,l),
(86,74,o),
(150,57,o),
(215,54,cs),
(369,48,o),
(430,105,o),
(430,224,cs),
(430,246,ls),
(430,278,o),
(431,290,o),
(411,306,c),
(414,310,l),
(451,288,o),
(506,277,o),
(570,300,c),
(570,0,l)
);
},
{
closed = 1;
nodes = (
(1022,499,l),
(1022,902,l),
(886,902,l),
(886,499,l)
);
}
);
width = 1099;
},
{
anchors = (
{
name = bottom;
pos = (722,0);
},
{
name = candra;
pos = (609,700);
},
{
name = nukta;
pos = (165,0);
},
{
name = top;
pos = (727,700);
}
);
layerId = "0DC1F6FB-20EC-4E8F-AE98-F98B5FD714DE";
shapes = (
{
closed = 1;
nodes = (
(537,0,l),
(537,664,l),
(703,664,l),
(703,0,l),
(739,0,l),
(739,664,l),
(848,664,l),
(848,700,l),
(501,700,l),
(501,400,l),
(457,349,o),
(324,373,o),
(282,389,c),
(282,393,l),
(310,401,o),
(339,425,o),
(339,486,cs),
(339,589,ls),
(339,662,o),
(302,705,o),
(194,705,cs),
(142,705,o),
(102,699,o),
(51,681,c),
(55,643,l),
(96,661,o),
(160,668,o),
(194,668,cs),
(259,668,o),
(301,650,o),
(302,589,cs),
(303,502,ls),
(303,476,o),
(303,405,o),
(197,405,cs),
(86,405,l),
(86,370,l),
(197,370,ls),
(243,370,o),
(315,364,o),
(315,273,cs),
(315,214,ls),
(315,147,o),
(277,88,o),
(165,88,cs),
(118,88,o),
(80,98,o),
(34,118,c),
(20,84,l),
(62,66,o),
(95,55,o),
(165,52,c),
(253,52,o),
(350,87,o),
(350,214,cs),
(350,283,ls),
(350,308,o),
(347,334,o),
(325,351,c),
(328,354,l),
(380,327,o),
(474,328,o),
(501,361,c),
(501,0,l)
);
},
{
closed = 1;
nodes = (
(739,499,l),
(739,852,l),
(703,852,l),
(703,499,l)
);
}
);
width = 818;
}
);
unicode = 2420;
},
{
color = 3;
glyphname = uni0975;
kernLeft = vowelShortA.dv;
kernRight = Chandrabindu.dv;
layers = (
{
anchors = (
{
name = bottom;
pos = (965,0);
},
{
name = candra;
pos = (253,700);
},
{
name = nukta;
pos = (237,0);
},
{
name = top;
pos = (997,701);
}
);
guides = (
{
pos = (0,965);
},
{
pos = (0,1075);
}
);
layerId = "B3961A9D-C6DC-4F74-9770-9C992C479D86";
shapes = (
{
closed = 1;
nodes = (
(706,0,l),
(706,592,l),
(886,592,l),
(886,0,l),
(1022,0,l),
(1022,592,l),
(1129,592,l),
(1129,701,l),
(570,701,l),
(570,420,l),
(513,383,o),
(415,388,o),
(382,405,c),
(382,409,l),
(412,411,o),
(419,429,o),
(419,472,cs),
(419,567,ls),
(419,691,o),
(317,713,o),
(216,713,cs),
(168,713,o),
(132,710,o),
(65,687,c),
(94,578,l),
(133,590,o),
(175,594,o),
(199,594,cs),
(260,594,o),
(283,581,o),
(284,546,cs),
(285,491,ls),
(285,471,o),
(287,440,o),
(253,440,cs),
(171,440,l),
(171,338,l),
(253,338,ls),
(279,338,o),
(295,329,o),
(295,300,cs),
(295,239,ls),
(295,174,o),
(250,167,o),
(214,167,cs),
(192,167,o),
(145,169,o),
(79,205,c),
(29,110,l),
(86,74,o),
(150,57,o),
(215,54,cs),
(369,48,o),
(430,105,o),
(430,224,cs),
(430,246,ls),
(430,278,o),
(431,290,o),
(411,306,c),
(414,310,l),
(451,288,o),
(506,277,o),
(570,300,c),
(570,0,l)
);
},
{
closed = 1;
nodes = (
(1030,694,l),
(1057,790,o),
(1108,922,o),
(945,1016,cs),
(867,1061,o),
(773,1054,o),
(775,1130,c),
(641,1131,l),
(632,978,o),
(741,948,o),
(840,915,cs),
(947,879,o),
(959,820,o),
(954,769,c),
(941,769,l),
(915,858,o),
(839,875,o),
(738,893,cs),
(633,911,o),
(609,918,o),
(609,971,c),
(476,971,l),
(466,820,o),
(579,787,o),
(680,771,cs),
(789,754,o),
(875,745,o),
(876,694,c)
);
}
);
width = 1099;
},
{
anchors = (
{
name = bottom;
pos = (722,0);
},
{
name = candra;
pos = (571,700);
},
{
name = nukta;
pos = (165,0);
},
{
name = top;
pos = (728,700);
}
);
guides = (
{
pos = (0,958);
}
);
layerId = "0DC1F6FB-20EC-4E8F-AE98-F98B5FD714DE";
shapes = (
{
closed = 1;
nodes = (
(537,0,l),
(537,664,l),
(703,664,l),
(703,0,l),
(739,0,l),
(739,664,l),
(848,664,l),
(848,700,l),
(501,700,l),
(501,400,l),
(457,349,o),
(324,373,o),
(282,389,c),
(282,393,l),
(310,401,o),
(339,425,o),
(339,486,cs),
(339,589,ls),
(339,662,o),
(302,705,o),
(194,705,cs),
(142,705,o),
(102,699,o),
(51,681,c),
(55,643,l),
(96,661,o),
(160,668,o),
(194,668,cs),
(259,668,o),
(301,650,o),
(302,589,cs),
(303,502,ls),
(303,476,o),
(303,405,o),
(197,405,cs),
(86,405,l),
(86,370,l),
(197,370,ls),
(243,370,o),
(315,364,o),
(315,273,cs),
(315,214,ls),
(315,147,o),
(277,88,o),
(165,88,cs),
(118,88,o),
(80,98,o),
(34,118,c),
(20,84,l),
(62,66,o),
(95,55,o),
(165,52,c),
(253,52,o),
(350,87,o),
(350,214,cs),
(350,283,ls),
(350,308,o),
(347,334,o),
(325,351,c),
(328,354,l),
(380,327,o),
(474,328,o),
(501,361,c),
(501,0,l)
);
},
{
closed = 1;
nodes = (
(743,689,l),
(760,747,o),
(765,814,o),
(670,848,cs),
(620,866,o),
(574,886,o),
(574,942,c),
(540,942,l),
(537,866,o),
(598,835,o),
(658,816,cs),
(723,794,o),
(724,742,o),
(721,711,c),
(719,711,l),
(703,765,o),
(660,783,o),
(599,794,cs),
(536,805,o),
(509,813,o),
(509,845,c),
(476,845,l),
(476,782,o),
(532,771,o),
(593,761,cs),
(666,749,o),
(697,720,o),
(698,689,c)
);
}
);
width = 818;
}
);
unicode = 2421;
},
{
color = 3;
glyphname = uni0976;
kernLeft = vowelShortA.dv;
kernRight = Chandrabindu.dv;
layers = (
{
anchors = (
{
name = bottom;
pos = (649,0);
},
{
name = candra;
pos = (253,700);
},
{
name = nukta;
pos = (246,6);
},
{
name = top;
pos = (684,701);
}
);
layerId = "B3961A9D-C6DC-4F74-9770-9C992C479D86";
shapes = (
{
closed = 1;
nodes = (
(706,0,l),
(706,592,l),
(813,592,l),
(813,701,l),
(570,701,l),
(570,420,l),
(513,383,o),
(415,388,o),
(382,405,c),
(382,409,l),
(412,411,o),
(419,429,o),
(419,472,cs),
(419,567,ls),
(419,691,o),
(317,713,o),
(216,713,cs),
(168,713,o),
(132,710,o),
(65,687,c),
(94,578,l),
(133,590,o),
(175,594,o),
(199,594,cs),
(260,594,o),
(283,581,o),
(284,546,cs),
(285,491,ls),
(285,471,o),
(287,440,o),
(253,440,cs),
(171,440,l),
(171,338,l),
(253,338,ls),
(279,338,o),
(295,329,o),
(295,300,cs),
(295,239,ls),
(295,174,o),
(250,167,o),
(214,167,cs),
(192,167,o),
(145,169,o),
(79,205,c),
(29,110,l),
(86,74,o),
(150,57,o),
(215,54,c),
(369,48,o),
(430,105,o),
(430,224,cs),
(430,246,ls),
(430,278,o),
(431,290,o),
(411,306,c),
(414,310,l),
(451,288,o),
(506,277,o),
(570,300,c),
(570,0,l)
);
},
{
closed = 1;
nodes = (
(128,-167,l),
(180,-189,o),
(302,-214,o),
(449,-214,o),
(570,-189,o),
(624,-167,q),
(624,-62,l),
(570,-88,o),
(446,-114,o),
(306,-114,o),
(180,-88,o),
(128,-62,q)
);
}
);
width = 783;
},
{
anchors = (
{
name = bottom;
pos = (520,0);
},
{
name = candra;
pos = (327,700);
},
{
name = nukta;
pos = (155,0);
},
{
name = top;
pos = (526,700);
}
);
layerId = "0DC1F6FB-20EC-4E8F-AE98-F98B5FD714DE";
shapes = (
{
closed = 1;
nodes = (
(537,0,l),
(537,664,l),
(646,664,l),
(646,700,l),
(501,700,l),
(501,400,l),
(457,349,o),
(324,373,o),
(282,389,c),
(282,393,l),
(310,401,o),
(339,425,o),
(339,486,cs),
(339,589,ls),
(339,662,o),
(302,705,o),
(194,705,cs),
(142,705,o),
(102,699,o),
(51,681,c),
(55,643,l),
(96,661,o),
(160,668,o),
(194,668,cs),
(259,668,o),
(301,650,o),
(302,589,cs),
(303,502,ls),
(303,476,o),
(303,405,o),
(197,405,cs),
(86,405,l),
(86,370,l),
(197,370,ls),
(243,370,o),
(315,364,o),
(315,273,cs),
(315,214,ls),
(315,147,o),
(277,88,o),
(165,88,cs),
(118,88,o),
(80,98,o),
(34,118,c),
(20,84,l),
(62,66,o),
(95,55,o),
(165,52,c),
(253,52,o),
(350,87,o),
(350,214,cs),
(350,283,ls),
(350,308,o),
(347,334,o),
(325,351,c),
(328,354,l),
(380,327,o),
(474,328,o),
(501,361,c),
(501,0,l)
);
},
{
closed = 1;
nodes = (
(78,-76,l),
(121,-94,o),
(221,-114,o),
(341,-114,o),
(440,-94,o),
(484,-76,q),
(484,-39,l),
(440,-61,o),
(338,-82,o),
(224,-82,o),
(121,-61,o),
(78,-39,q)
);
}
);
width = 616;
}
);
unicode = 2422;
},
{
color = 3;
glyphname = uni0977;
kernLeft = vowelShortA.dv;
kernRight = Chandrabindu.dv;
layers = (
{
anchors = (
{
name = bottom;
pos = (649,0);
},
{
name = nukta;
pos = (246,6);
},
{
name = top;
pos = (684,701);
}
);
layerId = "B3961A9D-C6DC-4F74-9770-9C992C479D86";
shapes = (
{
closed = 1;
nodes = (
(706,0,l),
(706,592,l),
(813,592,l),
(813,701,l),
(570,701,l),
(570,420,l),
(513,383,o),
(415,388,o),
(382,405,c),
(382,409,l),
(412,411,o),
(419,429,o),
(419,472,cs),
(419,567,ls),
(419,691,o),
(317,713,o),
(216,713,cs),
(168,713,o),
(132,710,o),
(65,687,c),
(94,578,l),
(133,590,o),
(175,594,o),
(199,594,cs),
(260,594,o),
(283,581,o),
(284,546,cs),
(285,491,ls),
(285,471,o),
(287,440,o),
(253,440,cs),
(171,440,l),
(171,338,l),
(253,338,ls),
(279,338,o),
(295,329,o),
(295,300,cs),
(295,239,ls),
(295,174,o),
(250,167,o),
(214,167,cs),
(192,167,o),
(145,169,o),
(79,205,c),
(29,110,l),
(86,74,o),
(150,57,o),
(215,54,c),
(369,48,o),
(430,105,o),
(430,224,cs),
(430,246,ls),
(430,278,o),
(431,290,o),
(411,306,c),
(414,310,l),
(451,288,o),
(506,277,o),
(570,300,c),
(570,0,l)
);
},
{
closed = 1;
nodes = (
(128,-167,l),
(180,-189,o),
(302,-214,o),
(449,-214,o),
(570,-189,o),
(624,-167,q),
(624,-62,l),
(570,-88,o),
(446,-114,o),
(306,-114,o),
(180,-88,o),
(128,-62,q)
);
},
{
closed = 1;
nodes = (
(128,-367,l),
(180,-389,o),
(302,-414,o),
(449,-414,o),
(570,-389,o),
(624,-367,q),
(624,-262,l),
(570,-288,o),
(446,-314,o),
(306,-314,o),
(180,-288,o),
(128,-262,q)
);
}
);
width = 783;
},
{
anchors = (
{
name = bottom;
pos = (520,0);
},
{
name = nukta;
pos = (165,0);
},
{
name = top;
pos = (526,700);
}
);
layerId = "0DC1F6FB-20EC-4E8F-AE98-F98B5FD714DE";
shapes = (
{
closed = 1;
nodes = (
(537,0,l),
(537,664,l),
(646,664,l),
(646,700,l),
(501,700,l),
(501,400,l),
(457,349,o),
(324,373,o),
(282,389,c),
(282,393,l),
(310,401,o),
(339,425,o),
(339,486,cs),
(339,589,ls),
(339,662,o),
(302,705,o),
(194,705,cs),
(142,705,o),
(102,699,o),
(51,681,c),
(55,643,l),
(96,661,o),
(160,668,o),
(194,668,cs),
(259,668,o),
(301,650,o),
(302,589,cs),
(303,502,ls),
(303,476,o),
(303,405,o),
(197,405,cs),
(86,405,l),
(86,370,l),
(197,370,ls),
(243,370,o),
(315,364,o),
(315,273,cs),
(315,214,ls),
(315,147,o),
(277,88,o),
(165,88,cs),
(118,88,o),
(80,98,o),
(34,118,c),
(20,84,l),
(62,66,o),
(95,55,o),
(165,52,c),
(253,52,o),
(350,87,o),
(350,214,cs),
(350,283,ls),
(350,308,o),
(347,334,o),
(325,351,c),
(328,354,l),
(380,327,o),
(474,328,o),
(501,361,c),
(501,0,l)
);
},
{
closed = 1;
nodes = (
(78,-76,l),
(121,-94,o),
(221,-114,o),
(341,-114,o),
(440,-94,o),
(484,-76,q),
(484,-39,l),
(440,-61,o),
(338,-82,o),
(224,-82,o),
(121,-61,o),
(78,-39,q)
);
},
{
closed = 1;
nodes = (
(78,-186,l),
(121,-204,o),
(221,-224,o),
(341,-224,o),
(440,-204,o),
(484,-186,q),
(484,-149,l),
(440,-171,o),
(338,-192,o),
(224,-192,o),
(121,-171,o),
(78,-149,q)
);
}
);
width = 616;
}
);
unicode = 2423;
},
{
color = 3;
glyphname = matraA.dv;
kernRight = Chandrabindu.dv;
layers = (
{
anchors = (
{
name = top;
pos = (214,701);
}
);
layerId = "B3961A9D-C6DC-4F74-9770-9C992C479D86";
shapes = (
{
closed = 1;
nodes = (
(103,592,l),
(103,0,l),
(239,0,l),
(239,592,l),
(352,592,l),
(352,701,l),
(-29,701,l),
(-29,592,l)
);
}
);
width = 321;
},
{
anchors = (
{
name = top;
pos = (145,700);
}
);
layerId = "0DC1F6FB-20EC-4E8F-AE98-F98B5FD714DE";
shapes = (
{
closed = 1;
nodes = (
(120,664,l),
(120,0,l),
(156,0,l),
(156,664,l),
(266,664,l),
(266,700,l),
(-30,700,l),
(-30,664,l)
);
}
);
width = 236;
}
);
unicode = 2366;
},
{
color = 9;
glyphname = matraI.dv;
kernRight = matraI.dv;
layers = (
{
guides = (
{
angle = 270;
pos = (218,612);
},
{
pos = (331,701);
},
{
pos = (625,721);
},
{
pos = (839,721);
},
{
pos = (259,850);
}
);
layerId = "B3961A9D-C6DC-4F74-9770-9C992C479D86";
shapes = (
{
closed = 1;
nodes = (
(82,592,l),
(82,0,l),
(218,0,l),
(218,592,l),
(331,592,l),
(331,701,l),
(-30,701,l),
(-30,592,l)
);
},
{
closed = 1;
nodes = (
(703,851,l),
(596,892,o),
(447,961,o),
(303,959,cs),
(50,955,o),
(82,723,o),
(82,643,c),
(217,643,l),
(217,735,o),
(196,839,o),
(318,842,cs),
(424,845,o),
(596,765,o),
(703,721,c)
);
}
);
userData = {
assembly = "NPUSHB[ ]	/* 40 values pushed */
16 15 2 2 71 0 3 0 2 3 2 99 0 6 6 30 75 5 1 0 0 1 94 4 1 1 1 28 1 76 17 17 21 43 37 17 16 7 7 27 
CALL[ ]	/* CallFunction */";
};
width = 301;
},
{
guides = (
{
pos = (584,731);
},
{
pos = (790,774);
},
{
pos = (795,731);
}
);
layerId = "0DC1F6FB-20EC-4E8F-AE98-F98B5FD714DE";
shapes = (
{
closed = 1;
nodes = (
(140,664,l),
(140,0,l),
(176,0,l),
(176,664,l),
(286,664,l),
(286,700,l),
(-30,700,l),
(-30,664,l)
);
},
{
closed = 1;
nodes = (
(610,774,l),
(543,830,o),
(454,911,o),
(311,911,cs),
(122,911,o),
(140,739,o),
(140,661,c),
(176,661,l),
(176,742,o),
(155,876,o),
(315,880,cs),
(436,883,o),
(542,790,o),
(610,731,c)
);
}
);
width = 256;
}
);
note = matraI.dv;
unicode = 2367;
},
{
color = 9;
glyphname = matraIi.dv;
kernRight = Chandrabindu.dv;
layers = (
{
guides = (
{
pos = (-359,722);
},
{
pos = (-359,963);
},
{
pos = (-359,802);
}
);
layerId = "B3961A9D-C6DC-4F74-9770-9C992C479D86";
shapes = (
{
closed = 1;
nodes = (
(219,0,l),
(219,592,l),
(331,592,l),
(331,701,l),
(219,701,l),
(219,752,ls),
(219,832,o),
(191,963,o),
(-5,963,cs),
(-158,963,o),
(-212,889,o),
(-213,741,c),
(-85,741,l),
(-85,820,o),
(-56,841,o),
(-3,841,cs),
(55,841,o),
(83,820,o),
(83,740,cs),
(83,701,l),
(-32,701,l),
(-32,592,l),
(83,592,l),
(83,0,l)
);
}
);
userData = {
assembly = "NPUSHB[ ]	/* 43 values pushed */
14 13 2 3 71 0 6 6 30 75 5 1 0 0 1 94 4 1 1 1 28 75 0 2 2 3 95 0 3 3 27 3 76 17 17 20 45 36 17 16 7 7 27 
CALL[ ]	/* CallFunction */";
};
width = 303;
},
{
guides = (
{
pos = (-617,918);
},
{
pos = (-617,741);
},
{
pos = (-617,759);
}
);
layerId = "0DC1F6FB-20EC-4E8F-AE98-F98B5FD714DE";
shapes = (
{
closed = 1;
nodes = (
(146,0,l),
(146,664,l),
(315,664,l),
(315,700,l),
(146,700,l),
(146,737,ls),
(146,851,o),
(110,918,o),
(12,918,cs),
(-75,918,o),
(-123,876,o),
(-115,759,c),
(-80,759,l),
(-88,867,o),
(-39,884,o),
(12,884,cs),
(101,884,o),
(110,804,o),
(110,728,cs),
(110,700,l),
(-31,700,l),
(-31,664,l),
(110,664,l),
(110,0,l)
);
}
);
width = 285;
}
);
note = matraIi.dv;
unicode = 2368;
},
{
color = 3;
glyphname = matraAChandra.dv;
kernRight = Chandrabindu.dv;
layers = (
{
guides = (
{
angle = 90;
pos = (351,0);
},
{
angle = 90;
pos = (-30,0);
}
);
layerId = "B3961A9D-C6DC-4F74-9770-9C992C479D86";
shapes = (
{
closed = 1;
nodes = (
(102,592,l),
(102,0,l),
(238,0,l),
(238,592,l),
(351,592,l),
(351,701,l),
(-30,701,l),
(-30,592,l)
);
},
{
closed = 1;
nodes = (
(273,962,l),
(271,909,o),
(242,870,o),
(186,870,cs),
(135,870,ls),
(79,870,o),
(50,910,o),
(48,962,c),
(-72,956,l),
(-67,852,o),
(-17,750,o),
(125,750,cs),
(196,750,ls),
(333,750,o),
(388,846,o),
(393,956,c)
);
}
);
width = 322;
},
{
guides = (
{
pos = (0,700);
},
{
angle = 90;
pos = (-30,0);
},
{
angle = 90;
pos = (266,0);
}
);
hints = (
{
place = (282,30);
type = Stem;
}
);
layerId = "0DC1F6FB-20EC-4E8F-AE98-F98B5FD714DE";
shapes = (
{
closed = 1;
nodes = (
(120,664,l),
(120,0,l),
(156,0,l),
(156,664,l),
(266,664,l),
(266,700,l),
(-30,700,l),
(-30,664,l)
);
},
{
closed = 1;
nodes = (
(235,922,l),
(235,839,o),
(200,807,o),
(124,807,cs),
(112,807,ls),
(36,807,o),
(3,839,o),
(1,922,c),
(-35,916,l),
(-30,862,o),
(-24,771,o),
(112,771,cs),
(124,771,ls),
(257,771,o),
(266,856,o),
(271,916,c)
);
}
);
width = 236;
}
);
unicode = 2377;
},
{
color = 3;
glyphname = matraShortO.dv;
kernRight = Chandrabindu.dv;
layers = (
{
layerId = "B3961A9D-C6DC-4F74-9770-9C992C479D86";
shapes = (
{
closed = 1;
nodes = (
(102,592,l),
(102,0,l),
(238,0,l),
(238,592,l),
(351,592,l),
(351,701,l),
(-30,701,l),
(-30,592,l)
);
},
{
closed = 1;
nodes = (
(236,694,l),
(236,707,l),
(229,851,o),
(154,892,o),
(33,913,cs),
(-72,931,o),
(-93,970,o),
(-94,1021,c),
(-229,1021,l),
(-222,870,o),
(-146,821,o),
(-25,802,cs),
(84,785,o),
(101,745,o),
(102,694,c)
);
}
);
width = 321;
},
{
guides = (
{
angle = 90;
pos = (156,0);
},
{
angle = 90;
pos = (120,0);
}
);
layerId = "0DC1F6FB-20EC-4E8F-AE98-F98B5FD714DE";
shapes = (
{
closed = 1;
nodes = (
(120,664,l),
(120,0,l),
(156,0,l),
(156,664,l),
(266,664,l),
(266,700,l),
(-30,700,l),
(-30,664,l)
);
},
{
closed = 1;
nodes = (
(156,694,l),
(156,707,l),
(156,784,o),
(93,812,o),
(-8,833,cs),
(-113,855,o),
(-109,870,o),
(-115,921,c),
(-150,921,l),
(-143,827,o),
(-107,815,o),
(-6,796,cs),
(103,776,o),
(119,750,o),
(120,694,c)
);
}
);
width = 236;
}
);
unicode = 2378;
},
{
color = 3;
glyphname = matraO.dv;
kernRight = Chandrabindu.dv;
layers = (
{
associatedMasterId = "0DC1F6FB-20EC-4E8F-AE98-F98B5FD714DE";
layerId = "A60E2505-20D3-4070-AD0C-80FD77649E51";
name = "#instance";
shapes = (
{
closed = 1;
nodes = (
(-91,875,o),
(11,766,o),
(107,705,c),
(107,694,l),
(230,694,l),
(-13,1007,l),
(-161,1007,l),
(-161,1002,o),
(-162,1002,o),
(-161,1001,c)
);
},
{
closed = 1;
nodes = (
(-30,701,l),
(-30,592,l),
(102,592,l),
(102,0,l),
(236,0,l),
(236,592,l),
(350,592,l),
(350,701,l)
);
}
);
width = 320;
},
{
layerId = "B3961A9D-C6DC-4F74-9770-9C992C479D86";
shapes = (
{
closed = 1;
nodes = (
(-91,875,o),
(11,766,o),
(107,705,c),
(107,694,l),
(230,694,l),
(-13,1007,l),
(-161,1007,l),
(-161,1002,o),
(-162,1002,o),
(-161,1001,c)
);
},
{
closed = 1;
nodes = (
(-30,701,l),
(-30,592,l),
(102,592,l),
(102,0,l),
(236,0,l),
(236,592,l),
(350,592,l),
(350,701,l)
);
}
);
width = 320;
},
{
layerId = "0DC1F6FB-20EC-4E8F-AE98-F98B5FD714DE";
shapes = (
{
closed = 1;
nodes = (
(6,819,o),
(61,764,o),
(116,702,c),
(116,697,l),
(156,697,l),
(-21,920,l),
(-60,920,l),
(-60,915,o),
(-61,915,o),
(-60,914,c)
);
},
{
closed = 1;
nodes = (
(-30,700,l),
(-30,664,l),
(120,664,l),
(120,0,l),
(156,0,l),
(156,664,l),
(266,664,l),
(266,700,l)
);
}
);
width = 236;
}
);
unicode = 2379;
},
{
color = 3;
glyphname = matraAu.dv;
kernRight = Chandrabindu.dv;
layers = (
{
guides = (
{
pos = (0,705);
},
{
pos = (0,1001);
}
);
layerId = "B3961A9D-C6DC-4F74-9770-9C992C479D86";
shapes = (
{
closed = 1;
nodes = (
(236,0,l),
(236,592,l),
(350,592,l),
(350,701,l),
(-30,701,l),
(-30,592,l),
(102,592,l),
(102,0,l)
);
},
{
closed = 1;
nodes = (
(251,694,l),
(131,1075,l),
(-11,1075,l),
(-11,1069,l),
(20,964,o),
(83,861,o),
(151,735,c),
(145,735,l),
(-47,967,l),
(-202,967,l),
(-202,961,l),
(-134,856,o),
(-20,747,o),
(71,705,c),
(71,694,l)
);
}
);
width = 320;
},
{
guides = (
{
pos = (0,920);
}
);
layerId = "0DC1F6FB-20EC-4E8F-AE98-F98B5FD714DE";
shapes = (
{
closed = 1;
nodes = (
(156,0,l),
(156,664,l),
(266,664,l),
(266,700,l),
(-30,700,l),
(-30,664,l),
(120,664,l),
(120,0,l)
);
},
{
closed = 1;
nodes = (
(161,694,l),
(54,958,l),
(18,958,l),
(18,953,l),
(59,851,o),
(85,797,o),
(120,724,c),
(117,724,l),
(-28,899,l),
(-69,899,l),
(-69,894,l),
(-11,817,o),
(46,761,o),
(100,702,c),
(100,694,l)
);
}
);
width = 236;
}
);
unicode = 2380;
},
{
color = 3;
glyphname = uni094E;
kernRight = Chandrabindu.dv;
layers = (
{
layerId = "B3961A9D-C6DC-4F74-9770-9C992C479D86";
shapes = (
{
closed = 1;
nodes = (
(102,0,l),
(238,0,l),
(238,592,l),
(351,592,l),
(351,701,l),
(102,701,l)
);
}
);
width = 321;
},
{
layerId = "0DC1F6FB-20EC-4E8F-AE98-F98B5FD714DE";
shapes = (
{
closed = 1;
nodes = (
(102,0,l),
(138,0,l),
(138,664,l),
(248,664,l),
(248,700,l),
(102,700,l)
);
}
);
width = 218;
}
);
unicode = 2382;
},
{
color = 3;
glyphname = uni093B;
kernRight = Chandrabindu.dv;
layers = (
{
layerId = "B3961A9D-C6DC-4F74-9770-9C992C479D86";
shapes = (
{
closed = 1;
nodes = (
(102,592,l),
(102,0,l),
(238,0,l),
(238,592,l),
(351,592,l),
(351,701,l),
(-30,701,l),
(-30,592,l)
);
},
{
closed = 1;
nodes = (
(238,669,l),
(238,902,l),
(102,902,l),
(102,669,l)
);
}
);
width = 321;
},
{
layerId = "0DC1F6FB-20EC-4E8F-AE98-F98B5FD714DE";
shapes = (
{
closed = 1;
nodes = (
(120,664,l),
(120,0,l),
(156,0,l),
(156,664,l),
(266,664,l),
(266,700,l),
(-30,700,l),
(-30,664,l)
);
},
{
closed = 1;
nodes = (
(156,681,l),
(156,852,l),
(120,852,l),
(120,681,l)
);
}
);
width = 236;
}
);
unicode = 2363;
},
{
color = 3;
glyphname = uni094F;
kernRight = Chandrabindu.dv;
layers = (
{
layerId = "B3961A9D-C6DC-4F74-9770-9C992C479D86";
shapes = (
{
closed = 1;
nodes = (
(102,592,l),
(102,0,l),
(238,0,l),
(238,592,l),
(351,592,l),
(351,701,l),
(-30,701,l),
(-30,592,l)
);
},
{
closed = 1;
nodes = (
(245,694,l),
(272,790,o),
(323,922,o),
(160,1016,cs),
(82,1061,o),
(-12,1054,o),
(-10,1130,c),
(-144,1131,l),
(-153,978,o),
(-44,948,o),
(55,915,cs),
(162,879,o),
(174,820,o),
(169,769,c),
(156,769,l),
(130,858,o),
(54,875,o),
(-47,893,cs),
(-152,911,o),
(-176,918,o),
(-176,971,c),
(-309,971,l),
(-319,820,o),
(-206,787,o),
(-105,771,cs),
(4,754,o),
(90,745,o),
(91,694,c)
);
}
);
width = 321;
},
{
layerId = "0DC1F6FB-20EC-4E8F-AE98-F98B5FD714DE";
shapes = (
{
closed = 1;
nodes = (
(120,664,l),
(120,0,l),
(156,0,l),
(156,664,l),
(266,664,l),
(266,700,l),
(-30,700,l),
(-30,664,l)
);
},
{
closed = 1;
nodes = (
(158,689,l),
(175,747,o),
(180,814,o),
(85,848,cs),
(35,866,o),
(-11,886,o),
(-11,942,c),
(-45,942,l),
(-48,866,o),
(13,835,o),
(73,816,cs),
(138,794,o),
(139,742,o),
(136,711,c),
(134,711,l),
(118,765,o),
(75,783,o),
(14,794,cs),
(-49,805,o),
(-76,813,o),
(-76,845,c),
(-109,845,l),
(-109,782,o),
(-53,771,o),
(8,761,cs),
(81,749,o),
(112,720,o),
(113,689,c)
);
}
);
width = 236;
}
);
unicode = 2383;
},
{
color = 3;
glyphname = Ka.dv;
kernLeft = vowelI.dv;
kernRight = Chandrabindu.dv;
layers = (
{
anchors = (
{
name = bottom;
pos = (393,0);
},
{
name = nukta;
pos = (136,60);
},
{
name = top;
pos = (427,701);
}
);
associatedMasterId = "0DC1F6FB-20EC-4E8F-AE98-F98B5FD714DE";
guides = (
{
pos = (0,6);
},
{
pos = (0,700);
},
{
angle = 90;
pos = (361,0);
},
{
angle = 90;
pos = (325,0);
}
);
layerId = "A60E2505-20D3-4070-AD0C-80FD77649E51";
name = "#instance";
shapes = (
{
closed = 1;
nodes = (
(490,88,l),
(571,88,ls),
(681,88,o),
(709,142,o),
(709,226,cs),
(709,362,ls),
(709,460,o),
(662,501,o),
(565,501,cs),
(523,501,o),
(478,489,o),
(453,452,c),
(450,452,l),
(450,593,l),
(798,593,l),
(798,702,l),
(-30,702,l),
(-30,593,l),
(315,593,l),
(315,452,l),
(312,452,l),
(287,489,o),
(242,501,o),
(200,501,cs),
(103,501,o),
(56,460,o),
(56,362,cs),
(56,317,o),
(56,272,o),
(56,227,cs),
(56,130,o),
(103,88,o),
(200,88,cs),
(242,88,o),
(287,100,o),
(312,137,c),
(313,137,o),
(314,137,o),
(315,137,c),
(315,0,l),
(450,0,l),
(450,353,ls),
(450,390,o),
(478,400,o),
(514,400,cs),
(557,400,o),
(574,382,o),
(574,340,cs),
(574,312,o),
(574,284,o),
(574,256,cs),
(574,235,o),
(579,189,o),
(521,189,cs),
(511,189,o),
(500,189,o),
(490,189,c)
);
},
{
closed = 1;
nodes = (
(191,340,ls),
(191,382,o),
(208,400,o),
(251,400,cs),
(296,400,o),
(315,384,o),
(315,340,cs),
(315,250,ls),
(315,206,o),
(296,189,o),
(251,189,cs),
(208,189,o),
(191,208,o),
(191,250,cs)
);
}
);
width = 768;
},
{
anchors = (
{
name = bottom;
pos = (393,0);
},
{
name = nukta;
pos = (136,60);
},
{
name = top;
pos = (427,701);
}
);
guides = (
{
},
{
pos = (0,14);
},
{
angle = 90;
pos = (450,0);
},
{
angle = 90;
pos = (315,0);
}
);
layerId = "B3961A9D-C6DC-4F74-9770-9C992C479D86";
shapes = (
{
closed = 1;
nodes = (
(490,88,l),
(571,88,ls),
(681,88,o),
(709,142,o),
(709,226,cs),
(709,362,ls),
(709,460,o),
(662,501,o),
(565,501,cs),
(523,501,o),
(478,489,o),
(453,452,c),
(450,452,l),
(450,593,l),
(798,593,l),
(798,702,l),
(-30,702,l),
(-30,593,l),
(315,593,l),
(315,452,l),
(312,452,l),
(287,489,o),
(242,501,o),
(200,501,cs),
(103,501,o),
(56,460,o),
(56,362,cs),
(56,317,o),
(56,272,o),
(56,227,cs),
(56,130,o),
(103,88,o),
(200,88,cs),
(242,88,o),
(287,100,o),
(312,137,c),
(313,137,o),
(314,137,o),
(315,137,c),
(315,0,l),
(450,0,l),
(450,353,ls),
(450,390,o),
(478,400,o),
(514,400,cs),
(557,400,o),
(574,382,o),
(574,340,cs),
(574,312,o),
(574,284,o),
(574,256,cs),
(574,235,o),
(579,189,o),
(521,189,cs),
(511,189,o),
(500,189,o),
(490,189,c)
);
},
{
closed = 1;
nodes = (
(191,340,ls),
(191,382,o),
(208,400,o),
(251,400,cs),
(296,400,o),
(315,384,o),
(315,340,cs),
(315,250,ls),
(315,206,o),
(296,189,o),
(251,189,cs),
(208,189,o),
(191,208,o),
(191,250,cs)
);
}
);
width = 768;
},
{
anchors = (
{
name = bottom;
pos = (344,0);
},
{
name = nukta;
pos = (95,25);
},
{
name = top;
pos = (347,700);
}
);
guides = (
{
pos = (0,6);
},
{
pos = (0,700);
},
{
angle = 90;
pos = (361,0);
},
{
angle = 90;
pos = (325,0);
}
);
layerId = "0DC1F6FB-20EC-4E8F-AE98-F98B5FD714DE";
shapes = (
{
closed = 1;
nodes = (
(431,107,l),
(492,107,ls),
(600,107,o),
(640,161,o),
(640,245,cs),
(640,381,ls),
(640,479,o),
(586,520,o),
(486,520,cs),
(444,520,o),
(389,508,o),
(364,471,c),
(361,471,l),
(361,664,l),
(716,664,l),
(716,700,l),
(-30,700,l),
(-30,664,l),
(325,664,l),
(325,471,l),
(322,471,l),
(297,508,o),
(240,520,o),
(198,520,cs),
(101,520,o),
(46,479,o),
(46,381,cs),
(46,336,o),
(46,291,o),
(46,246,cs),
(46,149,o),
(101,107,o),
(198,107,cs),
(240,107,o),
(297,119,o),
(322,156,c),
(323,156,o),
(324,156,o),
(325,156,c),
(325,0,l),
(361,0,l),
(361,396,l),
(364,461,o),
(421,485,o),
(486,485,cs),
(563,485,o),
(604,452,o),
(604,377,cs),
(604,339,o),
(604,300,o),
(604,262,cs),
(604,225,o),
(602,142,o),
(498,142,cs),
(476,142,o),
(453,142,o),
(431,142,c)
);
},
{
closed = 1;
nodes = (
(82,377,ls),
(82,453,o),
(121,485,o),
(198,485,cs),
(279,485,o),
(325,456,o),
(325,372,cs),
(325,251,ls),
(325,172,o),
(279,142,o),
(198,142,cs),
(121,142,o),
(82,176,o),
(82,251,cs)
);
}
);
width = 686;
}
);
unicode = 2325;
},
{
color = 3;
glyphname = Kha.dv;
kernLeft = vowelI.dv;
kernRight = Chandrabindu.dv;
layers = (
{
anchors = (
{
name = bottom;
pos = (632,0);
},
{
name = candra;
pos = (386,1130);
},
{
name = nukta;
pos = (94,30);
},
{
name = top;
pos = (666,701);
}
);
guides = (
{
pos = (0,592);
},
{
pos = (0,14);
}
);
layerId = "B3961A9D-C6DC-4F74-9770-9C992C479D86";
shapes = (
{
closed = 1;
nodes = (
(689,0,l),
(689,592,l),
(801,592,l),
(801,701,l),
(-30,701,l),
(-30,592,l),
(155,592,l),
(155,476,ls),
(155,385,o),
(93,380,o),
(44,380,c),
(44,287,l),
(139,124,ls),
(195,29,o),
(297,0,o),
(376,0,cs),
(458,0,l),
(458,113,l),
(409,113,ls),
(345,113,o),
(298,132,o),
(265,185,cs),
(187,309,l),
(187,314,l),
(282,323,o),
(290,400,o),
(291,478,cs),
(292,592,l),
(553,592,l),
(553,461,l),
(550,461,l),
(530,493,o),
(491,503,o),
(455,503,cs),
(374,503,o),
(334,468,o),
(334,386,cs),
(334,271,ls),
(334,190,o),
(374,154,o),
(455,154,cs),
(491,154,o),
(530,164,o),
(550,196,c),
(553,196,l),
(553,0,l)
);
},
{
closed = 1;
nodes = (
(449,367,ls),
(449,403,o),
(462,418,o),
(499,418,cs),
(536,418,o),
(553,404,o),
(553,367,cs),
(553,292,ls),
(553,254,o),
(536,240,o),
(499,240,cs),
(462,240,o),
(449,256,o),
(449,292,cs)
);
}
);
width = 771;
},
{
anchors = (
{
name = bottom;
pos = (571,0);
},
{
name = candra;
pos = (334,800);
},
{
name = nukta;
pos = (52,25);
},
{
name = top;
pos = (576,700);
}
);
guides = (
{
pos = (0,700);
},
{
pos = (0,664);
},
{
}
);
layerId = "0DC1F6FB-20EC-4E8F-AE98-F98B5FD714DE";
shapes = (
{
closed = 1;
nodes = (
(588,0,l),
(588,664,l),
(698,664,l),
(698,700,l),
(-30,700,l),
(-30,664,l),
(134,664,l),
(134,436,ls),
(134,345,o),
(72,340,o),
(23,340,c),
(23,310,l),
(118,124,ls),
(175,13,o),
(289,0,o),
(383,0,cs),
(417,0,l),
(417,35,l),
(383,35,ls),
(217,35,o),
(171,103,o),
(153,137,cs),
(66,306,l),
(66,310,l),
(145,318,o),
(170,360,o),
(170,438,cs),
(171,664,l),
(552,664,l),
(552,478,l),
(549,478,l),
(526,514,o),
(470,528,o),
(429,528,cs),
(336,528,o),
(280,487,o),
(280,395,cs),
(280,262,ls),
(280,171,o),
(339,129,o),
(429,129,cs),
(470,129,o),
(526,142,o),
(549,178,c),
(552,179,l),
(552,0,l)
);
},
{
closed = 1;
nodes = (
(315,389,ls),
(315,463,o),
(353,493,o),
(429,493,cs),
(506,493,o),
(552,464,o),
(552,389,cs),
(552,271,ls),
(552,193,o),
(506,164,o),
(429,164,cs),
(353,164,o),
(315,197,o),
(315,271,cs)
);
}
);
width = 668;
}
);
unicode = 2326;
},
{
color = 3;
glyphname = Ga.dv;
kernLeft = vowelI.dv;
kernRight = Chandrabindu.dv;
layers = (
{
anchors = (
{
name = bottom;
pos = (409,0);
},
{
name = candra;
pos = (358,820);
},
{
name = nukta;
pos = (118,107);
},
{
name = top;
pos = (441,701);
}
);
guides = (
{
pos = (0,13);
},
{
pos = (0,14);
}
);
layerId = "B3961A9D-C6DC-4F74-9770-9C992C479D86";
shapes = (
{
closed = 1;
nodes = (
(91,349,ls),
(91,308,o),
(89,308,o),
(59,308,c),
(40,308,l),
(40,197,l),
(115,197,ls),
(188,197,o),
(226,231,o),
(226,337,cs),
(226,417,l),
(223,592,l),
(330,592,l),
(330,0,l),
(466,0,l),
(466,592,l),
(576,592,l),
(576,701,l),
(-30,701,l),
(-30,592,l),
(88,592,l),
(91,378,l)
);
}
);
width = 546;
},
{
anchors = (
{
name = bottom;
pos = (391,0);
},
{
name = candra;
pos = (244,800);
},
{
name = nukta;
pos = (95,65);
},
{
name = top;
pos = (395,700);
}
);
guides = (
{
pos = (0,700);
},
{
pos = (0,664);
}
);
layerId = "0DC1F6FB-20EC-4E8F-AE98-F98B5FD714DE";
shapes = (
{
closed = 1;
nodes = (
(123,353,ls),
(123,294,o),
(120,293,o),
(80,293,cs),
(22,293,l),
(22,257,l),
(77,257,ls),
(173,257,o),
(159,291,o),
(159,397,cs),
(159,477,l),
(159,664,l),
(372,664,l),
(372,0,l),
(408,0,l),
(408,664,l),
(518,664,l),
(518,700,l),
(-30,700,l),
(-30,664,l),
(123,664,l),
(123,396,l)
);
}
);
width = 488;
}
);
unicode = 2327;
},
{
color = 3;
glyphname = Gha.dv;
kernLeft = vowelI.dv;
kernRight = Chandrabindu.dv;
layers = (
{
anchors = (
{
name = bottom;
pos = (466,0);
},
{
name = candra;
pos = (302,1130);
},
{
name = nukta;
pos = (194,30);
},
{
name = top;
pos = (497,701);
}
);
guides = (
{
pos = (0,14);
}
);
layerId = "B3961A9D-C6DC-4F74-9770-9C992C479D86";
shapes = (
{
closed = 1;
nodes = (
(318,80,o),
(364,108,o),
(384,134,c),
(387,134,l),
(387,0,l),
(523,0,l),
(523,592,l),
(633,592,l),
(633,701,l),
(-30,701,l),
(-30,592,l),
(68,592,l),
(68,468,ls),
(68,428,o),
(82,399,o),
(114,399,c),
(114,396,l),
(83,396,o),
(57,349,o),
(57,301,cs),
(57,243,ls),
(57,150,o),
(129,80,o),
(249,80,cs)
);
},
{
closed = 1;
nodes = (
(192,315,ls),
(192,330,o),
(198,343,o),
(224,343,cs),
(300,343,l),
(300,445,l),
(226,445,ls),
(199,445,o),
(202,466,o),
(202,486,cs),
(203,592,l),
(387,592,l),
(387,309,ls),
(387,256,o),
(385,195,o),
(294,192,cs),
(251,191,o),
(192,203,o),
(192,268,cs)
);
}
);
width = 603;
},
{
anchors = (
{
name = bottom;
pos = (448,0);
},
{
name = candra;
pos = (272,800);
},
{
name = nukta;
pos = (135,25);
},
{
name = top;
pos = (453,700);
}
);
guides = (
{
pos = (0,700);
},
{
pos = (0,664);
}
);
layerId = "0DC1F6FB-20EC-4E8F-AE98-F98B5FD714DE";
shapes = (
{
closed = 1;
nodes = (
(337,108,o),
(405,149,o),
(426,197,c),
(429,197,l),
(429,0,l),
(465,0,l),
(465,664,l),
(574,664,l),
(574,700,l),
(-30,700,l),
(-30,664,l),
(70,664,l),
(70,488,ls),
(70,448,o),
(69,416,o),
(107,416,c),
(107,413,l),
(63,413,o),
(57,383,o),
(57,348,cs),
(57,277,ls),
(57,144,o),
(124,108,o),
(250,108,cs)
);
},
{
closed = 1;
nodes = (
(92,321,ls),
(92,374,o),
(87,395,o),
(151,395,cs),
(262,395,l),
(263,428,l),
(167,428,ls),
(103,428,o),
(105,455,o),
(105,474,cs),
(105,664,l),
(429,664,l),
(429,338,ls),
(429,280,o),
(426,141,o),
(249,141,cs),
(104,141,o),
(92,217,o),
(92,277,cs)
);
}
);
width = 544;
}
);
unicode = 2328;
},
{
color = 3;
glyphname = Nga.dv;
kernLeft = vowelI.dv;
kernRight = Chandrabindu.dv;
layers = (
{
anchors = (
{
name = bottom;
pos = (272,-2);
},
{
name = candra;
pos = (308,1130);
},
{
name = nukta;
pos = (273,-69);
},
{
name = top;
pos = (401,701);
}
);
guides = (
{
pos = (0,14);
}
);
layerId = "B3961A9D-C6DC-4F74-9770-9C992C479D86";
shapes = (
{
closed = 1;
nodes = (
(558,262,o),
(575,278,o),
(575,319,c),
(575,360,o),
(558,376,o),
(518,376,c),
(477,376,o),
(461,360,o),
(461,319,c),
(461,278,o),
(477,262,o),
(518,262,c)
);
},
{
closed = 1;
nodes = (
(328,-8,o),
(471,2,o),
(471,143,c),
(471,158,l),
(471,195,o),
(467,269,o),
(309,288,cs),
(179,304,o),
(181,318,o),
(181,354,c),
(181,357,o),
(181,361,o),
(181,363,c),
(184,390,o),
(203,392,o),
(229,391,c),
(426,391,l),
(426,592,l),
(644,592,l),
(646,701,l),
(-28,701,l),
(-30,592,l),
(290,592,l),
(290,502,l),
(204,502,l),
(117,502,o),
(53,470,o),
(53,387,cs),
(53,376,o),
(53,342,o),
(53,345,c),
(50,233,o),
(158,214,o),
(251,196,cs),
(289,189,o),
(334,188,o),
(336,153,c),
(336,150,o),
(336,153,o),
(336,149,c),
(336,143,o),
(336,149,o),
(336,142,cs),
(336,106,o),
(289,106,o),
(245,107,cs),
(206,108,o),
(96,127,o),
(55,138,c),
(54,25,l),
(121,3,o),
(211,-8,o),
(260,-8,cs)
);
}
);
width = 616;
},
{
anchors = (
{
name = bottom;
pos = (251,8);
},
{
name = candra;
pos = (261,800);
},
{
name = nukta;
pos = (238,-65);
},
{
name = top;
pos = (382,700);
}
);
layerId = "0DC1F6FB-20EC-4E8F-AE98-F98B5FD714DE";
shapes = (
{
closed = 1;
nodes = (
(488,281,o),
(499,291,o),
(499,318,c),
(499,344,o),
(488,353,o),
(462,353,c),
(436,353,o),
(427,344,o),
(427,318,c),
(427,291,o),
(436,281,o),
(462,281,c)
);
},
{
closed = 1;
nodes = (
(317,2,o),
(439,12,o),
(439,153,c),
(439,158,l),
(439,187,o),
(430,265,o),
(310,287,cs),
(247,299,o),
(75,296,o),
(75,373,c),
(75,382,o),
(75,393,o),
(75,405,c),
(76,439,o),
(86,476,o),
(153,476,c),
(395,476,l),
(395,664,l),
(551,664,l),
(551,700,l),
(-30,700,l),
(-30,664,l),
(359,664,l),
(359,510,l),
(158,510,l),
(73,510,o),
(40,468,o),
(40,407,cs),
(40,396,o),
(40,367,o),
(40,370,c),
(40,291,o),
(142,267,o),
(240,259,cs),
(278,256,o),
(341,255,o),
(381,215,cs),
(403,193,o),
(404,169,o),
(404,159,c),
(404,153,o),
(404,171,o),
(404,152,cs),
(404,71,o),
(347,33,o),
(233,36,cs),
(194,37,o),
(106,51,o),
(42,72,c),
(42,35,l),
(109,13,o),
(189,2,o),
(238,2,cs)
);
}
);
width = 521;
}
);
unicode = 2329;
},
{
color = 3;
glyphname = Ca.dv;
kernLeft = vowelI.dv;
kernRight = Chandrabindu.dv;
layers = (
{
anchors = (
{
name = bottom;
pos = (498,0);
},
{
name = candra;
pos = (318,1130);
},
{
name = nukta;
pos = (214,30);
},
{
name = top;
pos = (532,701);
}
);
guides = (
{
pos = (0,14);
}
);
layerId = "B3961A9D-C6DC-4F74-9770-9C992C479D86";
shapes = (
{
closed = 1;
nodes = (
(344,94,o),
(387,112,o),
(416,147,c),
(419,147,l),
(419,0,l),
(555,0,l),
(555,592,l),
(665,592,l),
(665,701,l),
(-30,701,l),
(-30,592,l),
(419,592,l),
(419,331,ls),
(419,292,o),
(419,210,o),
(326,208,cs),
(277,207,o),
(241,226,o),
(241,273,cs),
(241,330,ls),
(241,361,o),
(259,374,o),
(293,374,cs),
(334,374,l),
(334,478,l),
(45,478,l),
(45,374,l),
(143,374,l),
(143,371,l),
(120,352,o),
(105,324,o),
(105,289,cs),
(105,253,ls),
(105,156,o),
(172,94,o),
(291,94,cs)
);
}
);
width = 635;
},
{
anchors = (
{
name = bottom;
pos = (476,0);
},
{
name = candra;
pos = (286,800);
},
{
name = nukta;
pos = (209,25);
},
{
name = top;
pos = (480,700);
}
);
layerId = "0DC1F6FB-20EC-4E8F-AE98-F98B5FD714DE";
shapes = (
{
closed = 1;
nodes = (
(360,111,o),
(436,135,o),
(454,174,c),
(457,174,l),
(457,0,l),
(493,0,l),
(493,664,l),
(602,664,l),
(602,700,l),
(-30,700,l),
(-30,664,l),
(457,664,l),
(457,314,ls),
(457,224,o),
(452,152,o),
(296,147,cs),
(193,144,o),
(158,204,o),
(158,271,cs),
(158,365,ls),
(158,423,o),
(188,453,o),
(258,453,cs),
(332,453,l),
(332,488,l),
(23,488,l),
(23,453,l),
(158,453,l),
(158,450,l),
(137,439,o),
(123,407,o),
(123,365,cs),
(123,273,ls),
(123,176,o),
(171,111,o),
(299,111,cs)
);
}
);
width = 572;
}
);
unicode = 2330;
},
{
color = 3;
glyphname = Cha.dv;
kernLeft = vowelI.dv;
kernRight = Chandrabindu.dv;
layers = (
{
anchors = (
{
name = bottom;
pos = (342,29);
},
{
name = candra;
pos = (316,1130);
},
{
name = nukta;
pos = (343,-40);
},
{
name = top;
pos = (492,701);
}
);
guides = (
{
pos = (0,14);
}
);
layerId = "B3961A9D-C6DC-4F74-9770-9C992C479D86";
shapes = (
{
closed = 1;
nodes = (
(572,30,o),
(574,147,o),
(574,270,cs),
(574,351,l),
(576,429,o),
(542,448,o),
(503,454,c),
(499,459,l),
(508,482,o),
(509,512,o),
(509,531,cs),
(509,551,o),
(509,572,o),
(509,592,c),
(662,592,l),
(662,701,l),
(-30,701,l),
(-30,592,l),
(112,592,l),
(112,591,o),
(112,590,o),
(112,589,c),
(89,577,o),
(76,558,o),
(76,524,cs),
(76,494,o),
(76,465,o),
(76,435,cs),
(76,388,o),
(101,372,o),
(129,359,c),
(129,358,o),
(129,357,o),
(129,356,c),
(98,343,o),
(69,317,o),
(69,259,cs),
(69,243,o),
(69,227,o),
(69,211,cs),
(69,91,o),
(139,23,o),
(325,26,cs)
);
},
{
closed = 1;
nodes = (
(204,263,ls),
(204,293,o),
(214,301,o),
(250,301,cs),
(290,301,l),
(290,398,l),
(244,398,ls),
(211,398,o),
(206,423,o),
(206,457,cs),
(206,466,o),
(206,476,o),
(206,485,cs),
(206,573,o),
(207,589,o),
(223,592,c),
(386,592,l),
(386,456,l),
(342,456,l),
(342,359,l),
(363,359,o),
(384,359,o),
(405,359,cs),
(439,359,o),
(441,339,o),
(441,294,cs),
(441,240,ls),
(441,166,o),
(405,137,o),
(319,137,cs),
(247,137,o),
(204,166,o),
(204,223,cs)
);
}
);
width = 632;
},
{
anchors = (
{
name = bottom;
pos = (301,34);
},
{
name = candra;
pos = (286,800);
},
{
name = nukta;
pos = (301,-45);
},
{
name = top;
pos = (445,700);
}
);
guides = (
{
pos = (0,428);
}
);
layerId = "0DC1F6FB-20EC-4E8F-AE98-F98B5FD714DE";
shapes = (
{
closed = 1;
nodes = (
(503,27,o),
(522,144,o),
(522,234,cs),
(522,353,l),
(524,431,o),
(490,448,o),
(451,454,c),
(450,455,l),
(460,469,o),
(457,494,o),
(457,531,cs),
(457,623,o),
(457,644,o),
(457,664,c),
(602,664,l),
(602,700,l),
(-30,700,l),
(-30,664,l),
(92,664,l),
(92,663,o),
(92,664,o),
(92,663,c),
(79,660,o),
(74,659,o),
(74,564,cs),
(74,534,o),
(74,505,o),
(74,475,cs),
(74,439,o),
(79,421,o),
(107,408,c),
(107,407,o),
(107,406,o),
(107,405,c),
(76,392,o),
(67,357,o),
(67,299,cs),
(67,283,o),
(67,227,o),
(67,211,cs),
(67,91,o),
(149,25,o),
(299,26,cs)
);
},
{
closed = 1;
nodes = (
(102,303,ls),
(102,333,o),
(112,391,o),
(148,391,cs),
(223,391,l),
(223,425,l),
(147,425,ls),
(114,425,o),
(109,463,o),
(109,497,cs),
(109,506,o),
(109,553,o),
(109,562,cs),
(109,651,o),
(104,664,o),
(150,664,c),
(423,664,l),
(423,456,l),
(330,456,l),
(330,422,l),
(351,422,o),
(372,422,o),
(393,422,cs),
(486,422,o),
(487,404,o),
(487,353,cs),
(487,234,ls),
(487,82,o),
(389,61,o),
(302,61,cs),
(115,61,o),
(102,166,o),
(102,223,cs)
);
}
);
width = 574;
}
);
unicode = 2331;
},
{
color = 3;
glyphname = Ja.dv;
kernLeft = vowelI.dv;
kernRight = Chandrabindu.dv;
layers = (
{
anchors = (
{
name = bottom;
pos = (505,0);
},
{
name = candra;
pos = (325,1130);
},
{
name = nukta;
pos = (154,-10);
},
{
name = top;
pos = (540,701);
}
);
guides = (
{
pos = (0,593);
},
{
pos = (0,14);
}
);
layerId = "B3961A9D-C6DC-4F74-9770-9C992C479D86";
shapes = (
{
closed = 1;
nodes = (
(358,284,o),
(334,323,o),
(302,349,c),
(302,352,l),
(426,352,l),
(426,0,l),
(562,0,l),
(562,592,l),
(676,592,l),
(676,701,l),
(-30,701,l),
(-30,592,l),
(426,592,l),
(426,459,l),
(91,459,l),
(91,352,l),
(144,352,ls),
(227,352,o),
(235,303,o),
(235,268,cs),
(235,224,o),
(207,190,o),
(124,190,cs),
(110,190,o),
(76,192,o),
(42,196,c),
(42,82,l),
(88,72,o),
(126,69,o),
(173,69,cs),
(288,69,o),
(353,126,o),
(356,215,cs)
);
}
);
width = 650;
},
{
anchors = (
{
name = bottom;
pos = (454,0);
},
{
name = candra;
pos = (276,800);
},
{
name = nukta;
pos = (155,25);
},
{
name = top;
pos = (459,700);
}
);
layerId = "0DC1F6FB-20EC-4E8F-AE98-F98B5FD714DE";
shapes = (
{
closed = 1;
nodes = (
(341,360,o),
(307,401,o),
(266,424,c),
(266,427,l),
(435,427,l),
(435,0,l),
(471,0,l),
(471,664,l),
(581,664,l),
(581,700,l),
(-30,700,l),
(-30,664,l),
(435,664,l),
(435,459,l),
(80,459,l),
(80,427,l),
(144,427,ls),
(276,427,o),
(301,343,o),
(301,284,cs),
(301,211,o),
(260,152,o),
(137,156,c),
(116,156,o),
(66,162,o),
(21,170,c),
(21,134,l),
(65,124,o),
(105,120,o),
(152,120,cs),
(274,120,o),
(335,180,o),
(338,275,cs)
);
}
);
width = 551;
}
);
unicode = 2332;
},
{
color = 3;
glyphname = Jha.dv;
kernLeft = vowelI.dv;
kernRight = Chandrabindu.dv;
layers = (
{
anchors = (
{
name = bottom;
pos = (649,0);
},
{
name = candra;
pos = (388,1130);
},
{
name = nukta;
pos = (-4,-30);
},
{
name = top;
pos = (683,701);
}
);
guides = (
{
pos = (0,14);
}
);
layerId = "B3961A9D-C6DC-4F74-9770-9C992C479D86";
shapes = (
{
closed = 1;
nodes = (
(335,-11,o),
(468,-15,o),
(468,123,cs),
(468,133,ls),
(468,169,o),
(448,187,o),
(432,194,c),
(432,199,l),
(570,199,l),
(570,0,l),
(706,0,l),
(706,592,l),
(805,592,l),
(806,701,l),
(-30,701,l),
(-30,592,l),
(287,592,l),
(287,502,l),
(217,502,ls),
(96,502,o),
(50,459,o),
(50,376,cs),
(50,355,ls),
(50,243,o),
(155,220,o),
(248,202,cs),
(286,195,o),
(331,190,o),
(333,159,c),
(333,155,ls),
(333,107,o),
(286,106,o),
(242,107,cs),
(231,107,o),
(216,109,o),
(198,111,c),
(181,203,l),
(128,201,o),
(41,188,o),
(46,106,c),
(49,82,o),
(53,5,o),
(130,-4,c),
(130,-7,l),
(102,-52,o),
(97,-102,o),
(108,-176,c),
(154,-169,o),
(200,-162,o),
(246,-155,c),
(237,-105,o),
(227,-55,o),
(218,-5,c)
);
},
{
closed = 1;
nodes = (
(178,353,ls),
(178,385,o),
(200,391,o),
(226,391,cs),
(423,391,l),
(423,592,l),
(570,592,l),
(570,304,l),
(241,304,ls),
(193,304,o),
(178,317,o),
(178,344,cs)
);
}
);
width = 776;
},
{
anchors = (
{
name = bottom;
pos = (577,0);
},
{
name = candra;
pos = (334,800);
},
{
name = nukta;
pos = (36,-34);
},
{
name = top;
pos = (582,700);
}
);
guides = (
{
pos = (0,153);
},
{
pos = (0,82);
},
{
pos = (0,-106);
}
);
layerId = "0DC1F6FB-20EC-4E8F-AE98-F98B5FD714DE";
shapes = (
{
closed = 1;
nodes = (
(337,-23,o),
(438,12,o),
(438,150,cs),
(438,160,ls),
(438,206,o),
(414,249,o),
(378,259,c),
(378,261,l),
(559,261,l),
(559,0,l),
(594,0,l),
(594,664,l),
(697,664,l),
(697,700,l),
(-30,700,l),
(-30,664,l),
(377,664,l),
(377,510,l),
(164,510,ls),
(78,510,o),
(39,483,o),
(39,400,cs),
(39,379,ls),
(39,275,o),
(151,261,o),
(251,260,cs),
(329,259,o),
(403,238,o),
(403,159,cs),
(403,155,ls),
(403,107,o),
(393,29,o),
(259,38,cs),
(174,44,o),
(149,51,o),
(128,58,c),
(104,153,l),
(81,150,o),
(31,133,o),
(42,82,cs),
(46,65,o),
(53,15,o),
(115,25,c),
(116,21,l),
(113,10,o),
(109,-22,o),
(133,-106,c),
(169,-98,o),
(133,-106,o),
(169,-98,c),
(159,-59,o),
(148,-19,o),
(138,20,c)
);
},
{
closed = 1;
nodes = (
(74,393,ls),
(74,477,o),
(129,475,o),
(155,475,cs),
(412,475,l),
(412,664,l),
(559,664,l),
(559,296,l),
(247,296,ls),
(199,296,o),
(74,295,o),
(74,384,cs)
);
}
);
width = 667;
}
);
unicode = 2333;
},
{
color = 3;
glyphname = Nya.dv;
kernLeft = vowelI.dv;
kernRight = Chandrabindu.dv;
layers = (
{
anchors = (
{
name = bottom;
pos = (513,0);
},
{
name = candra;
pos = (326,1130);
},
{
name = nukta;
pos = (154,0);
},
{
name = top;
pos = (547,701);
}
);
guides = (
{
pos = (0,14);
}
);
layerId = "B3961A9D-C6DC-4F74-9770-9C992C479D86";
shapes = (
{
closed = 1;
nodes = (
(51,87,l),
(108,71,o),
(150,70,o),
(157,70,cs),
(267,70,o),
(351,123,o),
(362,215,c),
(434,215,l),
(434,0,l),
(570,0,l),
(570,592,l),
(681,592,l),
(681,701,l),
(-30,701,l),
(-30,592,l),
(434,592,l),
(434,333,l),
(360,333,l),
(347,444,o),
(245,489,o),
(161,486,c),
(149,486,o),
(115,485,o),
(71,470,c),
(71,340,l),
(91,350,o),
(125,353,o),
(133,353,cs),
(200,353,o),
(241,332,o),
(241,276,cs),
(241,221,o),
(204,196,o),
(130,196,cs),
(122,196,o),
(77,198,o),
(51,206,c)
);
}
);
width = 651;
},
{
anchors = (
{
name = bottom;
pos = (481,0);
},
{
name = candra;
pos = (289,800);
},
{
name = nukta;
pos = (126,25);
},
{
name = top;
pos = (486,700);
}
);
layerId = "0DC1F6FB-20EC-4E8F-AE98-F98B5FD714DE";
shapes = (
{
closed = 1;
nodes = (
(30,141,l),
(82,127,o),
(119,127,o),
(126,127,cs),
(275,127,o),
(311,211,o),
(313,294,c),
(463,294,l),
(463,0,l),
(498,0,l),
(498,664,l),
(608,664,l),
(608,700,l),
(-30,700,l),
(-30,664,l),
(463,664,l),
(463,328,l),
(313,328,l),
(313,460,o),
(205,503,o),
(129,501,c),
(118,501,o),
(88,500,o),
(48,486,c),
(46,451,l),
(73,463,o),
(112,467,o),
(128,467,cs),
(216,467,o),
(278,418,o),
(278,316,cs),
(278,216,o),
(246,161,o),
(122,161,cs),
(108,161,o),
(64,165,o),
(30,173,c)
);
}
);
width = 578;
}
);
unicode = 2334;
},
{
color = 3;
glyphname = Tta.dv;
kernLeft = vowelI.dv;
kernRight = Chandrabindu.dv;
layers = (
{
anchors = (
{
name = bottom;
pos = (301,3);
},
{
name = candra;
pos = (270,1130);
},
{
name = nukta;
pos = (334,-80);
},
{
name = top;
pos = (439,701);
}
);
guides = (
{
angle = 90;
pos = (78,0);
},
{
pos = (0,14);
}
);
layerId = "B3961A9D-C6DC-4F74-9770-9C992C479D86";
shapes = (
{
closed = 1;
nodes = (
(-30,592,l),
(327,592,l),
(327,499,l),
(251,499,ls),
(124,499,o),
(78,434,o),
(78,312,cs),
(78,188,ls),
(78,29,o),
(158,-5,o),
(301,-5,cs),
(359,-4,o),
(434,8,o),
(482,24,c),
(482,130,l),
(482,130,o),
(388,103,o),
(291,108,cs),
(231,112,o),
(217,137,o),
(216,199,cs),
(215,301,ls),
(214,363,o),
(232,398,o),
(290,398,cs),
(463,398,l),
(463,592,l),
(569,592,l),
(569,701,l),
(-30,701,l)
);
}
);
width = 539;
},
{
anchors = (
{
name = bottom;
pos = (267,15);
},
{
name = candra;
pos = (236,800);
},
{
name = nukta;
pos = (256,-59);
},
{
name = top;
pos = (406,700);
}
);
layerId = "0DC1F6FB-20EC-4E8F-AE98-F98B5FD714DE";
shapes = (
{
closed = 1;
nodes = (
(-30,664,l),
(383,664,l),
(383,508,l),
(196,508,ls),
(96,508,o),
(53,443,o),
(53,321,cs),
(53,197,ls),
(53,38,o),
(110,14,o),
(256,14,cs),
(314,15,o),
(368,17,o),
(437,33,c),
(437,68,l),
(437,68,o),
(357,44,o),
(200,52,cs),
(87,57,o),
(90,136,o),
(89,198,cs),
(88,310,ls),
(87,372,o),
(93,473,o),
(198,473,cs),
(418,473,l),
(418,664,l),
(502,664,l),
(502,700,l),
(-30,700,l)
);
}
);
width = 472;
}
);
unicode = 2335;
},
{
color = 3;
glyphname = Ttha.dv;
kernLeft = vowelI.dv;
kernRight = Chandrabindu.dv;
layers = (
{
anchors = (
{
name = bottom;
pos = (331,7);
},
{
name = candra;
pos = (304,1130);
},
{
name = nukta;
pos = (334,-80);
},
{
name = top;
pos = (351,701);
}
);
layerId = "B3961A9D-C6DC-4F74-9770-9C992C479D86";
shapes = (
{
closed = 1;
nodes = (
(346,399,ls),
(415,399,o),
(415,331,o),
(415,298,cs),
(415,267,o),
(416,235,o),
(416,204,cs),
(416,172,o),
(416,103,o),
(346,103,cs),
(322,103,o),
(299,103,o),
(275,103,cs),
(217,103,o),
(201,139,o),
(200,200,cs),
(200,234,o),
(199,268,o),
(199,302,cs),
(198,364,o),
(216,399,o),
(274,399,cs)
);
},
{
closed = 1;
nodes = (
(63,67,o),
(109,2,o),
(235,2,cs),
(283,2,o),
(332,2,o),
(380,2,cs),
(506,2,o),
(552,67,o),
(552,189,cs),
(552,230,o),
(552,272,o),
(552,313,cs),
(552,435,o),
(506,500,o),
(380,500,cs),
(378,500,o),
(376,500,o),
(374,500,c),
(374,592,l),
(467,592,o),
(544,592,o),
(637,592,c),
(637,659,o),
(637,665,o),
(637,701,c),
(441,701,o),
(166,701,o),
(-30,701,c),
(-30,665,o),
(-30,659,o),
(-30,592,c),
(28,592,o),
(180,592,o),
(238,592,c),
(238,592,o),
(238,531,o),
(238,500,c),
(235,500,ls),
(109,500,o),
(63,435,o),
(63,313,cs),
(63,272,o),
(63,230,o),
(63,189,cs)
);
}
);
width = 607;
},
{
anchors = (
{
name = bottom;
pos = (281,5);
},
{
name = candra;
pos = (275,800);
},
{
name = nukta;
pos = (282,-71);
},
{
name = top;
pos = (277,700);
}
);
layerId = "0DC1F6FB-20EC-4E8F-AE98-F98B5FD714DE";
shapes = (
{
closed = 1;
nodes = (
(329,467,ls),
(450,467,o),
(464,374,o),
(464,329,cs),
(464,286,o),
(465,217,o),
(465,174,cs),
(465,131,o),
(455,37,o),
(328,37,cs),
(295,37,o),
(255,37,o),
(222,37,cs),
(128,37,o),
(88,86,o),
(87,169,cs),
(87,215,o),
(86,288,o),
(85,334,cs),
(84,414,o),
(128,467,o),
(222,467,cs)
);
},
{
closed = 1;
nodes = (
(51,67,o),
(97,2,o),
(223,2,cs),
(271,2,o),
(280,2,o),
(328,2,cs),
(454,2,o),
(500,67,o),
(500,189,cs),
(500,230,o),
(500,272,o),
(500,313,cs),
(500,435,o),
(454,500,o),
(328,500,cs),
(313,500,o),
(303,500,o),
(289,500,c),
(289,664,l),
(382,664,o),
(487,664,o),
(580,664,c),
(580,700,o),
(580,664,o),
(580,700,c),
(384,700,o),
(166,700,o),
(-30,700,c),
(-30,664,o),
(-30,700,o),
(-30,664,c),
(28,664,o),
(198,664,o),
(256,664,c),
(256,633,o),
(256,531,o),
(256,500,c),
(219,500,ls),
(90,500,o),
(51,435,o),
(51,313,cs),
(51,272,o),
(51,230,o),
(51,189,cs)
);
}
);
width = 550;
}
);
unicode = 2336;
},
{
color = 3;
glyphname = Dda.dv;
kernLeft = vowelI.dv;
kernRight = Chandrabindu.dv;
layers = (
{
anchors = (
{
name = bottom;
pos = (296,-3);
},
{
name = candra;
pos = (259,1130);
},
{
name = nukta;
pos = (275,-80);
},
{
name = top;
pos = (406,701);
}
);
guides = (
{
pos = (0,14);
}
);
layerId = "B3961A9D-C6DC-4F74-9770-9C992C479D86";
shapes = (
{
closed = 1;
nodes = (
(332,-8,o),
(475,2,o),
(475,143,c),
(475,158,l),
(475,195,o),
(471,269,o),
(313,288,cs),
(183,304,o),
(185,318,o),
(185,354,c),
(185,357,o),
(185,361,o),
(185,363,c),
(188,390,o),
(207,392,o),
(233,391,c),
(430,391,l),
(430,592,l),
(548,592,l),
(548,701,l),
(-30,701,l),
(-30,592,l),
(294,592,l),
(294,502,l),
(208,502,l),
(121,502,o),
(57,470,o),
(57,387,cs),
(57,376,o),
(57,342,o),
(57,345,c),
(54,233,o),
(162,214,o),
(255,196,cs),
(293,189,o),
(338,188,o),
(340,153,c),
(340,150,o),
(340,153,o),
(340,149,c),
(340,143,o),
(340,149,o),
(340,142,cs),
(340,106,o),
(293,106,o),
(249,107,cs),
(210,108,o),
(100,127,o),
(59,138,c),
(58,25,l),
(125,3,o),
(215,-8,o),
(264,-8,cs)
);
}
);
width = 518;
},
{
anchors = (
{
name = bottom;
pos = (251,8);
},
{
name = candra;
pos = (240,800);
},
{
name = nukta;
pos = (241,-59);
},
{
name = top;
pos = (384,700);
}
);
layerId = "0DC1F6FB-20EC-4E8F-AE98-F98B5FD714DE";
shapes = (
{
closed = 1;
nodes = (
(319,2,o),
(441,12,o),
(441,153,c),
(441,158,l),
(441,184,o),
(435,265,o),
(312,287,cs),
(249,298,o),
(77,296,o),
(77,373,c),
(77,382,o),
(77,393,o),
(77,405,c),
(78,439,o),
(88,476,o),
(155,476,c),
(396,478,l),
(396,664,l),
(509,664,l),
(509,700,l),
(-30,700,l),
(-30,664,l),
(361,664,l),
(361,512,l),
(160,510,l),
(75,510,o),
(42,477,o),
(42,407,cs),
(42,396,o),
(42,367,o),
(42,370,c),
(42,291,o),
(143,268,o),
(241,260,cs),
(279,257,o),
(343,255,o),
(383,215,cs),
(405,193,o),
(406,175,o),
(406,165,c),
(406,159,o),
(406,171,o),
(406,152,cs),
(406,64,o),
(349,33,o),
(235,36,cs),
(196,37,o),
(108,51,o),
(44,72,c),
(44,35,l),
(111,13,o),
(191,2,o),
(240,2,cs)
);
}
);
width = 479;
}
);
unicode = 2337;
},
{
color = 3;
glyphname = Ddha.dv;
kernLeft = vowelI.dv;
kernRight = Chandrabindu.dv;
layers = (
{
anchors = (
{
name = bottom;
pos = (325,0);
},
{
name = candra;
pos = (287,1130);
},
{
name = nukta;
pos = (334,-80);
},
{
name = top;
pos = (449,701);
}
);
guides = (
{
pos = (0,213);
}
);
layerId = "B3961A9D-C6DC-4F74-9770-9C992C479D86";
shapes = (
{
closed = 1;
nodes = (
(518,-5,o),
(524,81,o),
(523,169,cs),
(522,297,o),
(438,310,o),
(340,310,cs),
(319,310,o),
(323,310,o),
(272,310,c),
(272,209,l),
(317,209,ls),
(368,209,o),
(386,199,o),
(387,162,cs),
(389,112,o),
(347,108,o),
(302,108,cs),
(206,108,o),
(200,138,o),
(198,199,c),
(198,301,l),
(197,363,o),
(215,398,o),
(273,398,cs),
(475,398,l),
(475,592,l),
(603,592,l),
(603,701,l),
(-30,701,l),
(-30,592,l),
(339,592,l),
(339,499,l),
(234,499,ls),
(107,499,o),
(61,434,o),
(61,312,cs),
(61,188,ls),
(61,30,o),
(162,-5,o),
(303,-5,cs)
);
}
);
width = 573;
},
{
anchors = (
{
name = bottom;
pos = (268,19);
},
{
name = candra;
pos = (239,800);
},
{
name = nukta;
pos = (256,-59);
},
{
name = top;
pos = (385,700);
}
);
layerId = "0DC1F6FB-20EC-4E8F-AE98-F98B5FD714DE";
shapes = (
{
closed = 1;
nodes = (
(384,14,o),
(438,58,o),
(441,149,cs),
(446,291,o),
(303,285,o),
(267,285,cs),
(226,285,o),
(223,285,o),
(192,285,c),
(192,249,l),
(266,249,ls),
(375,249,o),
(405,218,o),
(405,152,cs),
(405,48,o),
(297,49,o),
(252,49,cs),
(75,49,o),
(86,153,o),
(86,204,cs),
(85,316,ls),
(84,378,o),
(92,474,o),
(226,474,cs),
(395,474,l),
(395,664,l),
(508,664,l),
(508,700,l),
(-30,700,l),
(-30,664,l),
(359,664,l),
(359,509,l),
(224,509,ls),
(97,509,o),
(51,444,o),
(51,322,cs),
(51,188,ls),
(51,48,o),
(136,14,o),
(253,14,cs)
);
}
);
width = 478;
}
);
unicode = 2338;
},
{
color = 3;
glyphname = Nna.dv;
kernLeft = vowelI.dv;
kernRight = Chandrabindu.dv;
layers = (
{
anchors = (
{
name = bottom;
pos = (649,0);
},
{
name = candra;
pos = (392,1130);
},
{
name = nukta;
pos = (257,90);
},
{
name = top;
pos = (683,701);
}
);
guides = (
{
pos = (0,14);
}
);
layerId = "B3961A9D-C6DC-4F74-9770-9C992C479D86";
shapes = (
{
closed = 1;
nodes = (
(57,334,ls),
(57,244,o),
(101,175,o),
(253,176,cs),
(397,177,o),
(440,245,o),
(440,334,cs),
(440,592,l),
(570,592,l),
(570,0,l),
(706,0,l),
(706,592,l),
(814,592,l),
(814,701,l),
(-30,701,l),
(-30,592,l),
(58,592,l)
);
},
{
closed = 1;
nodes = (
(307,592,l),
(308,358,l),
(308,358,o),
(312,286,o),
(250,287,cs),
(208,288,o),
(190,313,o),
(190,358,cs),
(190,436,o),
(189,514,o),
(189,592,c)
);
}
);
width = 784;
},
{
anchors = (
{
name = bottom;
pos = (587,0);
},
{
name = candra;
pos = (342,800);
},
{
name = nukta;
pos = (246,41);
},
{
name = top;
pos = (594,700);
}
);
guides = (
{
pos = (0,6);
}
);
layerId = "0DC1F6FB-20EC-4E8F-AE98-F98B5FD714DE";
shapes = (
{
closed = 1;
nodes = (
(55,334,ls),
(55,244,o),
(89,175,o),
(241,176,cs),
(381,177,o),
(410,244,o),
(410,334,cs),
(410,664,l),
(568,664,l),
(568,0,l),
(604,0,l),
(604,664,l),
(714,664,l),
(714,700,l),
(-30,700,l),
(-30,664,l),
(56,664,l)
);
},
{
closed = 1;
nodes = (
(374,664,l),
(375,358,l),
(375,313,o),
(390,211,o),
(238,211,cs),
(76,211,o),
(91,313,o),
(91,358,cs),
(91,436,o),
(90,586,o),
(90,664,c)
);
}
);
width = 684;
}
);
unicode = 2339;
},
{
color = 3;
glyphname = Ta.dv;
kernLeft = vowelI.dv;
kernRight = Chandrabindu.dv;
layers = (
{
anchors = (
{
name = bottom;
pos = (446,0);
},
{
name = candra;
pos = (293,1130);
},
{
name = nukta;
pos = (151,-63);
},
{
name = top;
pos = (480,701);
}
);
associatedMasterId = "0DC1F6FB-20EC-4E8F-AE98-F98B5FD714DE";
layerId = "A60E2505-20D3-4070-AD0C-80FD77649E51";
name = "#instance";
shapes = (
{
closed = 1;
nodes = (
(212,0,l),
(196,275,o),
(212,-10,o),
(196,265,c),
(190,332,o),
(215,350,o),
(262,350,c),
(367,349,l),
(367,0,l),
(503,0,l),
(503,592,l),
(615,592,l),
(615,701,l),
(-30,701,l),
(-30,592,l),
(367,592,l),
(367,460,l),
(209,460,ls),
(73,460,o),
(57,360,o),
(61,285,cs),
(77,0,l)
);
}
);
width = 585;
},
{
anchors = (
{
name = bottom;
pos = (446,0);
},
{
name = candra;
pos = (293,1130);
},
{
name = nukta;
pos = (151,-63);
},
{
name = top;
pos = (480,701);
}
);
guides = (
{
pos = (0,14);
}
);
layerId = "B3961A9D-C6DC-4F74-9770-9C992C479D86";
shapes = (
{
closed = 1;
nodes = (
(212,0,l),
(196,275,o),
(212,-10,o),
(196,265,c),
(190,332,o),
(215,350,o),
(262,350,cs),
(367,349,l),
(367,0,l),
(503,0,l),
(503,592,l),
(615,592,l),
(615,701,l),
(-30,701,l),
(-30,592,l),
(367,592,l),
(367,460,l),
(209,460,ls),
(73,460,o),
(57,360,o),
(61,285,cs),
(77,0,l)
);
}
);
width = 585;
},
{
anchors = (
{
name = bottom;
pos = (416,0);
},
{
name = candra;
pos = (257,800);
},
{
name = nukta;
pos = (2,14);
},
{
name = top;
pos = (397,700);
}
);
layerId = "0DC1F6FB-20EC-4E8F-AE98-F98B5FD714DE";
shapes = (
{
closed = 1;
nodes = (
(101,0,l),
(95,96,o),
(90,191,o),
(84,287,c),
(84,394,o),
(122,425,o),
(189,425,cs),
(397,424,l),
(397,0,l),
(433,0,l),
(433,664,l),
(543,664,l),
(543,700,l),
(-30,700,l),
(-30,664,l),
(397,664,l),
(397,460,l),
(198,460,ls),
(59,460,o),
(46,360,o),
(49,285,c),
(66,0,l)
);
}
);
width = 513;
}
);
unicode = 2340;
},
{
color = 3;
glyphname = Tha.dv;
kernLeft = vowelI.dv;
kernRight = Chandrabindu.dv;
layers = (
{
anchors = (
{
name = bottom;
pos = (548,0);
},
{
name = candra;
pos = (343,1130);
},
{
name = nukta;
pos = (192,35);
},
{
name = top;
pos = (583,701);
}
);
layerId = "B3961A9D-C6DC-4F74-9770-9C992C479D86";
shapes = (
{
closed = 1;
nodes = (
(605,0,l),
(605,592,l),
(716,592,l),
(716,701,l),
(469,701,l),
(469,363,ls),
(469,248,o),
(409,217,o),
(328,217,cs),
(261,217,o),
(185,242,o),
(185,326,c),
(317,335,o),
(391,412,o),
(391,518,cs),
(391,540,ls),
(391,655,o),
(354,714,o),
(230,714,cs),
(222,714,ls),
(96,714,o),
(64,653,o),
(64,533,cs),
(64,500,l),
(199,500,l),
(199,528,ls),
(199,566,o),
(194,602,o),
(227,602,cs),
(259,602,o),
(256,585,o),
(256,547,cs),
(256,539,ls),
(256,443,o),
(188,421,o),
(110,419,cs),
(86,418,o),
(55,418,o),
(55,418,c),
(55,314,ls),
(55,175,o),
(153,102,o),
(307,102,cs),
(371,102,o),
(431,125,o),
(466,160,c),
(469,160,l),
(469,0,l)
);
}
);
width = 686;
},
{
anchors = (
{
name = bottom;
pos = (485,0);
},
{
name = candra;
pos = (291,800);
},
{
name = nukta;
pos = (120,25);
},
{
name = top;
pos = (492,700);
}
);
layerId = "0DC1F6FB-20EC-4E8F-AE98-F98B5FD714DE";
shapes = (
{
closed = 1;
nodes = (
(502,0,l),
(502,664,l),
(611,664,l),
(611,700,l),
(467,700,l),
(467,373,ls),
(467,258,o),
(409,143,o),
(268,143,cs),
(138,143,o),
(72,189,o),
(78,381,c),
(201,382,o),
(350,400,o),
(350,544,cs),
(350,560,ls),
(350,674,o),
(298,706,o),
(218,706,cs),
(210,706,ls),
(92,706,o),
(72,650,o),
(72,533,cs),
(72,500,l),
(107,500,l),
(107,528,ls),
(107,675,o),
(148,672,o),
(216,672,cs),
(306,672,o),
(316,618,o),
(316,547,cs),
(316,539,ls),
(316,440,o),
(206,420,o),
(98,416,cs),
(74,415,o),
(43,415,o),
(43,415,c),
(43,371,ls),
(43,185,o),
(93,109,o),
(267,109,cs),
(383,109,o),
(439,162,o),
(464,225,c),
(467,225,l),
(467,0,l)
);
}
);
width = 581;
}
);
unicode = 2341;
},
